<?xml version="1.0" encoding="UTF-8"?>
<!DOCTYPE svg PUBLIC "-//W3C//DTD SVG 1.1//EN" "http://www.w3.org/Graphics/SVG/1.1/DTD/svg11.dtd">
<svg version="1.1" xmlns="http://www.w3.org/2000/svg" xmlns:xlink="http://www.w3.org/1999/xlink" width="540" height="540"  xml:space="preserve" id="logo">
    <!-- Generated by PaintCode - http://www.paintcodeapp.com -->
    <circle id="logo-oval" stroke="rgb(16, 67, 145)" stroke-width="20" stroke-miterlimit="10" fill="rgb(255, 255, 255)" cx="270" cy="270" r="260" />
    <g id="logo-gscclogo">
        <path id="logo-canvas4bezier2" stroke="none" fill="rgb(16, 67, 145)" d="M 82.62,391 C 81.82,390.82 81.02,390.51 80.2,390.47 74.9,390.23 69.59,385.29 69.57,379.58 69.55,375 69.36,370.42 69.14,365.85 68.83,359.81 67.23,355.67 60,354.76 L 60,345.25 C 60.62,345.1 61.32,344.88 62.03,344.75 65.31,344.15 68.37,341.29 68.65,337.94 69.12,332.31 69.4,326.65 69.54,321 69.71,314.25 74.1,310.14 80.31,309.54 83.02,309.28 85.74,309.16 88.65,308.97 L 88.65,318.82 C 87.14,318.99 85.66,319.11 84.21,319.34 80.96,319.85 80.14,320.8 80.01,324.12 79.87,327.53 79.63,330.95 79.67,334.36 79.73,340.61 78.04,346 72.63,349.67 73.88,351.13 74.87,352.55 76.12,353.69 78.93,356.24 79.18,359.68 79.47,363.05 79.79,366.86 79.87,370.7 79.96,374.53 80.08,379.32 80.81,380.19 85.49,380.73 86.48,380.85 87.47,380.96 88.62,381.08 L 88.62,391 82.62,391 Z M 82.62,391" />
        <path id="logo-canvas4bezier3" stroke="none" fill="rgb(16, 67, 145)" d="M 451.13,391 L 451.13,381.13 C 452.55,380.96 453.85,380.79 455.15,380.64 458.63,380.23 459.59,379.22 459.78,375.71 460.03,370.81 460.16,365.9 460.54,361 460.91,356.22 463.81,352.88 467.49,349.85 462.14,346.14 459.97,340.83 460.09,334.36 460.16,330.95 459.89,327.54 459.75,324.13 459.61,320.58 458.9,319.8 455.41,319.31 454.1,319.13 452.78,319 451.23,318.83 L 451.23,309.13 C 456.88,309.33 462.65,308.42 467.28,313.11 470.02,315.89 470.19,319.37 470.42,322.82 470.73,327.3 470.59,331.81 470.98,336.28 471.41,341.23 473.84,343.74 478.66,344.89 479.05,344.98 479.42,345.13 479.87,345.27 479.91,345.92 479.97,346.49 479.97,347.06 479.99,349.56 479.98,352.04 479.98,354.68 479.25,354.86 478.63,355.05 478.01,355.17 474.28,355.89 471.37,358.72 471.06,362.52 470.63,367.82 470.4,373.14 470.33,378.46 470.23,385.57 465.93,389.87 459.04,390.54 458.56,390.59 458.1,390.84 457.63,391 L 451.13,391 Z M 451.13,391" />
        <path id="logo-canvas4bezier4" stroke="none" fill="rgb(200, 212, 230)" d="M 296.47,86.39 C 296.27,84.86 296.17,83.21 295.78,81.62 295.64,81.05 294.84,80.31 294.29,80.26 293.73,80.21 292.94,80.79 292.54,81.32 291.06,83.29 291.07,89.61 292.57,91.53 292.97,92.04 293.77,92.6 294.32,92.53 294.88,92.47 295.66,91.74 295.8,91.17 296.17,89.66 296.25,88.08 296.47,86.39 Z M 295.13,77 C 296.68,78.27 299.04,78.85 299.09,81.45 299.15,84.73 299.56,88.06 299.09,91.27 298.65,94.21 296.55,95.38 293.7,95.33 291.49,95.3 289.4,93.79 289.06,91.05 288.68,87.96 288.92,84.77 289.12,81.64 289.27,79.2 291.07,77.93 293.13,77 L 295.13,77 Z M 295.13,77" />
        <path id="logo-canvas4bezier5" stroke="none" fill="rgb(200, 212, 230)" d="M 240.38,86.73 C 240.32,86.73 240.26,86.72 240.21,86.72 240.21,85.23 240.44,83.69 240.12,82.27 239.93,81.46 238.85,80.32 238.14,80.3 237.43,80.27 236.1,81.4 236.04,82.11 235.8,84.98 235.81,87.88 236.06,90.75 236.12,91.43 237.43,92.41 238.24,92.49 238.82,92.55 239.87,91.44 240.1,90.67 240.46,89.44 240.31,88.05 240.38,86.73 Z M 239.13,77 C 243.83,80.23 245.64,86.79 242.97,92.02 241.9,94.11 240.2,95.73 237.31,95.39 234.82,95.09 233.61,93.26 233.43,91.5 233.06,87.95 233.26,84.31 233.59,80.74 233.77,78.82 235.02,77.41 237.36,77.62 237.76,77.66 238.2,77.22 238.63,77 L 239.13,77 Z M 239.13,77" />
        <path id="logo-canvas4bezier6" stroke="none" fill="rgb(200, 212, 230)" d="M 267.13,77 C 270.93,79.25 271.9,81.6 271.24,87.19 270.57,87.22 269.86,87.25 268.95,87.29 268.89,86.42 268.82,85.7 268.8,84.99 268.67,81.57 267.71,79.68 265.99,80.02 263.16,80.58 264.03,83.06 263.96,84.89 263.82,88.67 263.69,89.09 261.14,90.9 259.19,84.49 260.4,80.26 265.13,77 L 267.13,77 Z M 267.13,77" />
        <path id="logo-canvas4bezier7" stroke="none" fill="rgb(200, 212, 230)" d="M 283.13,77 L 283.13,95.14 C 281.93,95.21 281.06,95.25 279.85,95.32 L 279.85,82.32 C 278.2,83.01 276.94,83.54 275.61,84.1 274.89,82.54 275.63,81.96 276.75,81.09 278.11,80.03 279.02,78.39 280.13,77 L 283.13,77 Z M 283.13,77" />
        <path id="logo-canvas4bezier8" stroke="none" fill="rgb(200, 212, 230)" d="M 255.13,77 L 255.13,95.15 C 253.89,95.22 253.02,95.26 251.82,95.33 L 251.82,82.02 C 250.26,82.92 249.16,83.55 248.07,84.18 247.87,84.06 247.67,83.95 247.47,83.83 248.05,82.9 248.56,81.91 249.22,81.05 250.3,79.66 251.49,78.35 252.63,77 L 255.13,77 Z M 255.13,77" />
        <path id="logo-canvas4bezier9" stroke="none" fill="rgb(16, 67, 145)" d="M 298.92,280.02 C 292.71,280.02 286.84,280.02 280.96,280.01 267.64,280 254.31,279.94 240.99,279.98 233.52,280.01 226.04,280.29 218.56,280.24 217.15,280.23 215.5,279.53 214.39,278.62 211.59,276.35 208.92,273.89 206.42,271.3 203.74,268.51 201.25,265.52 198.78,262.53 196.37,259.61 193.96,256.67 191.79,253.57 189.12,249.76 186.46,245.9 184.23,241.83 180.35,234.74 176.78,227.48 173.1,220.27 169.71,213.64 166.38,206.98 162.97,200.37 161.77,198.05 160.4,195.82 158.78,192.97 165.19,193.95 170.85,194.75 176.49,195.7 182.63,196.73 188.75,197.91 194.88,198.98 203.4,200.47 211.92,201.93 220.44,203.36 231.92,205.29 243.39,207.24 254.89,209.05 256.83,209.36 257.8,210.18 258.76,211.91 261.97,217.71 265.5,223.33 268.89,229.03 274,237.65 279.09,246.28 284.2,254.9 288.63,262.37 293.08,269.83 297.5,277.3 297.96,278.07 298.33,278.89 298.92,280.02 Z M 298.92,280.02" />
        <path id="logo-canvas4bezier10" stroke="none" fill="rgb(16, 67, 145)" d="M 350.6,245.44 C 346.96,247.92 343.39,250.35 339.48,253.01 345.84,256.89 352,260.64 358.14,264.39 354.86,271.31 349.56,276.03 343.19,279.64 342.33,280.13 341.09,280.09 340.03,280.09 328.88,280.11 317.73,280.07 306.58,280.09 304.98,280.1 303.84,279.81 302.95,278.2 299.81,272.55 296.53,266.98 293.22,261.44 290.63,257.1 287.91,252.83 285.25,248.53 284.03,246.57 282.88,244.56 281.59,242.65 280.72,241.36 281.08,240.73 282.43,240.27 287.7,238.48 290.95,234.51 293.43,229.8 295.03,226.77 294.59,226.09 291.49,224.85 287.63,223.29 283.86,221.5 279.64,219.63 282.13,217.74 284.06,216.34 285.92,214.86 289.92,211.67 293.94,208.49 297.85,205.2 299.54,203.77 299.36,202.37 297.43,201.24 295.58,200.15 293.6,199.27 291.67,198.31 290.51,197.72 289.34,197.15 287.71,196.33 294.3,191.59 299.29,186.07 302.93,179.34 300.77,176.86 298.67,174.46 296.3,171.76 302.48,165.46 308.97,159.08 311.56,149.65 314.48,159.41 321.25,166.22 328.51,173.26 326.53,174.82 324.85,176.55 322.83,177.63 320.6,178.81 319.86,180.1 321.46,182.05 324.86,186.21 328.35,190.29 332.88,193.36 334.48,194.45 335.79,195.99 337.41,197.49 333.13,199.23 329.03,200.91 324.71,202.67 327.3,206.48 330.93,208.87 334.53,211.34 338.05,213.77 341.45,216.39 344.9,218.92 L 344.87,219.87 C 340.37,221.69 335.91,223.62 331.36,225.28 328.88,226.18 328.54,226.66 329.87,228.95 332.81,234.03 336.81,237.97 342.09,240.64 344.78,242 347.35,243.6 350.6,245.44 Z M 350.6,245.44" />
        <path id="logo-canvas4bezier11" stroke="none" fill="rgb(16, 67, 145)" d="M 363.7,277.68 C 369.86,273.93 376.02,270.17 382.36,266.31 378.36,263.57 374.85,261.16 371.21,258.67 374.87,256.66 378.26,254.83 381.62,252.95 386.53,250.2 389.84,245.93 392.65,241.21 393.68,239.49 392.21,239.38 391.13,238.95 386.38,237.06 381.65,235.12 376.92,233.21 376.86,232.92 376.8,232.62 376.74,232.33 380.6,229.55 384.51,226.85 388.3,223.97 390.93,221.96 393.45,219.8 395.89,217.56 397.1,216.44 397.24,215.4 395.1,214.83 392.22,214.06 389.42,212.97 386.6,211.96 385.93,211.72 385.34,211.26 384.33,210.69 387.08,208.36 389.74,206.41 392.02,204.1 395.01,201.06 397.78,197.81 400.47,194.5 401.49,193.24 401.2,191.95 399.49,191.07 397.89,190.24 396.4,189.15 394.96,188.05 393.76,187.14 393.62,186.08 394.82,184.91 397.37,182.43 399.87,179.9 402.36,177.36 402.88,176.84 403.39,176.27 403.74,175.63 405.93,171.68 408.07,167.69 410.28,163.62 411.03,164.97 411.99,166.24 412.47,167.67 414.76,174.62 420.04,179.3 424.94,184.25 426.72,186.03 426.57,187.33 424.71,188.69 423.64,189.47 422.57,190.35 421.37,190.83 419.11,191.72 418.79,193.19 420.11,194.89 422.32,197.75 424.61,200.58 427.17,203.12 429.5,205.44 432.25,207.35 434.79,209.48 435.14,209.77 435.33,210.25 435.92,211.14 431.73,212.65 427.79,214.06 423.55,215.58 423.77,216.14 423.85,216.99 424.32,217.39 426.93,219.65 429.58,221.88 432.33,223.97 436.06,226.81 439.89,229.52 444.35,232.77 439.18,234.95 434.85,236.93 430.41,238.6 427.66,239.64 427.35,240.08 428.73,242.6 431.92,248.47 436.94,252.24 442.77,255.15 444.84,256.18 446.85,257.3 449.34,258.62 445.7,261.11 442.2,263.5 438.13,266.28 444.44,270.16 450.62,273.96 456.65,277.67 455.93,279.93 454.74,280.37 453.02,280.36 424.33,280.25 395.63,280.21 366.93,280.08 365.83,280.07 364.74,279.28 363.64,278.86 363.66,278.47 363.68,278.07 363.7,277.68 Z M 363.7,277.68" />
        <path id="logo-canvas4bezier12" stroke="none" fill="rgb(16, 67, 145)" d="M 244.32,203.01 C 245.4,201.22 246.14,199.83 247.02,198.55 248.31,196.66 248.1,195.79 245.96,195.03 243.06,194 240.07,193.18 237.28,191.92 234.13,190.51 231.16,188.72 227.82,186.94 228.51,186.09 228.91,185.35 229.51,184.88 234.14,181.29 238.75,177.69 243.47,174.24 247.25,171.48 250.45,168.22 253.21,164.51 247.85,162.28 242.77,160.16 237.03,157.78 240.59,154.46 243.72,151.69 246.68,148.74 249.47,145.96 252.12,143.02 254.75,140.08 255.68,139.03 256.35,137.75 257.18,136.61 259.01,134.09 258.4,132.99 255.76,131.57 253.35,130.28 251.33,128.2 249.33,126.27 249.01,125.95 249.43,124.38 249.95,123.77 252.75,120.5 255.62,117.29 258.59,114.19 262.38,110.25 264.53,105.41 266.57,100.48 267.32,98.66 268.28,96.93 269.33,94.77 270.98,98.26 272.72,101.34 273.91,104.61 275.67,109.46 279.06,113.05 282.41,116.73 284.64,119.18 286.92,121.59 289.06,124.12 289.48,124.62 289.73,125.97 289.42,126.26 287.39,128.16 285.39,130.23 282.99,131.57 280.54,132.93 279.64,134.33 281.37,136.65 284.82,141.28 288.1,146.03 292.87,149.57 295.89,151.81 298.42,154.72 301.59,157.72 296.16,160.02 291.11,162.17 285.47,164.56 289.22,169.45 293.11,174.51 297.06,179.65 294.48,184.73 290.64,189.08 285.77,192.54 284.95,193.12 284.2,193.78 283.46,194.45 281.05,196.64 281.2,197.64 284.15,199.18 287.01,200.67 289.86,202.18 292.78,203.71 288.43,208.55 283.02,211.98 277.66,215.48 277.31,215.71 276.91,215.87 276.58,216.11 273.14,218.71 273.44,220.94 277.37,222.91 281.21,224.84 284.97,226.93 288.82,228.98 287.19,233.44 282.85,235.03 278.78,237.5 275.54,231.92 272.38,226.31 269.07,220.8 266.22,216.05 263.28,211.35 260.19,206.75 259.61,205.87 258.25,205.22 257.14,205.02 253.07,204.25 248.96,203.71 244.32,203.01 Z M 244.32,203.01" />
        <path id="logo-canvas4bezier13" stroke="none" fill="rgb(16, 67, 145)" d="M 206.81,280.02 L 154.94,280.02 154.94,199.09 C 157.1,203.36 158.95,207.09 160.86,210.79 163.09,215.11 165.39,219.4 167.62,223.72 168.41,225.27 169.07,226.89 169.83,228.46 171.93,232.78 173.89,237.17 176.23,241.35 177.95,244.43 180.22,247.21 182.2,250.14 184.79,253.99 187.22,257.95 189.95,261.7 192.13,264.69 194.54,267.55 197.06,270.26 200.13,273.57 203.43,276.65 206.81,280.02 Z M 206.81,280.02" />
        <path id="logo-canvas4bezier14" stroke="none" fill="rgb(16, 67, 145)" d="M 148.33,279.77 L 98.16,279.77 C 101.41,276.49 104.53,273.47 107.51,270.31 109.72,267.97 111.96,265.6 113.78,262.96 117.96,256.89 122.09,250.77 125.84,244.44 129.52,238.26 132.86,231.87 136.07,225.43 139.57,218.4 142.75,211.21 146.09,204.1 146.69,202.83 147.4,201.61 148.33,199.85 L 148.33,279.77 Z M 148.33,279.77" />
        <path id="logo-canvas4bezier15" stroke="none" fill="rgb(16, 67, 145)" d="M 385.6,356.89 C 392.88,347.57 399.87,338.62 406.91,329.71 407.08,329.49 407.84,329.74 408.44,329.78 L 408.44,372.17 398.36,372.17 398.36,357.35 C 398.14,357.28 397.91,357.2 397.68,357.13 393.79,362.07 389.89,367.02 385.74,372.3 381.57,367.06 377.64,362.13 373.29,356.67 L 373.29,372.17 363.35,372.17 363.35,329.65 C 365.84,329.79 366.65,331.93 367.8,333.43 373.7,341.08 379.49,348.81 385.6,356.89 Z M 385.6,356.89" />
        <path id="logo-canvas4bezier16" stroke="none" fill="rgb(16, 67, 145)" d="M 155.5,362.15 C 162.41,362.72 167.85,356.07 167.84,351.06 167.82,345.11 162.07,340.12 155.54,339.76 149.37,339.43 143.12,345.46 143.36,351.03 143.65,357.5 148.45,362.15 155.5,362.15 Z M 155.06,372.38 C 147.37,372.88 141.14,369.46 136.62,363.54 132.67,358.36 132.26,352.1 133.49,345.66 135.01,337.73 144.51,329.63 153.42,329.56 157.62,329.54 161.78,329.6 165.59,331.58 170.07,333.91 173.66,337.14 176.05,341.75 180.22,349.8 178.96,357.42 173.75,364.17 169.24,370.02 162.81,372.92 155.06,372.38 Z M 155.06,372.38" />
        <path id="logo-canvas4bezier17" stroke="none" fill="rgb(16, 67, 145)" d="M 193.55,362.05 C 199.45,362.22 204.39,361.37 207.96,356.64 210.38,353.43 210.27,347.25 207.79,344.48 204.36,340.64 199.98,339.69 195.16,339.97 194.6,340 193.63,340.81 193.62,341.26 193.52,348.07 193.55,354.88 193.55,362.05 Z M 182.49,329.77 C 191.24,330.09 199.75,328.77 207.99,331.76 216.37,334.79 221.25,343.69 220.38,353.66 219.49,363.89 212.67,369.88 203.04,371.34 196.83,372.28 190.44,372.03 184.13,372.35 182.22,372.44 182.5,371.12 182.5,369.99 182.49,362.82 182.49,355.66 182.49,348.5 182.49,342.42 182.49,336.35 182.49,329.77 Z M 182.49,329.77" />
        <path id="logo-canvas4bezier18" stroke="none" fill="rgb(16, 67, 145)" d="M 253.88,329.79 L 253.88,339.89 C 248.72,339.89 243.67,339.89 238.62,339.89 235.48,339.89 233.91,342.33 235.36,345.17 235.61,345.67 236.71,345.96 237.43,345.97 241.33,346.05 245.24,346.01 249.37,346.01 L 249.37,356.05 C 245.5,356.05 241.68,356.22 237.89,355.99 235.27,355.84 235.16,357.15 235.12,359.15 235.07,361.28 235.47,362.29 237.96,362.19 243.18,361.99 248.42,362.13 253.83,362.13 L 253.83,372.17 224.84,372.17 224.84,329.79 253.88,329.79 Z M 253.88,329.79" />
        <path id="logo-canvas4bezier19" stroke="none" fill="rgb(16, 67, 145)" d="M 424.64,345.02 C 424.77,351.25 423.61,350.27 430.07,350.42 430.65,350.43 431.24,350.37 431.81,350.3 434.88,349.91 436.88,347.85 436.88,345.12 436.87,342.25 434.78,340.22 431.55,339.95 430.97,339.9 430.39,339.92 429.8,339.91 424.64,339.88 424.64,339.89 424.64,345.02 Z M 414.35,372.34 C 414.28,371.46 414.2,370.9 414.2,370.33 414.19,357.69 414.24,345.04 414.15,332.4 414.14,330.28 414.83,329.67 416.86,329.77 423.41,330.1 430.01,329.91 436.49,330.68 441.07,331.23 443.96,334.6 446.25,338.72 449.33,344.27 448.09,349.24 444.92,353.88 442.08,358.02 437.75,360.16 432.64,360.37 430.56,360.46 428.48,360.49 426.4,360.41 424.89,360.35 424.32,360.9 424.37,362.42 424.46,365 424.33,367.58 424.42,370.16 424.46,371.7 424.07,372.46 422.34,372.37 419.77,372.25 417.2,372.34 414.35,372.34 Z M 414.35,372.34" />
        <path id="logo-canvas4bezier20" stroke="none" fill="rgb(16, 67, 145)" d="M 312.54,366.54 C 309.64,369.97 304.7,371.86 299.2,372.36 293.2,372.9 287.28,372.23 282.15,368.87 276.45,365.15 273.17,359.83 272.66,352.84 271.51,337.2 285.3,327.73 299.72,329.77 305.03,330.52 309.43,332.83 313.26,336.4 310.87,338.8 308.44,341.23 305.88,343.79 302.07,339.59 297.08,339.19 291.85,340.43 287.98,341.34 285.13,343.87 283.76,347.57 282.27,351.64 283.12,355.75 286.18,358.68 290.95,363.26 298.94,363.31 304.08,360.12 304.71,359.72 305.29,359.24 306.72,358.01 308.64,360.81 310.55,363.62 312.54,366.54 Z M 312.54,366.54" />
        <path id="logo-canvas4bezier21" stroke="none" fill="rgb(16, 67, 145)" d="M 126.76,358.03 C 128.59,360.83 130.41,363.63 132.41,366.69 130.64,368.84 127.11,370.84 122.99,371.72 115.67,373.29 108.41,372.9 102.01,368.8 96.4,365.2 93.16,359.85 92.63,352.93 91.45,337.2 105.29,327.75 119.65,329.76 124.97,330.51 129.37,332.81 133.15,336.31 130.74,338.74 128.32,341.18 125.78,343.74 122.12,339.65 117.23,339.26 112.04,340.36 103.61,342.16 100.09,352.35 106.04,358.53 109.83,362.47 115.03,363.04 120.24,361.7 122.2,361.19 123.99,360.04 125.85,359.18 126.16,358.8 126.46,358.42 126.76,358.03 Z M 126.76,358.03" />
        <path id="logo-canvas4largeA" stroke="none" fill="rgb(16, 67, 145)" d="M 334.2,357.3 L 339.79,357.3 C 338.86,355.24 338.07,353.5 336.97,351.05 335.89,353.49 335.1,355.28 334.2,357.3 Z M 358.95,372.33 C 355.13,372.33 351.87,372.62 348.72,372.17 347.59,372.01 346.22,370.21 345.83,368.9 345.06,366.27 343.58,365.66 341.08,365.82 337.84,366.03 334.58,365.94 331.33,365.84 329.82,365.8 329.09,366.43 328.57,367.78 326.83,372.3 326.71,372.34 321.91,372.34 319.78,372.34 317.65,372.34 315.26,372.34 317.48,367.64 319.51,363.3 321.58,358.98 324.81,352.24 328.07,345.52 331.32,338.79 332.5,336.34 333.63,333.85 334.94,331.46 335.31,330.79 336.25,329.95 336.86,329.99 337.62,330.05 338.64,330.8 338.99,331.52 341.35,336.28 343.54,341.12 345.83,345.92 349.37,353.33 352.94,360.73 356.53,368.12 357.14,369.37 357.91,370.54 358.95,372.33 Z M 358.95,372.33" />
        <path id="logo-canvas4bezier23" stroke="none" fill="rgb(16, 67, 145)" d="M 174.36,299.33 C 172.81,301.19 171.43,302.46 168.75,300.91 166.48,299.59 163.52,300.63 161.75,302.65 160.27,304.33 160.02,307.04 161.19,308.67 162.78,310.87 166.82,311.82 169.39,310.54 170.02,310.23 170.56,309.72 171.56,309.01 169.17,307.97 164.38,310.15 166.35,304.68 L 177.13,304.68 C 178.07,307.94 175.51,313.19 172.26,314.51 166.01,317.05 160.07,315.99 156.46,309.93 154.26,306.25 156.15,300.38 160.77,297.21 164.21,294.86 172.08,295.33 174.36,299.33 Z M 174.36,299.33" />
        <path id="logo-canvas4bezier24" stroke="none" fill="rgb(16, 67, 145)" d="M 184.12,303.38 C 183.72,304.96 184.54,305.67 186.4,305.54 188.1,305.42 189.69,305.12 189.7,303.04 189.7,300.55 187.73,300.61 185.97,300.46 183.83,300.26 184.1,301.75 184.12,303.38 Z M 184.06,309 L 184.06,315.37 179.8,315.37 179.8,296.21 C 183.06,296.21 186.31,295.87 189.46,296.31 192.03,296.67 193.99,298.56 194.44,301.29 194.94,304.34 194.14,307.04 191.33,308.81 192.65,310.88 193.96,312.94 195.29,315.04 191.49,316.31 190.11,315.81 188.07,312.86 187.06,311.41 185.83,310.1 184.69,308.73 184.48,308.82 184.27,308.91 184.06,309 Z M 184.06,309" />
        <path id="logo-canvas4bezier25" stroke="none" fill="rgb(16, 67, 145)" d="M 349.76,296.04 L 363.25,296.04 363.25,300.43 C 361,300.43 358.78,300.46 356.58,300.42 355.32,300.39 354.51,300.62 354.53,302.17 354.55,303.67 355.45,303.7 356.52,303.69 357.92,303.67 359.32,303.68 360.88,303.68 L 360.88,308.34 C 359.26,308.34 357.69,308.22 356.15,308.41 355.58,308.48 355.1,309.28 354.57,309.74 355.11,310.2 355.62,311 356.19,311.04 358.49,311.19 360.8,311.1 363.04,311.1 363.98,315.5 363.84,315.69 359.79,315.69 357.04,315.69 354.28,315.78 351.54,315.62 350.92,315.58 349.84,314.72 349.83,314.22 349.72,308.24 349.76,302.27 349.76,296.04 Z M 349.76,296.04" />
        <path id="logo-canvas4bezier26" stroke="none" fill="rgb(16, 67, 145)" d="M 219.3,295.52 C 223.44,299.22 227.16,302.54 231.51,306.42 231.51,303.35 231.57,300.93 231.49,298.51 231.42,296.75 231.7,295.8 233.89,295.81 236.13,295.82 236.23,296.9 236.22,298.59 236.16,304.14 236.2,309.69 236.2,315.25 235.99,315.39 235.79,315.54 235.59,315.69 231.83,312.36 228.07,309.03 223.74,305.2 223.74,307.79 223.74,309.81 223.74,311.82 223.74,315.94 223.74,315.94 219.3,315.33 L 219.3,295.52 Z M 219.3,295.52" />
        <path id="logo-canvas4bezier27" stroke="none" fill="rgb(16, 67, 145)" d="M 263.37,315.7 L 263.37,296.1 276.26,296.1 276.26,300.43 C 274.16,300.43 272.04,300.46 269.92,300.42 268.77,300.4 268.03,300.62 268.03,302.04 268.02,303.44 268.71,303.73 269.89,303.69 271.36,303.65 272.84,303.68 274.44,303.68 L 274.44,308.33 C 273.06,308.33 271.69,308.31 270.31,308.34 269.29,308.37 267.81,308.04 268.16,309.78 268.27,310.34 269.47,310.98 270.22,311.05 272.18,311.22 274.16,311.11 276.07,311.11 277,315.5 276.86,315.69 272.82,315.7 269.75,315.7 266.69,315.7 263.37,315.7 Z M 263.37,315.7" />
        <path id="logo-canvas4bezier28" stroke="none" fill="rgb(16, 67, 145)" d="M 298.97,301.36 C 297.41,301.74 295.97,302.09 294.54,302.44 294.2,301.9 293.96,301.15 293.46,300.88 292.89,300.57 292,300.46 291.4,300.68 290.94,300.85 290.39,301.71 290.46,302.18 290.55,302.8 291.09,303.6 291.65,303.84 293.24,304.52 294.94,304.94 296.59,305.48 298.68,306.16 299.33,307.97 299.36,309.8 299.39,311.7 298.81,313.5 296.79,314.56 293.74,316.15 290.73,316.5 287.88,314.41 286.67,313.53 285.86,312.08 284.54,310.49 287.22,309.95 289.02,308.65 290.92,310.69 291.35,311.16 292.75,310.84 293.67,310.67 293.96,310.62 294.4,309.62 294.32,309.55 293.69,308.97 292.99,308.44 292.24,308.03 290.43,307.06 288.41,306.39 286.79,305.18 284.03,303.11 285.43,298.13 289.14,296.42 292.69,294.78 297.89,296.22 298.97,301.36 Z M 298.97,301.36" />
        <path id="logo-canvas4bezier31" stroke="none" fill="rgb(16, 67, 145)" d="M 250.94,300.58 C 248.88,300.48 247.48,300.42 245.9,300.35 L 245.9,296.19 260.84,296.19 260.84,300.32 C 259.34,300.4 257.88,300.49 256.11,300.59 L 256.11,315.39 250.94,315.39 250.94,300.58 Z M 250.94,300.58" />
        <path id="logo-canvas4bezier32" stroke="none" fill="rgb(16, 67, 145)" d="M 342.67,315.4 L 337.77,315.4 C 337.77,311.46 337.78,307.65 337.77,303.84 337.76,300.54 337.75,300.54 334.38,300.45 333.97,300.44 333.55,300.38 332.92,300.32 L 332.92,296.21 347.81,296.21 347.81,300.06 C 347.62,300.18 347.49,300.33 347.35,300.35 342.92,300.75 342.92,300.74 342.94,305.28 342.96,308.45 342.95,311.61 342.94,314.78 342.94,314.92 342.82,315.07 342.67,315.4 Z M 342.67,315.4" />
        <path id="logo-canvas4bezier33" stroke="none" fill="rgb(16, 67, 145)" d="M 300.76,300.17 L 300.76,295.98 308.29,295.98 315.72,295.98 315.72,300.35 C 314.11,300.42 312.63,300.49 310.91,300.57 L 310.91,315.41 305.71,315.41 C 305.71,311.5 305.72,307.7 305.71,303.89 305.7,300.25 305.99,300.39 302.41,300.44 301.86,300.45 301.31,300.27 300.76,300.17 Z M 300.76,300.17" />
        <path id="logo-canvas4bezier34" stroke="none" fill="rgb(200, 212, 230)" d="M 102.02,243.49 C 101.82,242.08 101.7,240.34 101.28,238.67 101.15,238.14 100.23,237.47 99.69,237.48 99.13,237.5 98.15,238.25 98.13,238.72 97.98,241.92 97.94,245.14 98.09,248.35 98.11,248.88 99.21,249.78 99.78,249.76 100.38,249.73 101.28,248.9 101.45,248.26 101.83,246.83 101.83,245.31 102.02,243.49 Z M 105.81,243.48 C 105.18,245.79 104.7,248.12 103.9,250.33 102.82,253.33 97.46,253.53 95.74,250.65 93.79,247.41 93.67,239.22 95.82,236.11 97.46,233.75 102.92,234.23 104,236.96 104.8,238.99 105.19,241.19 105.81,243.48 Z M 105.81,243.48" />
        <path id="logo-canvas4bezier35" stroke="none" fill="rgb(200, 212, 230)" d="M 212.25,112.7 C 212.44,114.16 212.48,115.75 212.9,117.25 213.06,117.84 214.05,118.6 214.63,118.57 215.21,118.55 216.2,117.66 216.23,117.11 216.39,114.07 216.4,111.02 216.24,107.99 216.21,107.41 215.18,106.38 214.73,106.44 214.02,106.53 213.03,107.27 212.84,107.93 212.43,109.42 212.43,111.02 212.25,112.7 Z M 220.28,111.88 C 219.92,114.35 219.8,116.09 219.4,117.75 218.81,120.18 217.25,121.55 214.62,121.57 212.02,121.6 210.28,120.39 209.69,117.92 208.65,113.6 208.26,109.25 210.77,105.24 212.36,102.68 217.45,102.9 218.61,105.67 219.51,107.82 219.85,110.21 220.28,111.88 Z M 220.28,111.88" />
        <path id="logo-canvas4bezier36" stroke="none" fill="rgb(200, 212, 230)" d="M 174.91,112.51 C 174.84,111.1 175.02,109.62 174.62,108.31 174.37,107.5 173.28,106.46 172.53,106.44 171.86,106.42 170.62,107.6 170.56,108.33 170.32,111.11 170.31,113.93 170.54,116.71 170.6,117.43 171.86,118.58 172.55,118.57 173.29,118.55 174.39,117.51 174.63,116.7 175.02,115.4 174.84,113.92 174.91,112.51 Z M 166.33,112.84 C 166.92,110.68 167.34,108.94 167.87,107.24 168.56,105.01 169.79,103.6 172.44,103.49 175.36,103.36 176.99,105.23 177.61,107.28 178.91,111.58 179.34,116.04 176.13,119.98 174.24,122.3 169.91,122.08 168.64,119.36 167.65,117.23 167.05,114.93 166.33,112.84 Z M 166.33,112.84" />
        <path id="logo-canvas4bezier37" stroke="none" fill="rgb(200, 212, 230)" d="M 367.44,243.4 C 367.18,241.9 367.1,240.38 366.6,239.01 366.36,238.33 365.41,237.59 364.71,237.51 364.23,237.46 363.17,238.46 363.14,239.04 362.98,242.07 362.96,245.13 363.14,248.16 363.18,248.76 364.26,249.62 364.96,249.74 365.44,249.82 366.43,248.91 366.61,248.27 367.06,246.7 367.19,245.03 367.44,243.4 Z M 359.02,243.08 C 359.45,241.41 359.87,239.25 360.55,237.17 361.22,235.14 362.93,234.7 364.91,234.63 366.98,234.56 368.42,235.25 369.26,237.18 370.93,241 371.15,245.07 369.68,248.76 368.98,250.52 366.4,252.04 364.38,252.61 362.31,253.2 360.41,250.91 359.79,248.04 359.48,246.6 359.33,245.13 359.02,243.08 Z M 359.02,243.08" />
        <path id="logo-canvas4bezier38" stroke="none" fill="rgb(200, 212, 230)" d="M 396.56,140.05 C 396.37,137.97 396.33,136.29 395.99,134.68 395.88,134.13 395.05,133.41 394.49,133.36 393.95,133.3 392.97,133.88 392.81,134.38 391.69,137.85 391.34,141.37 392.91,144.82 393.15,145.34 393.86,146.07 394.24,146.01 394.82,145.91 395.64,145.3 395.78,144.75 396.21,143.09 396.36,141.35 396.56,140.05 Z M 400.25,139.55 C 399.83,141.51 399.36,143.33 399.05,145.18 398.66,147.41 397.1,148.14 395.18,148.31 390.96,148.69 389.3,147.25 388.89,142.32 388.68,139.72 388.97,137.03 389.39,134.44 389.79,131.98 391.83,130.88 394.09,130.84 396.05,130.81 398.2,131.25 398.91,133.56 399.51,135.51 399.81,137.55 400.25,139.55 Z M 400.25,139.55" />
        <path id="logo-canvas4bezier39" stroke="none" fill="rgb(200, 212, 230)" d="M 356.29,112.57 C 356.15,111.24 356.19,109.87 355.8,108.63 355.52,107.76 354.65,107.08 354.04,106.32 353.25,106.97 351.84,107.56 351.77,108.27 351.53,111.14 351.55,114.05 351.83,116.91 351.9,117.58 353.31,118.42 354.2,118.56 354.63,118.63 355.54,117.33 355.78,116.51 356.15,115.26 356.14,113.9 356.29,112.57 Z M 359.78,111.72 C 359.42,114.24 359.35,116 358.9,117.66 358.17,120.35 356.52,121.48 353.91,121.55 351.36,121.62 349.86,120.29 349.16,118 347.86,113.74 347.96,109.55 349.89,105.43 350.8,103.49 352.55,103.39 354.11,103.64 355.5,103.86 357.4,104.53 357.96,105.6 359.04,107.63 359.33,110.08 359.78,111.72 Z M 359.78,111.72" />
        <path id="logo-canvas4bezier40" stroke="none" fill="rgb(200, 212, 230)" d="M 189.04,112.45 C 188.93,110.82 189.07,109.49 188.66,108.37 188.36,107.54 187.35,106.48 186.62,106.45 185.94,106.42 184.65,107.57 184.59,108.28 184.35,111.07 184.35,113.9 184.58,116.69 184.64,117.42 186.03,118.7 186.53,118.58 187.39,118.36 188.41,117.37 188.68,116.5 189.11,115.11 188.97,113.55 189.04,112.45 Z M 180.2,112.13 C 181.01,109.95 181.48,107.57 182.69,105.64 184.75,102.36 188.93,102.85 190.79,106.2 193.42,110.9 192.67,115.4 190.31,119.86 189.12,122.1 184.73,122.14 182.91,120 181.07,117.82 180.79,116.84 180.2,112.13 Z M 180.2,112.13" />
        <path id="logo-canvas4bezier41" stroke="none" fill="rgb(200, 212, 230)" d="M 301.51,112.24 C 301.4,110.99 301.4,109.39 301.04,107.88 300.89,107.26 299.97,106.45 299.37,106.42 298.78,106.4 297.81,107.14 297.61,107.75 296.54,110.88 296.35,114.09 297.59,117.22 297.84,117.84 298.81,118.69 299.29,118.6 299.99,118.46 300.92,117.67 301.09,116.99 301.45,115.57 301.38,114.04 301.51,112.24 Z M 293.5,112.46 C 293.88,110.62 294.23,108.77 294.67,106.94 295.22,104.63 296.65,103.49 299.11,103.52 301.64,103.55 303.4,104.51 304.12,107.02 305.33,111.2 305.41,115.31 303.48,119.36 302.61,121.21 300.97,121.38 299.35,121.5 297.9,121.61 297,120.85 296.03,119.53 294.41,117.35 293.37,115.24 293.5,112.46 Z M 293.5,112.46" />
        <path id="logo-canvas4bezier42" stroke="none" fill="rgb(200, 212, 230)" d="M 94.8,217.3 C 94.62,215.9 94.63,214.35 94.17,212.96 93.91,212.21 92.89,211.36 92.13,211.26 91.55,211.19 90.3,212.21 90.26,212.8 90.09,215.94 90.11,219.09 90.31,222.23 90.35,222.76 91.67,223.7 92.26,223.6 93.01,223.47 93.96,222.59 94.2,221.84 94.63,220.44 94.61,218.9 94.8,217.3 Z M 98.5,217.4 C 97.8,219.59 97.56,221.95 96.36,223.62 95.42,224.92 93.35,225.95 91.71,226.06 89.12,226.24 87.49,224.06 86.89,221.86 85.86,218.08 85.69,214.09 88.15,210.73 88.98,209.58 90.78,208.54 92.14,208.53 93.54,208.51 95.53,209.47 96.23,210.62 97.4,212.56 97.75,214.99 98.5,217.4 Z M 98.5,217.4" />
        <path id="logo-canvas4bezier43" stroke="none" fill="rgb(200, 212, 230)" d="M 311,112.58 C 310.95,112.58 310.9,112.58 310.85,112.59 310.92,114 310.73,115.49 311.15,116.79 311.42,117.59 312.55,118.43 313.42,118.59 313.93,118.67 315.16,117.48 315.21,116.8 315.43,114 315.46,111.17 315.23,108.38 315.17,107.64 313.96,107 313.27,106.32 312.52,107.08 311.38,107.72 311.1,108.62 310.72,109.84 311,111.25 311,112.58 Z M 319.17,112.4 C 318.91,114.25 318.81,116.08 318.37,117.82 317.78,120.16 316.04,121.33 313.67,121.51 311.24,121.7 309.57,120.71 308.76,118.31 307.42,114.33 307.49,110.4 308.86,106.44 309.73,103.93 311.61,103.4 313.96,103.57 316.23,103.74 317.68,105.05 318.29,107.07 318.81,108.78 318.9,110.62 319.17,112.4 Z M 319.17,112.4" />
        <path id="logo-canvas4bezier44" stroke="none" fill="rgb(200, 212, 230)" d="M 463.87,244.06 C 463.79,242.43 463.94,240.87 463.55,239.47 463.32,238.64 462.25,237.56 461.5,237.51 460.82,237.47 459.5,238.63 459.44,239.33 459.21,242.2 459.23,245.1 459.45,247.97 459.51,248.66 460.8,249.87 461.31,249.76 462.16,249.59 463.21,248.7 463.51,247.86 463.95,246.67 463.79,245.25 463.87,244.06 Z M 455.61,243.7 C 455.82,242.07 455.83,240.39 456.26,238.83 457.2,235.39 459.41,233.9 462.74,234.79 463.9,235.1 465.1,236.47 465.65,237.65 467.71,242.12 467.45,246.65 464.91,250.88 463.4,253.41 460.42,253.22 458.19,251.34 455.62,249.17 455.75,246.52 455.61,243.7 Z M 455.61,243.7" />
        <path id="logo-canvas4bezier45" stroke="none" fill="rgb(200, 212, 230)" d="M 100.03,192.01 C 99.94,190.97 100.05,189.34 99.62,187.86 99.34,186.93 98.26,186.24 97.54,185.45 96.85,186.29 95.64,187.08 95.56,187.97 95.31,190.76 95.31,193.6 95.59,196.38 95.67,197.17 97.03,197.83 97.8,198.56 98.45,197.79 99.39,197.13 99.68,196.25 100.06,195.1 99.91,193.79 100.03,192.01 Z M 103.53,191.19 C 103.31,194.96 103.36,197.86 100.68,199.88 97.78,202.07 94.65,201.25 93.06,197.91 91.03,193.61 91.53,189.42 93.5,185.34 94.37,183.53 96.1,182.94 98.12,183.16 100.29,183.39 101.86,184.53 102.54,186.51 103.15,188.27 103.33,190.18 103.53,191.19 Z M 103.53,191.19" />
        <path id="logo-canvas4bezier46" stroke="none" fill="rgb(200, 212, 230)" d="M 151.49,165.67 C 151.31,164.29 151.23,162.63 150.83,161.04 150.67,160.39 149.86,159.5 149.31,159.47 148.77,159.44 147.94,160.25 147.64,160.89 146.11,164.16 146.22,167.52 147.58,170.8 147.84,171.42 148.75,172.18 149.32,172.15 149.91,172.12 150.78,171.27 150.93,170.64 151.29,169.13 151.31,167.53 151.49,165.67 Z M 143.62,165.81 C 143.81,164.25 143.87,162.92 144.15,161.63 144.97,157.81 145.95,157.05 149.69,157.17 152.62,157.26 154.12,158.63 154.41,162.08 154.65,164.84 154.59,167.65 154.4,170.42 154.23,172.81 151.89,174.67 149.43,174.74 146.62,174.82 144.83,173.48 144.3,170.74 143.98,169.05 143.83,167.32 143.62,165.81 Z M 143.62,165.81" />
        <path id="logo-canvas4bezier47" stroke="none" fill="rgb(200, 212, 230)" d="M 360.29,191.42 C 360.44,193.59 360.38,195.21 360.74,196.71 360.91,197.42 361.84,198.23 362.57,198.41 363.11,198.55 364.45,197.76 364.47,197.35 364.59,193.85 364.55,190.33 364.38,186.83 364.36,186.34 363.32,185.48 362.85,185.54 362.18,185.62 361.23,186.3 361.06,186.91 360.59,188.55 360.46,190.29 360.29,191.42 Z M 368.66,192.15 C 368.67,195.36 368.34,198.27 365.31,200.22 362.74,201.87 359.68,201.07 358.37,198.26 356.35,193.94 356.7,189.59 358.54,185.38 359.45,183.3 361.69,182.57 363.6,183.3 365.25,183.92 366.92,185.35 367.79,186.87 368.62,188.33 368.41,190.37 368.66,192.15 Z M 368.66,192.15" />
        <path id="logo-canvas4bezier48" stroke="none" fill="rgb(200, 212, 230)" d="M 179.82,165.59 C 179.61,164.23 179.51,162.55 179.03,160.99 178.83,160.31 177.86,159.45 177.23,159.44 176.6,159.43 175.44,160.35 175.4,160.92 175.19,164.19 175.13,167.48 175.3,170.75 175.32,171.32 176.66,172.19 177.43,172.23 178.01,172.26 178.97,171.26 179.16,170.55 179.58,169.06 179.6,167.46 179.82,165.59 Z M 183.44,165.73 C 182.81,167.87 182.3,170.07 181.49,172.15 180.7,174.19 178.84,174.81 176.81,174.7 174.38,174.57 172.61,172.94 172.03,170.91 170.95,167.17 170.66,163.3 172.77,159.61 174.13,157.24 176.17,156.87 178.5,157.2 180.76,157.51 181.78,159.29 182.4,161.18 182.87,162.57 182.91,164.09 183.14,165.56 183.24,165.61 183.34,165.67 183.44,165.73 Z M 183.44,165.73" />
        <path id="logo-canvas4bezier49" stroke="none" fill="rgb(200, 212, 230)" d="M 123.32,192.17 C 123.36,192.18 123.41,192.18 123.45,192.18 123.45,192.6 123.43,193.01 123.46,193.42 123.59,195.33 122.92,197.69 125.45,198.47 126.98,198.94 128.19,196.77 128.18,193.41 128.18,191.37 127.99,189.29 127.51,187.31 127.34,186.57 126.13,186.08 125.39,185.48 124.84,186.15 124,186.76 123.82,187.52 123.46,189.02 123.46,190.62 123.32,192.17 Z M 131.24,191.59 C 130.91,193.87 130.83,195.71 130.35,197.44 129.76,199.63 127.19,201.45 125.38,201.3 123.4,201.14 120.46,198.75 120.4,196.73 120.31,193.31 120.55,189.87 120.8,186.45 120.97,184.01 123.07,183.57 124.9,183.22 126.99,182.82 129.07,183.31 129.86,185.52 130.6,187.58 130.85,189.81 131.24,191.59 Z M 131.24,191.59" />
        <path id="logo-canvas4bezier50" stroke="none" fill="rgb(200, 212, 230)" d="M 83.34,243.61 C 83.49,245.05 83.47,246.58 83.85,248 84.05,248.71 85.02,249.77 85.55,249.72 86.36,249.65 87.7,248.79 87.75,248.19 87.98,245.17 87.99,242.11 87.77,239.08 87.72,238.47 86.37,237.5 85.64,237.51 84.99,237.52 84.05,238.6 83.82,239.37 83.42,240.69 83.48,242.15 83.34,243.61 Z M 91.32,243.08 C 90.98,245.41 90.89,247.25 90.42,248.98 89.77,251.32 88.17,252.9 85.6,252.76 83.12,252.63 81.39,251.07 80.78,248.76 79.74,244.8 79.61,240.75 81.33,236.9 82.23,234.88 84.17,234.67 86.13,234.66 87.95,234.65 89.46,235.14 89.96,237.08 90.51,239.22 90.94,241.38 91.32,243.08 Z M 91.32,243.08" />
        <path id="logo-canvas4bezier51" stroke="none" fill="rgb(200, 212, 230)" d="M 388.92,165.63 C 388.82,164.54 388.88,162.83 388.43,161.27 388.21,160.48 387.11,159.6 386.3,159.47 385.81,159.4 384.64,160.66 384.59,161.38 384.38,164.34 384.35,167.34 384.57,170.3 384.62,171 385.93,172.16 386.58,172.11 387.33,172.05 388.34,170.99 388.6,170.17 388.99,168.94 388.82,167.54 388.92,165.63 Z M 380.62,165.97 C 380.84,163.24 380.57,160.43 382.88,158.36 385.84,155.71 389.85,156.91 391.21,160.61 392.45,164.01 392.66,167.28 391.45,170.73 390.61,173.14 388.73,174.85 386.44,174.77 383.93,174.68 381.75,172.86 381.27,170.36 380.98,168.91 380.83,167.43 380.62,165.97 Z M 380.62,165.97" />
        <path id="logo-canvas4bezier52" stroke="none" fill="rgb(200, 212, 230)" d="M 229.58,140.13 C 229.38,138.01 229.41,136.4 229.01,134.9 228.83,134.22 227.89,133.44 227.18,133.3 226.61,133.19 225.3,133.97 225.29,134.38 225.2,137.87 225.27,141.37 225.46,144.86 225.49,145.32 226.48,146.05 227.04,146.06 227.59,146.07 228.5,145.43 228.66,144.9 229.14,143.18 229.36,141.38 229.58,140.13 Z M 233.41,139.97 C 232.66,142.1 232.13,144.34 231.1,146.33 229.72,149 225.12,149.2 223.18,146.87 220.99,144.24 220.55,136.88 222.31,133.86 223.49,131.83 225.08,130.53 227.51,130.82 230.02,131.12 231.91,133.02 232.44,135.64 232.72,137 232.88,138.4 233.1,139.78 233.2,139.84 233.3,139.91 233.41,139.97 Z M 233.41,139.97" />
        <path id="logo-canvas4bezier53" stroke="none" fill="rgb(200, 212, 230)" d="M 458.11,217.65 C 457.74,215.89 457.57,214.24 457,212.74 456.74,212.08 455.62,211.28 454.99,211.36 454.38,211.43 453.46,212.52 453.43,213.21 453.28,216.15 453.35,219.12 453.51,222.07 453.54,222.62 454.34,223.54 454.82,223.56 455.48,223.59 456.56,223.08 456.78,222.53 457.41,220.96 457.7,219.26 458.11,217.65 Z M 449.6,217.43 C 449.82,215.8 449.89,214.14 450.3,212.56 451.06,209.63 452.72,208.31 455.23,208.35 458.04,208.4 459.56,209.35 460.08,212.6 460.58,215.72 460.55,219 460.21,222.15 459.93,224.79 457.58,226.33 455.08,226.23 452.39,226.12 450.16,224.03 449.85,221.19 449.72,219.96 449.83,218.7 449.83,217.46 449.75,217.45 449.68,217.44 449.6,217.43 Z M 449.6,217.43" />
        <path id="logo-canvas4bezier54" stroke="none" fill="rgb(200, 212, 230)" d="M 221.51,165.84 C 221.28,164.15 221.12,162.26 220.68,160.44 220.57,159.96 219.61,159.45 219.01,159.41 218.54,159.37 217.76,159.92 217.56,160.4 216.07,163.86 215.76,167.39 217.49,170.85 217.79,171.46 218.66,172.17 219.22,172.13 219.8,172.1 220.65,171.3 220.82,170.68 221.22,169.19 221.28,167.61 221.51,165.84 Z M 218.72,156.59 C 222.27,157.18 223.35,158 224.14,161.07 225.03,164.49 224.95,167.88 224.03,171.3 223.36,173.77 221.34,174.46 219.33,174.63 217.35,174.81 215.29,174.17 214.57,171.9 213.23,167.69 213.2,163.38 214.88,159.33 215.39,158.1 217.4,157.49 218.72,156.59 Z M 218.72,156.59" />
        <path id="logo-canvas4bezier55" stroke="none" fill="rgb(200, 212, 230)" d="M 201.47,139.98 C 201.24,138.13 201.17,136.46 200.77,134.87 200.62,134.24 199.81,133.5 199.18,133.35 198.72,133.25 197.75,133.92 197.53,134.46 196.09,137.95 195.76,141.5 197.72,144.95 198.01,145.45 198.76,146.11 199.13,146.02 199.72,145.88 200.47,145.24 200.63,144.67 201.06,143.09 201.23,141.44 201.47,139.98 Z M 193.51,139.53 C 193.76,137.73 193.91,135.91 194.3,134.15 194.87,131.58 197.03,130.75 199.21,130.87 201.31,130.99 203.72,131.68 203.98,134.38 204.28,137.57 204.56,140.84 204.19,144 203.77,147.62 202.12,148.53 198.23,148.33 195.65,148.2 194.12,146.49 193.82,143.28 193.71,142.04 193.8,140.79 193.8,139.55 193.71,139.54 193.61,139.54 193.51,139.53 Z M 193.51,139.53" />
        <path id="logo-canvas4bezier56" stroke="none" fill="rgb(200, 212, 230)" d="M 208.21,165.72 C 207.69,163.82 207.3,162 206.64,160.29 206.46,159.81 205.47,159.4 204.86,159.41 204.4,159.42 203.56,160.13 203.55,160.55 203.43,163.98 203.4,167.42 203.52,170.86 203.53,171.34 204.43,172.11 204.97,172.16 205.54,172.21 206.52,171.68 206.7,171.17 207.34,169.44 207.71,167.61 208.21,165.72 Z M 199.54,167.34 C 199.68,165.37 199.62,163.36 200,161.44 200.67,158.07 201.92,157.19 205.31,157.17 208.37,157.14 209.62,157.88 210.12,161.26 210.57,164.31 210.53,167.52 210.17,170.59 209.83,173.42 207.49,174.93 204.88,174.72 202.05,174.49 200.13,172.66 199.83,169.84 199.74,169.02 199.81,168.18 199.81,167.35 L 199.54,167.34 Z M 199.54,167.34" />
        <path id="logo-canvas4bezier57" stroke="none" fill="rgb(200, 212, 230)" d="M 169.03,139.43 C 169.03,140.84 168.77,142.31 169.11,143.63 169.36,144.57 170.4,145.29 171.09,146.11 171.82,145.32 173.1,144.58 173.18,143.72 173.45,140.95 173.44,138.12 173.17,135.34 173.1,134.58 171.75,133.95 170.98,133.25 170.33,133.99 169.33,134.63 169.12,135.47 168.8,136.72 169.03,138.1 169.03,139.43 Z M 176.65,139.81 C 176.42,141.29 176.27,142.77 175.94,144.21 175.18,147.57 174.22,148.34 171.12,148.33 168.15,148.32 166.21,147.07 165.91,144.2 165.58,141.04 165.67,137.79 165.92,134.61 166.09,132.59 169,130.72 171.17,130.77 173.75,130.83 175.43,132.13 175.93,134.63 176.27,136.33 176.41,138.06 176.65,139.81 Z M 176.65,139.81" />
        <path id="logo-canvas4bezier58" stroke="none" fill="rgb(200, 212, 230)" d="M 123.05,217.5 C 122.7,215.88 122.57,214.3 121.98,212.91 121.68,212.18 120.6,211.41 119.83,211.37 119.33,211.35 118.34,212.58 118.31,213.28 118.17,216.15 118.22,219.04 118.41,221.91 118.46,222.52 119.37,223.57 119.85,223.56 120.56,223.54 121.6,222.88 121.86,222.23 122.46,220.74 122.68,219.09 123.05,217.5 Z M 125.68,217.88 C 125.51,219.08 125.39,220.99 124.94,222.81 124.33,225.27 122.32,226.13 120.05,226.2 117.63,226.27 115.36,224.61 115.09,222.18 114.74,219.17 114.65,216.05 115.03,213.05 115.43,209.8 117.61,208.21 120.39,208.37 123.34,208.54 124.93,210.12 125.41,213.48 125.59,214.71 125.57,215.96 125.68,217.88 Z M 125.68,217.88" />
        <path id="logo-canvas4bezier59" stroke="none" fill="rgb(200, 212, 230)" d="M 335.83,139.71 C 335.93,141 335.77,142.58 336.25,143.93 336.57,144.82 337.8,145.39 338.63,146.1 339.19,145.36 340.17,144.65 340.22,143.87 340.41,141.01 340.41,138.13 340.21,135.27 340.16,134.56 338.86,133.27 338.57,133.38 337.64,133.73 336.51,134.48 336.2,135.34 335.75,136.61 335.93,138.11 335.83,139.71 Z M 344.14,139.77 C 343.92,141.32 343.8,142.8 343.49,144.24 342.77,147.56 341.42,148.46 337.58,148.33 335.28,148.26 333.6,146.81 333.37,144.03 333.12,141.03 333.15,137.97 333.37,134.95 333.55,132.47 335.88,130.74 338.4,130.75 340.62,130.76 343.05,132.59 343.44,134.68 343.76,136.37 343.92,138.09 344.14,139.77 Z M 344.14,139.77" />
        <path id="logo-canvas4bezier60" stroke="none" fill="rgb(200, 212, 230)" d="M 369.03,139.99 C 368.76,138.05 368.68,136.3 368.2,134.66 368.02,134.05 366.94,133.46 366.2,133.34 365.72,133.27 364.63,134.06 364.61,134.48 364.52,137.89 364.55,141.32 364.72,144.73 364.74,145.22 365.7,146.06 366.19,146.04 366.85,146.01 367.86,145.42 368.05,144.85 368.57,143.24 368.75,141.51 369.03,139.99 Z M 360.58,139.74 C 360.9,136.96 360.34,134.08 363.08,132.03 366.23,129.67 369.96,130.77 371.11,134.53 372.25,138.21 372.16,141.86 370.88,145.47 370.18,147.47 368.83,148.45 366.54,148.39 364.15,148.32 362.19,147.57 361.41,145.34 360.79,143.59 360.83,141.61 360.58,139.74 Z M 360.58,139.74" />
        <path id="logo-canvas4bezier61" stroke="none" fill="rgb(200, 212, 230)" d="M 145.49,139.95 C 145.3,138.03 145.27,136.35 144.89,134.76 144.75,134.16 143.82,133.41 143.2,133.35 142.55,133.3 141.25,133.97 141.24,134.37 141.11,137.8 141.14,141.25 141.32,144.68 141.35,145.19 142.48,146.01 143.09,146 143.68,146 144.6,145.2 144.77,144.58 145.2,143.01 145.3,141.34 145.49,139.95 Z M 149.01,140.1 C 148.77,141.53 148.59,143.1 148.22,144.62 147.57,147.32 145.89,148.34 142.65,148.35 140.04,148.36 138.47,147.07 138.33,144.56 138.14,141.21 138.09,137.82 138.38,134.48 138.58,132.12 140.64,130.74 142.98,130.75 145.34,130.76 148.02,132.68 148.39,134.78 148.69,136.49 148.8,138.23 149.01,140.1 Z M 149.01,140.1" />
        <path id="logo-canvas4bezier62" stroke="none" fill="rgb(200, 212, 230)" d="M 123.97,165.69 C 123.75,164.17 123.67,162.49 123.2,160.93 123,160.27 121.97,159.45 121.33,159.45 120.71,159.47 119.61,160.42 119.57,161 119.39,164.2 119.38,167.42 119.55,170.62 119.58,171.2 120.77,172.22 121.29,172.15 122.04,172.04 123.05,171.22 123.27,170.5 123.73,169.02 123.75,167.41 123.97,165.69 Z M 115.66,165.6 C 115.82,164.33 116.01,162.53 116.3,160.74 116.7,158.28 118.53,157.39 120.7,157.2 123.83,156.92 125.08,157.72 125.93,160.2 127.11,163.67 127.17,167.18 126.23,170.71 125.55,173.27 123.63,174.84 121.26,174.74 119.49,174.67 116.27,172.98 116.02,170.61 115.86,169.13 115.8,167.64 115.66,165.6 Z M 115.66,165.6" />
        <path id="logo-canvas4bezier63" stroke="none" fill="rgb(200, 212, 230)" d="M 348.42,165.65 C 348.33,164.53 348.44,162.89 347.96,161.45 347.67,160.59 346.44,160.04 345.63,159.36 345.08,160.08 344.1,160.78 344.05,161.54 343.86,164.4 343.83,167.29 344.04,170.14 344.1,170.89 345.25,171.56 345.9,172.26 346.66,171.53 347.78,170.93 348.1,170.03 348.53,168.84 348.33,167.42 348.42,165.65 Z M 340.14,165.61 C 340.35,164.03 340.46,162.29 340.83,160.61 341.33,158.41 342.96,157.41 345.12,157.17 347.43,156.92 349.73,157.27 350.34,159.78 351,162.54 351.01,165.45 351.26,168.3 351.29,168.69 351.05,169.09 350.99,169.5 350.45,173.17 348.98,174.7 345.92,174.75 343.42,174.79 341.26,172.88 340.66,169.94 340.38,168.58 340.32,167.17 340.14,165.61 Z M 340.14,165.61" />
        <path id="logo-canvas4bezier64" stroke="none" fill="rgb(200, 212, 230)" d="M 405.77,139.82 C 405.85,140.99 405.68,142.48 406.12,143.76 406.44,144.69 407.58,145.35 408.35,146.12 408.99,145.35 410.11,144.63 410.17,143.81 410.41,141.03 410.41,138.21 410.18,135.43 410.12,134.66 408.99,133.97 408.35,133.25 407.57,134.04 406.44,134.7 406.09,135.65 405.66,136.83 405.86,138.26 405.77,139.82 Z M 414.13,139.89 C 413.92,141.19 413.8,142.51 413.49,143.79 412.57,147.67 411.35,148.69 407.4,148.23 406.15,148.09 404.43,147.05 403.98,145.97 402.35,142.14 402.45,138.09 403.59,134.08 404.31,131.56 406.32,130.85 408.57,130.8 410.89,130.76 413.09,132.75 413.45,134.95 413.72,136.57 413.9,138.21 414.13,139.89 Z M 414.13,139.89" />
        <path id="logo-canvas4bezier65" stroke="none" fill="rgb(200, 212, 230)" d="M 215.53,139.69 C 215.27,137.93 215.13,136.19 214.7,134.52 214.57,134 213.64,133.33 213.1,133.35 212.41,133.37 211.17,134.01 211.16,134.41 211.03,137.85 211.06,141.3 211.25,144.73 211.27,145.23 212.42,146.04 213.03,146.02 213.62,146 214.51,145.2 214.69,144.57 215.14,143 215.27,141.34 215.53,139.69 Z M 212.9,148.33 C 210.34,148.52 208.54,147.37 208.33,144.85 208.04,141.52 207.93,138.11 208.33,134.81 208.67,131.93 210.65,130.62 213.11,130.75 215.39,130.86 218.1,132.79 218.27,134.98 218.51,138.07 218.54,141.25 218.13,144.31 217.74,147.26 215.95,148.35 212.9,148.33 Z M 212.9,148.33" />
        <path id="logo-canvas4bezier66" stroke="none" fill="rgb(200, 212, 230)" d="M 310.43,86.57 C 310.29,85.01 310.33,83.4 309.95,81.9 309.77,81.2 308.76,80.19 308.18,80.23 307.4,80.28 306.09,81.17 306.05,81.76 305.84,84.87 305.87,88.01 306.07,91.13 306.11,91.67 307.35,92.53 308.03,92.52 308.69,92.51 309.72,91.68 309.91,91.02 310.31,89.61 310.28,88.08 310.43,86.57 Z M 302.44,86.47 C 302.89,84.31 303.24,82.13 303.81,80.01 304.24,78.42 305.12,77.58 307.11,78.01 312.58,79.18 312.88,77.68 313.69,84.79 314.06,88.13 314.2,91.7 311.01,94.3 309.34,95.65 306.28,95.81 304.82,94.23 302.78,92.02 302.65,89.32 302.44,86.47 Z M 302.44,86.47" />
        <path id="logo-canvas4bezier67" stroke="none" fill="rgb(200, 212, 230)" d="M 360,217.19 C 359.77,215.72 359.71,214.13 359.24,212.67 359.01,211.96 358.03,211.04 357.4,211.04 356.72,211.04 355.49,211.98 355.46,212.57 355.26,215.81 355.26,219.09 355.46,222.33 355.49,222.84 356.9,223.6 357.67,223.6 358.24,223.59 359.11,222.62 359.3,221.93 359.71,220.44 359.77,218.85 360,217.19 Z M 363.66,217.72 C 362.83,219.95 362.3,222.36 361.09,224.35 359.84,226.4 357.54,226.75 355.34,225.74 353.36,224.84 352.45,223.36 352.71,220.95 352.89,219.22 352.43,217.36 351.99,215.63 351.32,213.06 352.62,210.99 354.22,209.7 355.44,208.72 358.16,208.24 359.39,208.95 361,209.89 362,212.13 362.88,214 363.33,214.95 362.96,216.29 362.96,217.46 L 363.66,217.72 Z M 363.66,217.72" />
        <path id="logo-canvas4bezier68" stroke="none" fill="rgb(200, 212, 230)" d="M 131.51,139.98 C 131.26,138.02 131.15,136.29 130.76,134.62 130.63,134.08 129.82,133.46 129.23,133.34 128.78,133.26 127.88,133.78 127.7,134.24 126.27,137.81 125.79,141.43 127.84,144.95 128.13,145.44 128.8,146.05 129.25,146.02 129.74,145.99 130.48,145.35 130.61,144.85 131.04,143.2 131.25,141.49 131.51,139.98 Z M 123.6,139.97 C 122.85,135.34 126.34,133.44 129.24,131.33 130.63,130.31 133.37,131.94 134.06,134.09 135.33,138.09 135.15,142.16 133.73,146.02 132.84,148.43 130.41,148.44 128.17,148.34 126.15,148.26 124.85,147.19 124.39,145.34 123.95,143.59 123.85,141.77 123.6,139.97 Z M 123.6,139.97" />
        <path id="logo-canvas4bezier69" stroke="none" fill="rgb(200, 212, 230)" d="M 90.8,274.27 C 90.8,271.35 90.97,268.76 90.71,266.22 90.61,265.22 89.65,263.6 88.93,263.52 87.52,263.35 86.38,264.36 86.39,266.12 86.41,268.43 86.12,270.76 86.43,273.02 86.6,274.27 87.7,275.4 88.39,276.59 88.63,276.49 88.87,276.4 89.11,276.31 89,277.08 88.88,277.85 88.76,278.69 86.78,278.9 85.48,278.26 84.64,276.54 82.66,272.51 82.81,268.34 84.07,264.22 84.98,261.27 86.5,260.44 89.26,260.67 91.52,260.86 93.42,262.61 93.92,265.11 94.2,266.48 94.28,267.9 94.45,269.29 94.77,271.88 93.38,273.26 90.8,274.27 Z M 90.8,274.27" />
        <path id="logo-canvas4bezier70" stroke="none" fill="rgb(16, 67, 145)" d="M 371.67,318.44 C 372.38,316.37 373.09,314.3 373.79,312.22 375.79,306.35 377.79,300.48 379.79,294.61 380.62,292.2 382.44,293.44 384.3,293.35 383.71,295.38 383.24,297.19 382.65,298.96 381.13,303.49 379.57,308.01 377.98,312.53 377.33,314.38 376.84,316.4 375.72,317.95 375.11,318.78 373.34,318.77 372.09,319.15 371.95,318.91 371.81,318.68 371.67,318.44 Z M 371.67,318.44" />
        <path id="logo-canvas4bezier71" stroke="none" fill="rgb(200, 212, 230)" d="M 225.51,80.23 C 227.79,78.62 228.87,78.8 229.19,81.47 229.58,84.69 229.6,88.04 229.15,91.25 228.71,94.35 226.34,95.63 223.1,95.33 221.09,95.15 219.07,92.75 218.84,89.9 218.67,87.67 218.49,85.35 218.93,83.2 219.17,82.06 220.73,81.2 221.7,80.21 221.87,80.39 222.03,80.57 222.2,80.75 221.95,82.89 221.51,85.04 221.53,87.18 221.53,88.61 222.09,90.08 222.62,91.45 222.83,91.98 223.75,92.64 224.21,92.56 224.87,92.44 225.86,91.74 225.94,91.19 226.42,87.6 226.8,83.99 225.51,80.23 Z M 225.51,80.23" />
        <path id="logo-canvas4bezier72" stroke="none" fill="rgb(200, 212, 230)" d="M 242.72,119.59 C 242.24,120.04 241.47,121.25 240.9,121.16 240.03,121.03 239.07,120.14 238.57,119.31 235.84,114.82 236.03,110.26 238.53,105.71 239.69,103.6 243.29,102.69 245.18,104.17 247.74,106.19 248.24,109.13 248.36,112.14 248.38,112.55 247.96,113.01 247.66,113.38 246.81,114.42 245.91,115.42 244.79,116.71 244.79,114.44 244.85,112.23 244.77,110.03 244.73,109.07 244.62,107.98 244.13,107.21 243.8,106.68 242.74,106.34 242.04,106.39 241.49,106.42 240.56,107.17 240.54,107.63 240.4,110.82 240.33,114.03 240.54,117.22 240.59,117.96 241.8,118.63 242.72,119.59 Z M 242.72,119.59" />
        <path id="logo-canvas4bezier73" stroke="none" fill="rgb(16, 67, 145)" d="M 385.47,316.16 C 384.64,312.91 385.2,310.86 388.3,309.98 389.38,309.68 390.31,308.86 391.98,307.89 390.46,306.91 389.45,305.89 388.24,305.54 385.08,304.63 384.68,302.56 385.48,299.46 390.26,302.17 394.95,304.84 400.14,307.78 395.02,310.71 390.3,313.4 385.47,316.16 Z M 385.47,316.16" />
        <path id="logo-canvas4bezier74" stroke="none" fill="rgb(200, 212, 230)" d="M 69.25,243.57 C 69.48,245.19 69.58,246.93 70.03,248.57 70.19,249.15 71.23,249.86 71.85,249.85 72.48,249.84 73.61,249.04 73.64,248.54 73.8,245.28 73.8,242.01 73.64,238.75 73.62,238.26 72.47,237.42 71.9,237.46 71.2,237.51 70.16,238.2 69.96,238.83 69.51,240.3 69.47,241.9 69.25,243.57 Z M 77.35,243.56 C 78.07,246.65 76.62,249.06 74.94,251.37 73.81,252.93 71.2,253.49 69.61,252.18 68.26,251.06 66.41,250.16 67.35,247.42 68.44,244.27 68.59,240.8 69.34,237.5 69.57,236.49 70.25,235 71,234.8 72.75,234.33 74.85,234.45 75.72,236.5 76.66,238.72 77.25,241.1 78,243.41 77.78,243.46 77.56,243.51 77.35,243.56 Z M 77.35,243.56" />
        <path id="logo-canvas4bezier75" stroke="none" fill="rgb(16, 67, 145)" d="M 147.68,307.84 C 149.34,308.8 150.29,309.44 151.31,309.93 154.95,311.67 154.96,311.65 154.24,316.09 149.43,313.36 144.74,310.69 139.64,307.79 144.7,304.91 149.38,302.25 154.13,299.55 155.1,303.58 154.94,303.89 151.65,305.48 150.49,306.03 149.43,306.79 147.68,307.84 Z M 147.68,307.84" />
        <path id="logo-canvas4bezier76" stroke="none" fill="rgb(200, 212, 230)" d="M 324.3,82.37 C 327.72,82.49 328.12,82.72 327.9,85.71 327.74,87.87 327.24,90.07 326.49,92.1 325.63,94.42 323.77,96.26 321.19,95.21 319.48,94.52 317.39,92.83 317.02,91.23 316.34,88.28 316.71,85.06 316.9,81.96 316.92,81.5 318.31,81.13 319.06,80.71 319.34,81.38 319.84,82.05 319.86,82.73 319.97,85.28 319.73,87.85 320.04,90.36 320.14,91.2 321.5,91.89 322.28,92.66 322.95,91.78 324.11,90.96 324.21,90.03 324.48,87.5 324.3,84.93 324.3,82.37 Z M 324.3,82.37" />
        <path id="logo-canvas4bezier77" stroke="none" fill="rgb(200, 212, 230)" d="M 384.13,109.03 C 388.37,110.91 388,114.33 386.6,117.55 385.69,119.64 384.82,121.58 381.96,121.65 379.09,121.72 376.82,119.05 376.46,116.85 376,114.03 376.29,111.08 376.4,108.19 376.42,107.52 376.94,106.77 377.44,106.27 377.8,105.91 378.74,105.6 379.03,105.81 379.49,106.14 379.85,106.93 379.84,107.52 379.8,110.4 379.43,113.29 379.58,116.16 379.62,117.05 380.77,118.3 381.69,118.64 383.24,119.21 383.99,117.79 384.08,116.54 384.26,114.14 384.13,111.73 384.13,109.03 Z M 384.13,109.03" />
        <path id="logo-canvas4bezier78" stroke="none" fill="rgb(16, 67, 145)" d="M 243.79,296.16 C 243.79,302.24 244.06,308.23 243.67,314.18 243.5,316.85 241.01,315.15 239.38,315.43 L 239.38,296.16 243.79,296.16 Z M 243.79,296.16" />
        <path id="logo-canvas4bezier79" stroke="none" fill="rgb(200, 212, 230)" d="M 316.39,142.13 C 314.08,142.4 313.19,142.11 313.24,140.29 313.29,138.65 313.22,136.91 312.68,135.39 312.37,134.49 311.04,133.96 310.17,133.26 309.6,134.02 308.77,134.71 308.52,135.57 308.19,136.74 308.12,138.06 308.26,139.27 308.52,141.56 307.69,142.91 305.1,143.35 304.48,139.61 304.27,135.79 306.47,132.52 307.99,130.26 313.71,129.83 314.76,133.34 315.6,136.11 315.85,139.05 316.39,142.13 Z M 316.39,142.13" />
        <path id="logo-canvas4bezier80" stroke="none" fill="rgb(200, 212, 230)" d="M 324.33,135.7 C 322.6,136.43 321.43,136.92 320.02,137.52 319.93,136.82 319.62,136.01 319.84,135.82 321.84,134.06 323.92,132.39 326.05,130.79 326.14,130.71 327.36,131.57 327.37,132.01 327.46,137.31 327.43,142.62 327.43,148.18 326.37,148.23 325.51,148.28 324.33,148.34 L 324.33,135.7 Z M 324.33,135.7" />
        <path id="logo-canvas4bezier81" stroke="none" fill="rgb(200, 212, 230)" d="M 187.95,148.23 L 184.84,148.23 184.84,135.84 C 183.2,136.52 181.94,137.04 180.57,137.61 180,135.75 180.32,134.77 182.16,134.05 183.38,133.57 184.19,132.16 185.3,131.33 185.82,130.95 186.65,130.82 187.3,130.89 187.56,130.91 187.92,131.78 187.93,132.27 187.97,137.49 187.95,142.72 187.95,148.23 Z M 187.95,148.23" />
        <path id="logo-canvas4bezier82" stroke="none" fill="rgb(200, 212, 230)" d="M 339.8,121.1 L 339.8,108.13 C 338.16,109.07 336.88,109.8 335.53,110.58 335,108.74 335.35,107.76 337.01,107 338.11,106.5 338.79,105.15 339.79,104.34 340.35,103.88 341.21,103.49 341.88,103.56 342.28,103.59 342.88,104.58 342.89,105.15 342.96,110.39 342.93,115.63 342.93,121.1 L 339.8,121.1 Z M 339.8,121.1" />
        <path id="logo-canvas4bezier83" stroke="none" fill="rgb(200, 212, 230)" d="M 203.45,121.23 L 200.37,121.23 200.37,108.27 C 198.68,109.24 197.41,109.97 196.04,110.76 195.53,108.9 195.73,107.82 197.49,107.14 198.46,106.76 199.09,105.58 199.99,104.91 200.77,104.33 201.71,103.95 202.58,103.49 202.87,104.25 203.4,105.01 203.41,105.78 203.49,110.83 203.45,115.88 203.45,121.23 Z M 203.45,121.23" />
        <path id="logo-canvas4bezier84" stroke="none" fill="rgb(200, 212, 230)" d="M 375.6,137.68 C 375.2,135.66 375.68,134.76 377.2,134.08 378.32,133.58 379.12,132.38 380.16,131.64 380.78,131.2 381.58,130.92 382.33,130.85 382.58,130.83 383.16,131.67 383.17,132.12 383.23,137.43 383.21,142.74 383.21,148.01 379.9,148.59 379.88,148.58 379.87,145.57 379.87,142.44 379.87,139.3 379.87,135.99 378.32,136.61 377.06,137.11 375.6,137.68 Z M 375.6,137.68" />
        <path id="logo-canvas4bezier85" stroke="none" fill="rgb(200, 212, 230)" d="M 465.22,265.55 C 463.47,266.69 462.43,267.38 461.21,268.18 460.57,266.2 460.56,265.14 462.47,264.5 463.54,264.14 464.34,262.97 465.28,262.19 466.07,261.53 466.88,260.91 467.69,260.27 467.89,260.46 468.1,260.66 468.31,260.85 L 468.31,278.19 C 467.48,278.25 466.62,278.3 465.22,278.39 L 465.22,265.55 Z M 465.22,265.55" />
        <path id="logo-canvas4bezier86" stroke="none" fill="rgb(200, 212, 230)" d="M 77.51,278.24 L 74.52,278.24 74.52,265.66 C 72.81,266.58 71.6,267.23 70.33,267.91 69.27,266.03 70.25,265.18 71.52,264.33 72.52,263.67 73.37,262.81 74.32,262.08 75.15,261.45 76.04,260.88 76.9,260.29 77.1,260.48 77.31,260.68 77.51,260.87 L 77.51,278.24 Z M 77.51,278.24" />
        <path id="logo-canvas4bezier87" stroke="none" fill="rgb(200, 212, 230)" d="M 159.95,148.17 L 156.72,148.17 156.72,135.66 C 155.28,136.39 154.24,136.93 153.1,137.52 152.45,135.8 152.79,134.86 154.37,134.04 155.57,133.41 156.4,132.1 157.51,131.25 157.96,130.9 158.76,130.75 159.31,130.88 159.62,130.95 159.92,131.78 159.93,132.27 159.97,137.49 159.95,142.7 159.95,148.17 Z M 159.95,148.17" />
        <path id="logo-canvas4bezier88" stroke="none" fill="rgb(200, 212, 230)" d="M 362.81,174.24 L 359.8,174.24 359.8,161.85 C 358.19,162.56 356.94,163.1 355.65,163.66 355.1,160.85 359.67,156.92 362.81,157.46 L 362.81,174.24 Z M 362.81,174.24" />
        <path id="logo-canvas4bezier89" stroke="none" fill="rgb(200, 212, 230)" d="M 193.82,174.2 L 190.83,174.2 190.83,161.91 C 189.25,162.67 187.97,163.29 186.62,163.94 186.22,161.35 191.26,157 193.82,157.49 L 193.82,174.2 Z M 193.82,174.2" />
        <path id="logo-canvas4bezier90" stroke="none" fill="rgb(200, 212, 230)" d="M 347.62,137.25 C 347.92,136.39 347.99,135.31 348.56,134.73 349.86,133.4 351.38,132.26 352.88,131.15 353.81,130.47 354.91,130.29 354.93,131.91 355,137.29 354.95,142.66 354.95,148 352.55,148.82 351.73,148.11 351.83,145.79 351.97,142.58 351.86,139.37 351.86,135.87 350.45,136.55 349.37,137.07 348.29,137.58 348.07,137.47 347.84,137.36 347.62,137.25 Z M 347.62,137.25" />
        <path id="logo-canvas4bezier91" stroke="none" fill="rgb(200, 212, 230)" d="M 108.96,225.51 C 106.4,226.37 105.68,225.5 105.78,223.24 105.92,220.09 105.82,216.93 105.82,213.46 104.3,214.14 103.02,214.72 101.57,215.37 101.21,213.97 101.01,213.18 102.55,212.45 103.88,211.82 104.74,210.29 105.94,209.32 106.56,208.81 107.46,208.65 108.24,208.33 108.48,208.96 108.92,209.59 108.93,210.22 108.98,215.29 108.96,220.36 108.96,225.51 Z M 108.96,225.51" />
        <path id="logo-canvas4bezier92" stroke="none" fill="rgb(200, 212, 230)" d="M 329.96,121.18 L 326.88,121.18 326.88,108.11 C 325.36,109.15 324.28,109.89 323.04,110.73 322.59,109.07 322.67,107.98 324.26,107.12 325.22,106.6 325.79,105.42 326.68,104.72 327.4,104.17 328.35,103.91 329.2,103.51 329.45,104.22 329.92,104.92 329.93,105.63 329.99,110.76 329.96,115.9 329.96,121.18 Z M 329.96,121.18" />
        <path id="logo-canvas4bezier93" stroke="none" fill="rgb(200, 212, 230)" d="M 134.97,161.94 C 133.23,162.66 131.98,163.17 130.67,163.72 130.41,161.07 135.24,157.02 138.03,157.47 L 138.03,174.17 134.97,174.17 134.97,161.94 Z M 134.97,161.94" />
        <path id="logo-canvas4bezier94" stroke="none" fill="rgb(200, 212, 230)" d="M 114.45,183.28 C 114.45,188.68 114.5,193.82 114.38,198.97 114.36,199.5 113.34,200 112.79,200.52 112.29,199.94 111.38,199.39 111.36,198.79 111.23,195.25 111.29,191.71 111.29,187.88 109.75,188.69 108.56,189.33 106.81,190.25 106.94,189.08 106.88,187.92 107.09,187.87 109.99,187.19 110.37,182.63 114.45,183.28 Z M 114.45,183.28" />
        <path id="logo-canvas4bezier95" stroke="none" fill="rgb(200, 212, 230)" d="M 449.38,183.24 L 449.38,200.3 C 448.43,200.36 447.51,200.41 446.29,200.49 L 446.29,187.91 C 444.76,188.71 443.57,189.33 441.81,190.26 441.96,189.06 441.93,187.91 442.14,187.86 445.06,187.24 445.48,182.71 449.38,183.24 Z M 449.38,183.24" />
        <path id="logo-canvas4bezier96" stroke="none" fill="rgb(200, 212, 230)" d="M 379.33,200.21 C 376.96,201.05 376.16,200.3 376.27,197.96 376.42,194.82 376.31,191.67 376.31,188.14 374.8,188.85 373.6,189.42 371.84,190.25 371.97,189.07 371.94,187.9 372.14,187.86 375.08,187.27 375.53,182.75 379.33,183.25 L 379.33,200.21 Z M 379.33,200.21" />
        <path id="logo-canvas4bezier97" stroke="none" fill="rgb(200, 212, 230)" d="M 106.89,174.19 L 106.89,161.89 C 105.44,162.59 104.31,163.13 103.16,163.69 102.66,161.11 106.62,157.27 109.76,157.33 L 109.76,174.19 106.89,174.19 Z M 106.89,174.19" />
        <path id="logo-canvas4bezier98" stroke="none" fill="rgb(200, 212, 230)" d="M 374.83,157.39 L 374.83,174.15 371.95,174.15 371.95,161.89 C 370.49,162.59 369.37,163.12 368.2,163.68 367.79,161.18 372.05,157.17 374.83,157.39 Z M 374.83,157.39" />
        <path id="logo-canvas4bezier99" stroke="none" fill="rgb(200, 212, 230)" d="M 370.89,225.63 L 370.89,213.42 C 369.34,214.15 368.07,214.74 366.8,215.33 366.61,215.19 366.42,215.04 366.23,214.9 366.53,214.17 366.65,213.29 367.16,212.76 368.32,211.55 369.62,210.46 370.95,209.44 371.61,208.94 372.46,208.69 373.23,208.33 373.56,209.08 374.17,209.82 374.19,210.58 374.29,214.16 374.11,217.74 374.28,221.31 374.39,223.64 373.38,224.87 370.89,225.63 Z M 370.89,225.63" />
        <path id="logo-canvas4bezier100" stroke="none" fill="rgb(200, 212, 230)" d="M 331.31,84.11 C 333.7,84.09 334.59,85.06 334.49,87.17 334.44,88.39 334.51,89.72 334.96,90.81 335.29,91.59 336.53,92.67 337.04,92.52 337.91,92.27 338.83,91.27 339.19,90.37 339.56,89.45 339.27,88.26 339.27,87.22 342.74,86.76 343.33,88.88 341.6,91.6 340.62,93.13 340.3,95.26 337.82,95.35 334.56,95.47 331.58,93.02 331.33,89.74 331.2,87.93 331.31,86.1 331.31,84.11 Z M 331.31,84.11" />
        <path id="logo-canvas4bezier101" stroke="none" fill="rgb(200, 212, 230)" d="M 370.46,121.19 L 367.74,121.19 367.74,107.89 C 366.05,109.04 364.88,109.84 363.55,110.75 363.04,109 363.19,107.92 364.91,107.04 366.11,106.42 366.93,105.09 368.01,104.19 368.46,103.82 369.24,103.46 369.71,103.61 370.08,103.72 370.42,104.61 370.43,105.16 370.48,110.4 370.46,115.65 370.46,121.19 Z M 370.46,121.19" />
        <path id="logo-canvas4bezier102" stroke="none" fill="rgb(200, 212, 230)" d="M 230.96,121.32 C 229.93,121.26 229.23,121.23 228.3,121.18 L 228.3,108.17 C 226.68,109.12 225.46,109.83 224.24,110.55 223.54,108.32 223.6,108.39 225.18,107.22 226.4,106.31 227.42,105.13 228.61,104.18 229.07,103.81 229.78,103.58 230.34,103.63 230.59,103.66 230.93,104.54 230.93,105.03 230.97,110.33 230.96,115.63 230.96,121.32 Z M 230.96,121.32" />
        <path id="logo-canvas4bezier103" stroke="none" fill="rgb(200, 212, 230)" d="M 165.8,174.18 L 163.3,174.18 163.3,161.72 C 161.67,162.45 160.37,163.03 159.04,163.63 158.74,161.04 162.96,157.13 165.8,157.37 L 165.8,174.18 Z M 165.8,174.18" />
        <path id="logo-canvas4bezier104" stroke="none" fill="rgb(200, 212, 230)" d="M 430.8,174.32 C 429.91,174.27 429.21,174.23 428.27,174.18 L 428.27,161.84 C 426.7,162.53 425.46,163.08 424.2,163.64 423.66,161.2 427.82,157.21 430.8,157.37 L 430.8,174.32 Z M 430.8,174.32" />
        <path id="logo-canvas4bezier105" stroke="none" fill="rgb(200, 212, 230)" d="M 351.45,183.5 C 351.45,188.69 351.48,193.91 351.39,199.13 351.38,199.59 350.56,200.04 350.11,200.49 349.68,199.96 348.87,199.43 348.86,198.88 348.74,195.41 348.8,191.93 348.8,188.13 347.2,188.71 345.92,189.16 344.65,189.62 344.22,187.46 348.87,183.12 351.45,183.5 Z M 351.45,183.5" />
        <path id="logo-canvas4bezier106" stroke="none" fill="rgb(200, 212, 230)" d="M 237.33,145.87 C 235.32,141.48 235.9,134.63 238.45,132.22 239.95,130.81 241.35,130.29 243.06,132.22 244.24,133.54 245.92,134.41 247.37,135.49 247.13,135.75 246.89,136.01 246.65,136.28 246.06,137.23 245.47,138.18 244.63,139.52 244.33,137.61 244.3,136.11 243.8,134.79 243.53,134.1 242.45,133.36 241.69,133.31 241.15,133.27 240.14,134.26 240.01,134.92 239.64,136.76 239.46,138.68 239.5,140.56 239.55,142.63 239.3,144.46 237.33,145.87 Z M 237.33,145.87" />
        <path id="logo-canvas4bezier107" stroke="none" fill="rgb(200, 212, 230)" d="M 80.94,225.67 L 78.32,225.67 78.32,213.47 C 77.72,213.52 77.34,213.51 76.98,213.6 76.61,213.69 76.27,213.88 75.92,214.03 L 75.39,213.56 C 76.43,211.98 77.4,210.36 78.56,208.88 78.86,208.5 79.77,208.36 80.31,208.49 80.62,208.57 80.91,209.41 80.91,209.91 80.95,215.06 80.94,220.21 80.94,225.67 Z M 80.94,225.67" />
        <path id="logo-canvas4bezier108" stroke="none" fill="rgb(200, 212, 230)" d="M 192.92,191.37 C 191.87,190.95 190.97,190.59 190.1,190.25 190.13,184.07 192.79,182.96 196.66,183.22 199.65,183.42 201.38,187.31 200.72,192.15 199.23,192.52 198.37,192.44 198.19,190.41 198.06,188.92 197.19,187.43 196.42,186.07 195.7,184.8 194.69,185.1 194.25,186.31 193.69,187.82 193.41,189.42 192.92,191.37 Z M 192.92,191.37" />
        <path id="logo-canvas4bezier109" stroke="none" fill="rgb(200, 212, 230)" d="M 335.81,171.45 C 335.3,168.62 334.85,165.78 334.26,162.97 334.02,161.79 333.78,160.4 333.02,159.61 331.93,158.49 330.39,159.54 329.22,162.5 328.55,161.2 327.44,159.88 327.72,159.43 328.34,158.44 329.58,157.44 330.7,157.26 334.4,156.67 334.87,156.95 336.84,161.34 338.34,164.67 337.94,168.1 336.61,171.38 336.34,171.41 336.07,171.43 335.81,171.45 Z M 335.81,171.45" />
        <path id="logo-canvas4bezier110" stroke="none" fill="rgb(200, 212, 230)" d="M 438.71,160.46 C 439.12,162.46 439.6,164.44 439.92,166.45 440.1,167.59 439.79,168.84 440.13,169.9 440.41,170.8 441.2,171.96 441.97,172.15 442.76,172.34 443.8,171.49 444.91,171.02 445.1,171.35 445.55,172.09 446.36,173.47 444.62,173.92 443.13,174.66 441.67,174.61 439.12,174.52 437.46,172.45 437.06,170.36 436.51,167.51 436.93,164.46 437,161.5 437.01,161.17 437.46,160.85 437.71,160.52 438.04,160.5 438.38,160.48 438.71,160.46 Z M 438.71,160.46" />
        <path id="logo-canvas4bezier111" stroke="none" fill="rgb(200, 212, 230)" d="M 291.8,136.23 C 293.36,134.56 294.86,132.83 296.52,131.26 296.96,130.85 297.93,130.71 298.55,130.86 298.94,130.96 299.36,131.84 299.37,132.38 299.44,136.03 299.41,139.68 299.41,143.33 L 298.71,143.8 C 297.82,142.73 296.56,141.8 296.14,140.57 295.69,139.24 296.04,137.65 296.04,136.09 294.47,136.49 293.25,136.81 292.02,137.12 291.95,136.82 291.87,136.53 291.8,136.23 Z M 291.8,136.23" />
        <path id="logo-canvas4bezier112" stroke="none" fill="rgb(200, 212, 230)" d="M 139.25,198.55 L 139.25,187.99 C 137.77,188.68 136.47,189.28 135.12,189.91 134.79,187.67 139.76,183.16 142.18,183.33 143.29,188.52 142.06,193.3 139.25,198.55 Z M 139.25,198.55" />
        <path id="logo-canvas4bezier113" stroke="none" fill="rgb(200, 212, 230)" d="M 434.27,183.59 C 439.17,185.61 440.17,195.67 435.53,199.84 435.21,198.65 434.8,197.77 434.75,196.88 434.58,193.45 434.52,190.01 434.41,186.57 434.38,185.67 434.33,184.76 434.27,183.59 Z M 434.27,183.59" />
        <path id="logo-canvas4bezier114" stroke="none" fill="rgb(200, 212, 230)" d="M 209.34,188.04 C 207.64,188.77 206.45,189.27 205.25,189.78 204.63,187.58 209.61,183.05 212.3,183.42 L 212.3,194.31 C 211.28,194.08 210.44,193.9 209.34,193.65 L 209.34,188.04 Z M 209.34,188.04" />
        <path id="logo-canvas4bezier115" stroke="none" fill="rgb(200, 212, 230)" d="M 113.74,239.38 C 112.06,240.13 110.77,240.71 109.33,241.35 109.27,241.17 109.09,240.89 109.1,240.61 109.16,238.8 114.29,234.67 116.4,234.95 116.09,239.22 117.71,243.83 113.74,247.91 L 113.74,239.38 Z M 113.74,239.38" />
        <path id="logo-canvas4bezier116" stroke="none" fill="rgb(200, 212, 230)" d="M 191.32,90.89 C 191.99,90.67 192.68,90.45 193.44,90.21 193.59,90.34 193.85,90.45 193.93,90.65 194.47,91.98 195.36,93.27 196.82,92.54 197.74,92.09 198.58,90.64 198.69,89.56 198.87,87.73 200.94,86.73 201.06,87.32 201.89,91.5 200,95.05 197.4,95.33 194.08,95.7 191.58,93.9 191.32,90.89 Z M 191.32,90.89" />
        <path id="logo-canvas4bezier117" stroke="none" fill="rgb(200, 212, 230)" d="M 161.14,106.95 C 161.14,111.38 161.18,115.81 161.07,120.23 161.06,120.61 160.1,121.19 159.55,121.24 159.18,121.27 158.41,120.52 158.4,120.1 158.31,116.38 158.23,112.64 158.45,108.93 158.49,108.12 159.74,107.38 160.44,106.61 160.67,106.73 160.91,106.84 161.14,106.95 Z M 161.14,106.95" />
        <path id="logo-canvas4bezier118" stroke="none" fill="rgb(200, 212, 230)" d="M 212.84,83.22 L 212.84,95.05 C 210.72,95.69 209.58,95.39 209.77,92.88 209.94,90.66 209.95,88.4 209.76,86.18 209.58,83.97 210.55,83.22 212.84,83.22 Z M 212.84,83.22" />
        <path id="logo-canvas4bezier119" stroke="none" fill="rgb(200, 212, 230)" d="M 289.9,113.16 C 289.19,111.64 288.57,110.07 287.73,108.63 287.23,107.76 286.43,107.04 285.67,106.35 284.92,105.67 284.06,105.13 282.86,104.23 288.68,102.28 290.92,105.85 290.79,112.78 290.5,112.91 290.2,113.03 289.9,113.16 Z M 289.9,113.16" />
        <path id="logo-canvas4bezier120" stroke="none" fill="rgb(200, 212, 230)" d="M 354.88,92.62 C 353.86,95.9 351.51,95.56 349.43,95.24 347.11,94.89 345.59,92.27 345.44,88.3 346.89,89.49 348.25,90.17 348.9,91.26 349.73,92.64 350.5,92.82 351.93,92.44 352.81,92.21 353.85,92.54 354.88,92.62 Z M 354.88,92.62" />
        <path id="logo-canvas4bezier121" stroke="none" fill="rgb(200, 212, 230)" d="M 449.87,238.44 L 449.87,248.99 C 449.69,249.14 449.52,249.28 449.34,249.43 448.51,248.5 447.14,247.66 446.96,246.62 446.13,241.89 446.67,240.65 449.87,238.44 Z M 449.87,238.44" />
        <path id="logo-canvas4bezier122" stroke="none" fill="rgb(200, 212, 230)" d="M 176.57,188.4 C 178.23,186.98 179.57,186.15 180.47,184.98 181.46,183.7 182.33,182.68 184.27,183.42 L 184.27,189.43 C 183.05,189.12 181.9,188.83 180.25,188.4 L 176.57,188.4 Z M 176.57,188.4" />
        <path id="logo-canvas4bezier123" stroke="none" fill="rgb(200, 212, 230)" d="M 141.31,120.29 C 144.9,119.24 147.24,116.62 149.76,113.49 150.25,116.84 149.51,119.22 147.48,120.74 145.72,122.06 143.5,121.85 141.31,120.29 Z M 141.31,120.29" />
        <path id="logo-canvas4bezier124" stroke="none" fill="rgb(200, 212, 230)" d="M 158.22,185.16 C 156.51,185.2 155.59,187.03 154.08,185.48 153.95,185.35 152.29,186.52 151.54,187.28 151.08,187.75 150.98,188.6 150.67,189.41 149.87,189.15 149.18,188.93 148.51,188.72 149.43,182.88 152.86,181.43 158.22,185.16 Z M 158.22,185.16" />
        <path id="logo-canvas4bezier125" stroke="none" fill="rgb(200, 212, 230)" d="M 455.62,189.9 C 457.3,193.54 458.98,197.17 460.79,201.09 455.4,199.49 454.94,198.08 455.62,189.9 Z M 455.62,189.9" />
        <path id="logo-canvas4bezier126" stroke="none" fill="rgb(200, 212, 230)" d="M 395.9,163.81 C 395.89,160.7 400.65,156.94 403.71,157.55 403.11,158.61 402.58,159.57 402.03,160.52 401.5,161.44 400.95,162.36 400.38,163.34 400.3,162.91 400.22,162.5 400.1,161.88 398.73,162.51 397.44,163.1 395.9,163.81 Z M 395.9,163.81" />
        <path id="logo-canvas4bezier127" stroke="none" fill="rgb(200, 212, 230)" d="M 476.62,277.26 C 473.76,274.18 473.45,266.58 475.89,262.64 476.15,267.84 476.38,272.55 476.62,277.26 Z M 476.62,277.26" />
        <path id="logo-canvas4bezier128" stroke="none" fill="rgb(200, 212, 230)" d="M 86.41,189.35 C 86.41,192.55 86.48,195.76 86.35,198.96 86.33,199.49 85.46,199.99 84.98,200.5 84.52,199.97 83.74,199.48 83.64,198.89 83.07,195.38 84.45,192.31 86.41,189.35 Z M 86.41,189.35" />
        <path id="logo-canvas4bezier129" stroke="none" fill="rgb(200, 212, 230)" d="M 163.29,185.75 C 164.18,183.34 166.19,182.88 168.44,183.21 170.89,183.57 172.28,185.13 172.27,188.15 171.09,187.37 169.96,186.48 168.71,185.84 168.09,185.53 167.21,185.55 166.5,185.69 165.52,185.87 164.58,186.31 163.63,186.63 L 163.29,185.75 Z M 163.29,185.75" />
        <path id="logo-canvas4bezier130" stroke="none" fill="rgb(200, 212, 230)" d="M 219.77,184.86 C 220.22,188.32 220.67,191.77 221.12,195.24 219.08,195.63 218.06,195.22 218.24,193.23 218.49,190.42 218.69,187.6 218.91,184.79 219.19,184.81 219.48,184.84 219.77,184.86 Z M 219.77,184.86" />
        <path id="logo-canvas4bezier131" stroke="none" fill="rgb(200, 212, 230)" d="M 385.26,188.01 C 386.29,189.71 387.14,191.13 388.02,192.53 389.2,194.41 388.49,196.55 386.03,198.05 384.65,194.78 385.56,191.46 385.26,188.01 Z M 385.26,188.01" />
        <path id="logo-canvas4bezier132" stroke="none" fill="rgb(200, 212, 230)" d="M 443.92,209.54 L 443.92,221.05 C 439.86,219.27 440.07,219.36 442.49,215.36 443.59,213.53 443.58,211.04 443.92,209.54 Z M 443.92,209.54" />
        <path id="logo-canvas4bezier133" stroke="none" fill="rgb(200, 212, 230)" d="M 421.95,141.32 C 424.93,142.82 425.33,145.17 424.8,148.11 L 421.95,148.11 421.95,141.32 Z M 421.95,141.32" />
        <path id="logo-canvas4bezier134" stroke="none" fill="rgb(200, 212, 230)" d="M 117.88,143.14 C 117.91,143.75 117.95,144.29 117.96,144.84 117.97,145.89 117.96,146.95 117.96,148.17 L 115.17,148.17 C 114.61,145.63 115.28,144.35 117.88,143.14 Z M 117.88,143.14" />
        <path id="logo-canvas4bezier135" stroke="none" fill="rgb(200, 212, 230)" d="M 129.3,215.09 C 129.55,211.5 134.04,211.78 134.25,208.62 133.98,212.54 132.87,214.02 129.3,215.09 Z M 129.3,215.09" />
        <path id="logo-canvas4bezier136" stroke="none" fill="rgb(200, 212, 230)" d="M 98.7,267.58 C 98.47,263.75 102.46,263.25 103.63,260.44 L 104.44,261.06 C 103.52,262.16 102.62,263.27 101.68,264.35 100.71,265.45 99.7,266.51 98.7,267.58 Z M 98.7,267.58" />
        <path id="logo-canvas4bezier137" stroke="none" fill="rgb(200, 212, 230)" d="M 333.7,183.31 C 338.08,183.13 339.38,184.25 339.84,188.26 337.84,186.65 336.02,185.18 333.7,183.31 Z M 333.7,183.31" />
        <path id="logo-canvas4bezier138" stroke="none" fill="rgb(200, 212, 230)" d="M 233.4,165.35 C 236.89,167.3 236.89,167.51 233.4,170.82 L 233.4,165.35 Z M 233.4,165.35" />
        <path id="logo-canvas4bezier139" stroke="none" fill="rgb(200, 212, 230)" d="M 251.12,109.75 C 251.36,106.84 252.4,104.67 254.92,103.62 255.17,103.81 255.42,104.01 255.67,104.2 L 251.12,109.75 Z M 251.12,109.75" />
        <path id="logo-canvas4bezier140" stroke="none" fill="rgb(200, 212, 230)" d="M 395.55,117.28 C 397.33,118.2 399.36,118.56 398.35,121.19 L 395.55,121.19 395.55,117.28 Z M 395.55,117.28" />
        <path id="logo-canvas4bezier141" stroke="none" fill="rgb(200, 212, 230)" d="M 94.5,174.13 C 95.37,172.49 96.16,171.01 96.95,169.52 97.11,169.54 97.26,169.56 97.42,169.58 L 97.42,174.13 94.5,174.13 Z M 94.5,174.13" />
        <path id="logo-canvas4bezier142" stroke="none" fill="rgb(200, 212, 230)" d="M 454.01,265.66 C 454.68,264.87 455.19,264.27 456,263.32 456.62,264.97 457.14,266.39 457.67,267.8 457.45,267.95 457.22,268.1 457,268.26 456.03,267.42 455.07,266.58 454.01,265.66 Z M 454.01,265.66" />
        <path id="logo-canvas4bezier143" stroke="none" fill="rgb(200, 212, 230)" d="M 349.92,234.75 C 351.99,234.57 354.1,234.29 355.16,237.63 353.04,236.77 351.39,236.1 349.73,235.42 349.79,235.2 349.86,234.97 349.92,234.75 Z M 349.92,234.75" />
        <path id="logo-canvas4bezier144" stroke="none" fill="rgb(200, 212, 230)" d="M 472.26,238.39 C 472.52,238.96 472.77,239.53 473.09,240.24 472.26,240.71 471.53,241.12 470.8,241.53 470.59,241.41 470.37,241.28 470.16,241.15 470.63,240.15 471.09,239.15 471.55,238.15 L 472.26,238.39 Z M 472.26,238.39" />
        <path id="logo-canvas4bezier145" stroke="none" fill="rgb(200, 212, 230)" d="M 419.85,162.96 C 418.92,161.37 417.79,159.44 416.7,157.57 419.69,158.26 419.11,161.26 419.85,162.96 Z M 419.85,162.96" />
        <path id="logo-canvas4largeA2" stroke="none" fill="rgb(16, 67, 145)" d="M 322.86,308.39 L 325.41,308.39 C 324.99,307.4 324.63,306.55 324.13,305.37 323.63,306.55 323.27,307.41 322.86,308.39 Z M 334.15,315.66 C 332.41,315.66 330.92,315.81 329.48,315.59 328.97,315.51 328.34,314.64 328.17,314.01 327.81,312.73 327.14,312.44 326,312.52 324.52,312.62 323.03,312.57 321.55,312.53 320.86,312.51 320.53,312.81 320.29,313.46 319.5,315.65 319.44,315.67 317.26,315.67 316.28,315.67 315.31,315.67 314.22,315.67 315.23,313.4 316.16,311.3 317.1,309.21 318.58,305.95 320.06,302.69 321.55,299.44 322.09,298.25 322.6,297.05 323.2,295.89 323.37,295.56 323.79,295.16 324.08,295.18 324.42,295.21 324.88,295.57 325.05,295.92 326.12,298.22 327.12,300.57 328.17,302.89 329.78,306.47 331.41,310.05 333.05,313.63 333.32,314.23 333.68,314.8 334.15,315.66 Z M 334.15,315.66" />
        <path id="logo-canvas4largeA3" stroke="none" fill="rgb(16, 67, 145)" d="M 205.77,308.16 L 208.32,308.16 C 207.9,307.17 207.54,306.32 207.04,305.14 206.54,306.32 206.18,307.18 205.77,308.16 Z M 217.06,315.43 C 215.32,315.43 213.83,315.58 212.39,315.36 211.88,315.28 211.25,314.41 211.08,313.78 210.72,312.5 210.05,312.21 208.91,312.29 207.43,312.39 205.94,312.34 204.46,312.3 203.77,312.28 203.44,312.58 203.2,313.23 202.41,315.42 202.35,315.44 200.17,315.44 199.19,315.44 198.22,315.44 197.13,315.44 198.14,313.17 199.07,311.07 200.01,308.98 201.49,305.72 202.97,302.46 204.46,299.21 205,298.02 205.51,296.82 206.11,295.66 206.28,295.33 206.7,294.93 206.99,294.95 207.33,294.98 207.79,295.34 207.96,295.69 209.03,297.99 210.03,300.34 211.08,302.66 212.69,306.24 214.32,309.82 215.96,313.4 216.23,314 216.59,314.57 217.06,315.43 Z M 217.06,315.43" />
    </g>
</svg>
