<?xml version="1.0" encoding="UTF-8"?>
<!DOCTYPE svg PUBLIC "-//W3C//DTD SVG 1.1//EN" "http://www.w3.org/Graphics/SVG/1.1/DTD/svg11.dtd">
<svg version="1.1" xmlns="http://www.w3.org/2000/svg" xmlns:xlink="http://www.w3.org/1999/xlink" width="480" height="480"  xml:space="preserve" id="canvas1">
    <!-- Generated by PaintCode - http://www.paintcodeapp.com -->
    <rect id="canvas1-rectangle" stroke="none" fill="rgb(255, 255, 255)" x="0" y="0" width="480" height="480" />
    <g id="canvas1-canvas4gscc_nh_logoGroup">
        <path id="canvas1-canvas4bezier2" stroke="none" fill="rgb(16, 67, 145)" d="M 52.62,397 C 51.82,396.82 51.02,396.51 50.2,396.47 44.9,396.23 39.59,391.29 39.57,385.58 39.55,381 39.36,376.42 39.14,371.85 38.83,365.81 37.23,361.67 30,360.76 L 30,351.25 C 30.62,351.1 31.32,350.88 32.03,350.75 35.31,350.15 38.37,347.29 38.65,343.94 39.12,338.31 39.4,332.65 39.54,327 39.71,320.25 44.1,316.14 50.31,315.54 53.02,315.28 55.74,315.16 58.65,314.97 L 58.65,324.82 C 57.14,324.99 55.66,325.11 54.21,325.34 50.96,325.85 50.14,326.8 50.01,330.12 49.87,333.53 49.63,336.95 49.67,340.36 49.73,346.61 48.04,352 42.63,355.67 43.88,357.13 44.87,358.55 46.12,359.69 48.93,362.24 49.18,365.68 49.47,369.05 49.79,372.86 49.87,376.7 49.96,380.53 50.08,385.32 50.81,386.19 55.49,386.73 56.48,386.85 57.47,386.96 58.62,387.08 L 58.62,397 52.62,397 Z M 52.62,397" />
        <path id="canvas1-canvas4bezier3" stroke="none" fill="rgb(16, 67, 145)" d="M 421.13,397 L 421.13,387.13 C 422.55,386.96 423.85,386.79 425.15,386.64 428.63,386.23 429.59,385.22 429.78,381.71 430.03,376.81 430.16,371.9 430.54,367 430.91,362.22 433.81,358.88 437.49,355.85 432.14,352.14 429.97,346.83 430.09,340.36 430.16,336.95 429.89,333.54 429.75,330.13 429.61,326.58 428.9,325.8 425.41,325.31 424.1,325.13 422.78,325 421.23,324.83 L 421.23,315.13 C 426.88,315.33 432.65,314.42 437.28,319.11 440.02,321.89 440.19,325.37 440.42,328.82 440.73,333.3 440.59,337.81 440.98,342.28 441.41,347.23 443.84,349.74 448.66,350.89 449.05,350.98 449.42,351.13 449.87,351.27 449.91,351.92 449.97,352.49 449.97,353.06 449.99,355.56 449.98,358.04 449.98,360.68 449.25,360.86 448.63,361.05 448.01,361.17 444.28,361.89 441.37,364.72 441.06,368.52 440.63,373.82 440.4,379.14 440.33,384.46 440.23,391.57 435.93,395.87 429.04,396.54 428.56,396.59 428.1,396.84 427.63,397 L 421.13,397 Z M 421.13,397" />
        <path id="canvas1-canvas4bezier4" stroke="none" fill="rgb(200, 212, 230)" d="M 266.47,92.39 C 266.27,90.86 266.17,89.21 265.78,87.62 265.64,87.05 264.84,86.31 264.29,86.26 263.73,86.21 262.94,86.79 262.54,87.32 261.06,89.29 261.07,95.61 262.57,97.53 262.97,98.04 263.77,98.6 264.32,98.53 264.88,98.47 265.66,97.74 265.8,97.17 266.17,95.66 266.25,94.08 266.47,92.39 Z M 265.13,83 C 266.68,84.27 269.04,84.85 269.09,87.45 269.15,90.73 269.56,94.06 269.09,97.27 268.65,100.21 266.55,101.38 263.7,101.33 261.49,101.3 259.4,99.79 259.06,97.05 258.68,93.96 258.92,90.77 259.12,87.64 259.27,85.2 261.07,83.93 263.13,83 L 265.13,83 Z M 265.13,83" />
        <path id="canvas1-canvas4bezier5" stroke="none" fill="rgb(200, 212, 230)" d="M 210.38,92.73 C 210.32,92.73 210.26,92.72 210.21,92.72 210.21,91.23 210.44,89.69 210.12,88.27 209.93,87.46 208.85,86.32 208.14,86.3 207.43,86.27 206.1,87.4 206.04,88.11 205.8,90.98 205.81,93.88 206.06,96.75 206.12,97.43 207.43,98.41 208.24,98.49 208.82,98.55 209.87,97.44 210.1,96.67 210.46,95.44 210.31,94.05 210.38,92.73 Z M 209.13,83 C 213.83,86.23 215.64,92.79 212.97,98.02 211.9,100.11 210.2,101.73 207.31,101.39 204.82,101.09 203.61,99.26 203.43,97.5 203.06,93.95 203.26,90.31 203.59,86.74 203.77,84.82 205.02,83.41 207.36,83.62 207.76,83.66 208.2,83.22 208.63,83 L 209.13,83 Z M 209.13,83" />
        <path id="canvas1-canvas4bezier6" stroke="none" fill="rgb(200, 212, 230)" d="M 237.13,83 C 240.93,85.25 241.9,87.6 241.24,93.19 240.57,93.22 239.86,93.25 238.95,93.29 238.89,92.42 238.82,91.7 238.8,90.99 238.67,87.57 237.71,85.68 235.99,86.02 233.16,86.58 234.03,89.06 233.96,90.89 233.82,94.67 233.69,95.09 231.14,96.9 229.19,90.49 230.4,86.26 235.13,83 L 237.13,83 Z M 237.13,83" />
        <path id="canvas1-canvas4bezier7" stroke="none" fill="rgb(200, 212, 230)" d="M 253.13,83 L 253.13,101.14 C 251.93,101.21 251.06,101.25 249.85,101.32 L 249.85,88.32 C 248.2,89.01 246.94,89.54 245.61,90.1 244.89,88.54 245.63,87.96 246.75,87.09 248.11,86.03 249.02,84.39 250.13,83 L 253.13,83 Z M 253.13,83" />
        <path id="canvas1-canvas4bezier8" stroke="none" fill="rgb(200, 212, 230)" d="M 225.13,83 L 225.13,101.15 C 223.89,101.22 223.02,101.26 221.82,101.33 L 221.82,88.02 C 220.26,88.92 219.16,89.55 218.07,90.18 217.87,90.06 217.67,89.95 217.47,89.83 218.05,88.9 218.56,87.91 219.22,87.05 220.3,85.66 221.49,84.35 222.63,83 L 225.13,83 Z M 225.13,83" />
        <path id="canvas1-canvas4bezier9" stroke="none" fill="rgb(16, 67, 145)" d="M 268.92,286.02 C 262.71,286.02 256.84,286.02 250.96,286.01 237.64,286 224.31,285.94 210.99,285.98 203.52,286.01 196.04,286.29 188.56,286.24 187.15,286.23 185.5,285.53 184.39,284.62 181.59,282.35 178.92,279.89 176.42,277.3 173.74,274.51 171.25,271.52 168.78,268.53 166.37,265.61 163.96,262.67 161.79,259.57 159.12,255.76 156.46,251.9 154.23,247.83 150.35,240.74 146.78,233.48 143.1,226.27 139.71,219.64 136.38,212.98 132.97,206.37 131.77,204.05 130.4,201.82 128.78,198.97 135.19,199.95 140.85,200.75 146.49,201.7 152.63,202.73 158.75,203.91 164.88,204.98 173.4,206.47 181.92,207.93 190.44,209.36 201.92,211.29 213.39,213.24 224.89,215.05 226.83,215.36 227.8,216.18 228.76,217.91 231.97,223.71 235.5,229.33 238.89,235.03 244,243.65 249.09,252.28 254.2,260.9 258.63,268.37 263.08,275.83 267.5,283.3 267.96,284.07 268.33,284.89 268.92,286.02 Z M 268.92,286.02" />
        <path id="canvas1-canvas4bezier10" stroke="none" fill="rgb(16, 67, 145)" d="M 320.6,251.44 C 316.96,253.92 313.39,256.35 309.48,259.01 315.84,262.89 322,266.64 328.14,270.39 324.86,277.31 319.56,282.03 313.19,285.64 312.33,286.13 311.09,286.09 310.03,286.09 298.88,286.11 287.73,286.07 276.58,286.09 274.98,286.1 273.84,285.81 272.95,284.2 269.81,278.55 266.53,272.98 263.22,267.44 260.63,263.1 257.91,258.83 255.25,254.53 254.03,252.57 252.88,250.56 251.59,248.65 250.72,247.36 251.08,246.73 252.43,246.27 257.7,244.48 260.95,240.51 263.43,235.8 265.03,232.77 264.59,232.09 261.49,230.85 257.63,229.29 253.86,227.5 249.64,225.63 252.13,223.74 254.06,222.34 255.92,220.86 259.92,217.67 263.94,214.49 267.85,211.2 269.54,209.77 269.36,208.37 267.43,207.24 265.58,206.15 263.6,205.27 261.67,204.31 260.51,203.72 259.34,203.15 257.71,202.33 264.3,197.59 269.29,192.07 272.93,185.34 270.77,182.86 268.67,180.46 266.3,177.76 272.48,171.46 278.97,165.08 281.56,155.65 284.48,165.41 291.25,172.22 298.51,179.26 296.53,180.82 294.85,182.55 292.83,183.63 290.6,184.81 289.86,186.1 291.46,188.05 294.86,192.21 298.35,196.29 302.88,199.36 304.48,200.45 305.79,201.99 307.41,203.49 303.13,205.23 299.03,206.91 294.71,208.67 297.3,212.48 300.93,214.87 304.53,217.34 308.05,219.77 311.45,222.39 314.9,224.92 L 314.87,225.87 C 310.37,227.69 305.91,229.62 301.36,231.28 298.88,232.18 298.54,232.66 299.87,234.95 302.81,240.03 306.81,243.97 312.09,246.64 314.78,248 317.35,249.6 320.6,251.44 Z M 320.6,251.44" />
        <path id="canvas1-canvas4bezier11" stroke="none" fill="rgb(16, 67, 145)" d="M 333.7,283.68 C 339.86,279.93 346.02,276.17 352.36,272.31 348.36,269.57 344.85,267.16 341.21,264.67 344.87,262.66 348.26,260.83 351.62,258.95 356.53,256.2 359.84,251.93 362.65,247.21 363.68,245.49 362.21,245.38 361.13,244.95 356.38,243.06 351.65,241.12 346.92,239.21 346.86,238.92 346.8,238.62 346.74,238.33 350.6,235.55 354.51,232.85 358.3,229.97 360.93,227.96 363.45,225.8 365.89,223.56 367.1,222.44 367.24,221.4 365.1,220.83 362.22,220.06 359.42,218.97 356.6,217.96 355.93,217.72 355.34,217.26 354.33,216.69 357.08,214.36 359.74,212.41 362.02,210.1 365.01,207.06 367.78,203.81 370.47,200.5 371.49,199.24 371.2,197.95 369.49,197.07 367.89,196.24 366.4,195.15 364.96,194.05 363.76,193.14 363.62,192.08 364.82,190.91 367.37,188.43 369.87,185.9 372.36,183.36 372.88,182.84 373.39,182.27 373.74,181.63 375.93,177.68 378.07,173.69 380.28,169.62 381.03,170.97 381.99,172.24 382.47,173.67 384.76,180.62 390.04,185.3 394.94,190.25 396.72,192.03 396.57,193.33 394.71,194.69 393.64,195.47 392.57,196.35 391.37,196.83 389.11,197.72 388.79,199.19 390.11,200.89 392.32,203.75 394.61,206.58 397.17,209.12 399.5,211.44 402.25,213.35 404.79,215.48 405.14,215.77 405.33,216.25 405.92,217.14 401.73,218.65 397.79,220.06 393.55,221.58 393.77,222.14 393.85,222.99 394.32,223.39 396.93,225.65 399.58,227.88 402.33,229.97 406.06,232.81 409.89,235.52 414.35,238.77 409.18,240.95 404.85,242.93 400.41,244.6 397.66,245.64 397.35,246.08 398.73,248.6 401.92,254.47 406.94,258.24 412.77,261.15 414.84,262.18 416.85,263.3 419.34,264.62 415.7,267.11 412.2,269.5 408.13,272.28 414.44,276.16 420.62,279.96 426.65,283.67 425.93,285.93 424.74,286.37 423.02,286.36 394.33,286.25 365.63,286.21 336.93,286.08 335.83,286.07 334.74,285.28 333.64,284.86 333.66,284.47 333.68,284.07 333.7,283.68 Z M 333.7,283.68" />
        <path id="canvas1-canvas4bezier12" stroke="none" fill="rgb(16, 67, 145)" d="M 214.32,209.01 C 215.4,207.22 216.14,205.83 217.02,204.55 218.31,202.66 218.1,201.79 215.96,201.03 213.06,200 210.07,199.18 207.28,197.92 204.13,196.51 201.16,194.72 197.82,192.94 198.51,192.09 198.91,191.35 199.51,190.88 204.14,187.29 208.75,183.69 213.47,180.24 217.25,177.48 220.45,174.22 223.21,170.51 217.85,168.28 212.77,166.16 207.03,163.78 210.59,160.46 213.72,157.69 216.68,154.74 219.47,151.96 222.12,149.02 224.75,146.08 225.68,145.03 226.35,143.75 227.18,142.61 229.01,140.09 228.4,138.99 225.76,137.57 223.35,136.28 221.33,134.2 219.33,132.27 219.01,131.95 219.43,130.38 219.95,129.77 222.75,126.5 225.62,123.29 228.59,120.19 232.38,116.25 234.53,111.41 236.57,106.48 237.32,104.66 238.28,102.93 239.33,100.77 240.98,104.26 242.72,107.34 243.91,110.61 245.67,115.46 249.06,119.05 252.41,122.73 254.64,125.18 256.92,127.59 259.06,130.12 259.48,130.62 259.73,131.97 259.42,132.26 257.39,134.16 255.39,136.23 252.99,137.57 250.54,138.93 249.64,140.33 251.37,142.65 254.82,147.28 258.1,152.03 262.87,155.57 265.89,157.81 268.42,160.72 271.59,163.72 266.16,166.02 261.11,168.17 255.47,170.56 259.22,175.45 263.11,180.51 267.06,185.65 264.48,190.73 260.64,195.08 255.77,198.54 254.95,199.12 254.2,199.78 253.46,200.45 251.05,202.64 251.2,203.64 254.15,205.18 257.01,206.67 259.86,208.18 262.78,209.71 258.43,214.55 253.02,217.98 247.66,221.48 247.31,221.71 246.91,221.87 246.58,222.11 243.14,224.71 243.44,226.94 247.37,228.91 251.21,230.84 254.97,232.93 258.82,234.98 257.19,239.44 252.85,241.03 248.78,243.5 245.54,237.92 242.38,232.31 239.07,226.8 236.22,222.05 233.28,217.35 230.19,212.75 229.61,211.87 228.25,211.22 227.14,211.02 223.07,210.25 218.96,209.71 214.32,209.01 Z M 214.32,209.01" />
        <path id="canvas1-canvas4bezier13" stroke="none" fill="rgb(16, 67, 145)" d="M 176.81,286.02 L 124.94,286.02 124.94,205.09 C 127.1,209.36 128.95,213.09 130.86,216.79 133.09,221.11 135.39,225.4 137.62,229.72 138.41,231.27 139.07,232.89 139.83,234.46 141.93,238.78 143.89,243.17 146.23,247.35 147.95,250.43 150.22,253.21 152.2,256.14 154.79,259.99 157.22,263.95 159.95,267.7 162.13,270.69 164.54,273.55 167.06,276.26 170.13,279.57 173.43,282.65 176.81,286.02 Z M 176.81,286.02" />
        <path id="canvas1-canvas4bezier14" stroke="none" fill="rgb(16, 67, 145)" d="M 118.33,285.77 L 68.16,285.77 C 71.41,282.49 74.53,279.47 77.51,276.31 79.72,273.97 81.96,271.6 83.78,268.96 87.96,262.89 92.09,256.77 95.84,250.44 99.52,244.26 102.86,237.87 106.07,231.43 109.57,224.4 112.75,217.21 116.09,210.1 116.69,208.83 117.4,207.61 118.33,205.85 L 118.33,285.77 Z M 118.33,285.77" />
        <path id="canvas1-canvas4bezier15" stroke="none" fill="rgb(16, 67, 145)" d="M 355.6,362.89 C 362.88,353.57 369.87,344.62 376.91,335.71 377.08,335.49 377.84,335.74 378.44,335.78 L 378.44,378.17 368.36,378.17 368.36,363.35 C 368.14,363.28 367.91,363.2 367.68,363.13 363.79,368.07 359.89,373.02 355.74,378.3 351.57,373.06 347.64,368.13 343.29,362.67 L 343.29,378.17 333.35,378.17 333.35,335.65 C 335.84,335.79 336.65,337.93 337.8,339.43 343.7,347.08 349.49,354.81 355.6,362.89 Z M 355.6,362.89" />
        <path id="canvas1-canvas4bezier16" stroke="none" fill="rgb(16, 67, 145)" d="M 125.5,368.15 C 132.41,368.72 137.85,362.07 137.84,357.06 137.82,351.11 132.07,346.12 125.54,345.76 119.37,345.43 113.12,351.46 113.36,357.03 113.65,363.5 118.45,368.15 125.5,368.15 Z M 125.06,378.38 C 117.37,378.88 111.14,375.46 106.62,369.54 102.67,364.36 102.26,358.1 103.49,351.66 105.01,343.73 114.51,335.63 123.42,335.56 127.62,335.54 131.78,335.6 135.59,337.58 140.07,339.91 143.66,343.14 146.05,347.75 150.22,355.8 148.96,363.42 143.75,370.17 139.24,376.02 132.81,378.92 125.06,378.38 Z M 125.06,378.38" />
        <path id="canvas1-canvas4bezier17" stroke="none" fill="rgb(16, 67, 145)" d="M 163.55,368.05 C 169.45,368.22 174.39,367.37 177.96,362.64 180.38,359.43 180.27,353.25 177.79,350.48 174.36,346.64 169.98,345.69 165.16,345.97 164.6,346 163.63,346.81 163.62,347.26 163.52,354.07 163.55,360.88 163.55,368.05 Z M 152.49,335.77 C 161.24,336.09 169.75,334.77 177.99,337.76 186.37,340.79 191.25,349.69 190.38,359.66 189.49,369.89 182.67,375.88 173.04,377.34 166.83,378.28 160.44,378.03 154.13,378.35 152.22,378.44 152.5,377.12 152.5,375.99 152.49,368.82 152.49,361.66 152.49,354.5 152.49,348.42 152.49,342.35 152.49,335.77 Z M 152.49,335.77" />
        <path id="canvas1-canvas4bezier18" stroke="none" fill="rgb(16, 67, 145)" d="M 223.88,335.79 L 223.88,345.89 C 218.72,345.89 213.67,345.89 208.62,345.89 205.48,345.89 203.91,348.33 205.36,351.17 205.61,351.67 206.71,351.96 207.43,351.97 211.33,352.05 215.24,352.01 219.37,352.01 L 219.37,362.05 C 215.5,362.05 211.68,362.22 207.89,361.99 205.27,361.84 205.16,363.15 205.12,365.15 205.07,367.28 205.47,368.29 207.96,368.19 213.18,367.99 218.42,368.13 223.83,368.13 L 223.83,378.17 194.84,378.17 194.84,335.79 223.88,335.79 Z M 223.88,335.79" />
        <path id="canvas1-canvas4bezier19" stroke="none" fill="rgb(16, 67, 145)" d="M 394.64,351.02 C 394.77,357.25 393.61,356.27 400.07,356.42 400.65,356.43 401.24,356.37 401.81,356.3 404.88,355.91 406.88,353.85 406.88,351.12 406.87,348.25 404.78,346.22 401.55,345.95 400.97,345.9 400.39,345.92 399.8,345.91 394.64,345.88 394.64,345.89 394.64,351.02 Z M 384.35,378.34 C 384.28,377.46 384.2,376.9 384.2,376.33 384.19,363.69 384.24,351.04 384.15,338.4 384.14,336.28 384.83,335.67 386.86,335.77 393.41,336.1 400.01,335.91 406.49,336.68 411.07,337.23 413.96,340.6 416.25,344.72 419.33,350.27 418.09,355.24 414.92,359.88 412.08,364.02 407.75,366.16 402.64,366.37 400.56,366.46 398.48,366.49 396.4,366.41 394.89,366.35 394.32,366.9 394.37,368.42 394.46,371 394.33,373.58 394.42,376.16 394.46,377.7 394.07,378.46 392.34,378.37 389.77,378.25 387.2,378.34 384.35,378.34 Z M 384.35,378.34" />
        <path id="canvas1-canvas4bezier20" stroke="none" fill="rgb(16, 67, 145)" d="M 282.54,372.54 C 279.64,375.97 274.7,377.86 269.2,378.36 263.2,378.9 257.28,378.23 252.15,374.87 246.45,371.15 243.17,365.83 242.66,358.84 241.51,343.2 255.3,333.73 269.72,335.77 275.03,336.52 279.43,338.83 283.26,342.4 280.87,344.8 278.44,347.23 275.88,349.79 272.07,345.59 267.08,345.19 261.85,346.43 257.98,347.34 255.13,349.87 253.76,353.57 252.27,357.64 253.12,361.75 256.18,364.68 260.95,369.26 268.94,369.31 274.08,366.12 274.71,365.72 275.29,365.24 276.72,364.01 278.64,366.81 280.55,369.62 282.54,372.54 Z M 282.54,372.54" />
        <path id="canvas1-canvas4bezier21" stroke="none" fill="rgb(16, 67, 145)" d="M 96.76,364.03 C 98.59,366.83 100.41,369.63 102.41,372.69 100.64,374.84 97.11,376.84 92.99,377.72 85.67,379.29 78.41,378.9 72.01,374.8 66.4,371.2 63.16,365.85 62.63,358.93 61.45,343.2 75.29,333.75 89.65,335.76 94.97,336.51 99.37,338.81 103.15,342.31 100.74,344.74 98.32,347.18 95.78,349.74 92.12,345.65 87.23,345.26 82.04,346.36 73.61,348.16 70.09,358.35 76.04,364.53 79.83,368.47 85.03,369.04 90.24,367.7 92.2,367.19 93.99,366.04 95.85,365.18 96.16,364.8 96.46,364.42 96.76,364.03 Z M 96.76,364.03" />
        <path id="canvas1-canvas4largeA" stroke="none" fill="rgb(16, 67, 145)" d="M 304.2,363.3 L 309.79,363.3 C 308.86,361.24 308.07,359.5 306.97,357.05 305.89,359.49 305.1,361.28 304.2,363.3 Z M 328.95,378.33 C 325.13,378.33 321.87,378.62 318.72,378.17 317.59,378.01 316.22,376.21 315.83,374.9 315.06,372.27 313.58,371.66 311.08,371.82 307.84,372.03 304.58,371.94 301.33,371.84 299.82,371.8 299.09,372.43 298.57,373.78 296.83,378.3 296.71,378.34 291.91,378.34 289.78,378.34 287.65,378.34 285.26,378.34 287.48,373.64 289.51,369.3 291.58,364.98 294.81,358.24 298.07,351.52 301.32,344.79 302.5,342.34 303.63,339.85 304.94,337.46 305.31,336.79 306.25,335.95 306.86,335.99 307.62,336.05 308.64,336.8 308.99,337.52 311.35,342.28 313.54,347.12 315.83,351.92 319.37,359.33 322.94,366.73 326.53,374.12 327.14,375.37 327.91,376.54 328.95,378.33 Z M 328.95,378.33" />
        <path id="canvas1-canvas4bezier23" stroke="none" fill="rgb(16, 67, 145)" d="M 144.36,305.33 C 142.81,307.19 141.43,308.46 138.75,306.91 136.48,305.59 133.52,306.63 131.75,308.65 130.27,310.33 130.02,313.04 131.19,314.67 132.78,316.87 136.82,317.82 139.39,316.54 140.02,316.23 140.56,315.72 141.56,315.01 139.17,313.97 134.38,316.15 136.35,310.68 L 147.13,310.68 C 148.07,313.94 145.51,319.19 142.26,320.51 136.01,323.05 130.07,321.99 126.46,315.93 124.26,312.25 126.15,306.38 130.77,303.21 134.21,300.86 142.08,301.33 144.36,305.33 Z M 144.36,305.33" />
        <path id="canvas1-canvas4bezier24" stroke="none" fill="rgb(16, 67, 145)" d="M 154.12,309.38 C 153.72,310.96 154.54,311.67 156.4,311.54 158.1,311.42 159.69,311.12 159.7,309.04 159.7,306.55 157.73,306.61 155.97,306.46 153.83,306.26 154.1,307.75 154.12,309.38 Z M 154.06,315 L 154.06,321.37 149.8,321.37 149.8,302.21 C 153.06,302.21 156.31,301.87 159.46,302.31 162.03,302.67 163.99,304.56 164.44,307.29 164.94,310.34 164.14,313.04 161.33,314.81 162.65,316.88 163.96,318.94 165.29,321.04 161.49,322.31 160.11,321.81 158.07,318.86 157.06,317.41 155.83,316.1 154.69,314.73 154.48,314.82 154.27,314.91 154.06,315 Z M 154.06,315" />
        <path id="canvas1-canvas4bezier25" stroke="none" fill="rgb(16, 67, 145)" d="M 319.76,302.04 L 333.25,302.04 333.25,306.43 C 331,306.43 328.78,306.46 326.58,306.42 325.32,306.39 324.51,306.62 324.53,308.17 324.55,309.67 325.45,309.7 326.52,309.69 327.92,309.67 329.32,309.68 330.88,309.68 L 330.88,314.34 C 329.26,314.34 327.69,314.22 326.15,314.41 325.58,314.48 325.1,315.28 324.57,315.74 325.11,316.2 325.62,317 326.19,317.04 328.49,317.19 330.8,317.1 333.04,317.1 333.98,321.5 333.84,321.69 329.79,321.69 327.04,321.69 324.28,321.78 321.54,321.62 320.92,321.58 319.84,320.72 319.83,320.22 319.72,314.24 319.76,308.27 319.76,302.04 Z M 319.76,302.04" />
        <path id="canvas1-canvas4bezier26" stroke="none" fill="rgb(16, 67, 145)" d="M 189.3,301.52 C 193.44,305.22 197.16,308.54 201.51,312.42 201.51,309.35 201.57,306.93 201.49,304.51 201.42,302.75 201.7,301.8 203.89,301.81 206.13,301.82 206.23,302.9 206.22,304.59 206.16,310.14 206.2,315.69 206.2,321.25 205.99,321.39 205.79,321.54 205.59,321.69 201.83,318.36 198.07,315.03 193.74,311.2 193.74,313.79 193.74,315.81 193.74,317.82 193.74,321.94 193.74,321.94 189.3,321.33 L 189.3,301.52 Z M 189.3,301.52" />
        <path id="canvas1-canvas4bezier27" stroke="none" fill="rgb(16, 67, 145)" d="M 233.37,321.7 L 233.37,302.1 246.26,302.1 246.26,306.43 C 244.16,306.43 242.04,306.46 239.92,306.42 238.77,306.4 238.03,306.62 238.03,308.04 238.02,309.44 238.71,309.73 239.89,309.69 241.36,309.65 242.84,309.68 244.44,309.68 L 244.44,314.33 C 243.06,314.33 241.69,314.31 240.31,314.34 239.29,314.37 237.81,314.04 238.16,315.78 238.27,316.34 239.47,316.98 240.22,317.05 242.18,317.22 244.16,317.11 246.07,317.11 247,321.5 246.86,321.69 242.82,321.7 239.75,321.7 236.69,321.7 233.37,321.7 Z M 233.37,321.7" />
        <path id="canvas1-canvas4bezier28" stroke="none" fill="rgb(16, 67, 145)" d="M 268.97,307.36 C 267.41,307.74 265.97,308.09 264.54,308.44 264.2,307.9 263.96,307.15 263.46,306.88 262.89,306.57 262,306.46 261.4,306.68 260.94,306.85 260.39,307.71 260.46,308.18 260.55,308.8 261.09,309.6 261.65,309.84 263.24,310.52 264.94,310.94 266.59,311.48 268.68,312.16 269.33,313.97 269.36,315.8 269.39,317.7 268.81,319.5 266.79,320.56 263.74,322.15 260.73,322.5 257.88,320.41 256.67,319.53 255.86,318.08 254.54,316.49 257.22,315.95 259.02,314.65 260.92,316.69 261.35,317.16 262.75,316.84 263.67,316.67 263.96,316.62 264.4,315.62 264.32,315.55 263.69,314.97 262.99,314.44 262.24,314.03 260.43,313.06 258.41,312.39 256.79,311.18 254.03,309.11 255.43,304.13 259.14,302.42 262.69,300.78 267.89,302.22 268.97,307.36 Z M 268.97,307.36" />
        <path id="canvas1-canvas4bezier31" stroke="none" fill="rgb(16, 67, 145)" d="M 220.94,306.58 C 218.88,306.48 217.48,306.42 215.9,306.35 L 215.9,302.19 230.84,302.19 230.84,306.32 C 229.34,306.4 227.88,306.49 226.11,306.59 L 226.11,321.39 220.94,321.39 220.94,306.58 Z M 220.94,306.58" />
        <path id="canvas1-canvas4bezier32" stroke="none" fill="rgb(16, 67, 145)" d="M 312.67,321.4 L 307.77,321.4 C 307.77,317.46 307.78,313.65 307.77,309.84 307.76,306.54 307.75,306.54 304.38,306.45 303.97,306.44 303.55,306.38 302.92,306.32 L 302.92,302.21 317.81,302.21 317.81,306.06 C 317.62,306.18 317.49,306.33 317.35,306.35 312.92,306.75 312.92,306.74 312.94,311.28 312.96,314.45 312.95,317.61 312.94,320.78 312.94,320.92 312.82,321.07 312.67,321.4 Z M 312.67,321.4" />
        <path id="canvas1-canvas4bezier33" stroke="none" fill="rgb(16, 67, 145)" d="M 270.76,306.17 L 270.76,301.98 278.29,301.98 285.72,301.98 285.72,306.35 C 284.11,306.42 282.63,306.49 280.91,306.57 L 280.91,321.41 275.71,321.41 C 275.71,317.5 275.72,313.7 275.71,309.89 275.7,306.25 275.99,306.39 272.41,306.44 271.86,306.45 271.31,306.27 270.76,306.17 Z M 270.76,306.17" />
        <path id="canvas1-canvas4bezier34" stroke="none" fill="rgb(200, 212, 230)" d="M 72.02,249.49 C 71.82,248.08 71.7,246.34 71.28,244.67 71.15,244.14 70.23,243.47 69.69,243.48 69.13,243.5 68.15,244.25 68.13,244.72 67.98,247.92 67.94,251.14 68.09,254.35 68.11,254.88 69.21,255.78 69.78,255.76 70.38,255.73 71.28,254.9 71.45,254.26 71.83,252.83 71.83,251.31 72.02,249.49 Z M 75.81,249.48 C 75.18,251.79 74.7,254.12 73.9,256.33 72.82,259.33 67.46,259.53 65.74,256.65 63.79,253.41 63.67,245.22 65.82,242.11 67.46,239.75 72.92,240.23 74,242.96 74.8,244.99 75.19,247.19 75.81,249.48 Z M 75.81,249.48" />
        <path id="canvas1-canvas4bezier35" stroke="none" fill="rgb(200, 212, 230)" d="M 182.25,118.7 C 182.44,120.16 182.48,121.75 182.9,123.25 183.06,123.84 184.05,124.6 184.63,124.57 185.21,124.55 186.2,123.66 186.23,123.11 186.39,120.07 186.4,117.02 186.24,113.99 186.21,113.41 185.18,112.38 184.73,112.44 184.02,112.53 183.03,113.27 182.84,113.93 182.43,115.42 182.43,117.02 182.25,118.7 Z M 190.28,117.88 C 189.92,120.35 189.8,122.09 189.4,123.75 188.81,126.18 187.25,127.55 184.62,127.57 182.02,127.6 180.28,126.39 179.69,123.92 178.65,119.6 178.26,115.25 180.77,111.24 182.36,108.68 187.45,108.9 188.61,111.67 189.51,113.82 189.85,116.21 190.28,117.88 Z M 190.28,117.88" />
        <path id="canvas1-canvas4bezier36" stroke="none" fill="rgb(200, 212, 230)" d="M 144.91,118.51 C 144.84,117.1 145.02,115.62 144.62,114.31 144.37,113.5 143.28,112.46 142.53,112.44 141.86,112.42 140.62,113.6 140.56,114.33 140.32,117.11 140.31,119.93 140.54,122.71 140.6,123.43 141.86,124.58 142.55,124.57 143.29,124.55 144.39,123.51 144.63,122.7 145.02,121.4 144.84,119.92 144.91,118.51 Z M 136.33,118.84 C 136.92,116.68 137.34,114.94 137.87,113.24 138.56,111.01 139.79,109.6 142.44,109.49 145.36,109.36 146.99,111.23 147.61,113.28 148.91,117.58 149.34,122.04 146.13,125.98 144.24,128.3 139.91,128.08 138.64,125.36 137.65,123.23 137.05,120.93 136.33,118.84 Z M 136.33,118.84" />
        <path id="canvas1-canvas4bezier37" stroke="none" fill="rgb(200, 212, 230)" d="M 337.44,249.4 C 337.18,247.9 337.1,246.38 336.6,245.01 336.36,244.33 335.41,243.59 334.71,243.51 334.23,243.46 333.17,244.46 333.14,245.04 332.98,248.07 332.96,251.13 333.14,254.16 333.18,254.76 334.26,255.62 334.96,255.74 335.44,255.82 336.43,254.91 336.61,254.27 337.06,252.7 337.19,251.03 337.44,249.4 Z M 329.02,249.08 C 329.45,247.41 329.87,245.25 330.55,243.17 331.22,241.14 332.93,240.7 334.91,240.63 336.98,240.56 338.42,241.25 339.26,243.18 340.93,247 341.15,251.07 339.68,254.76 338.98,256.52 336.4,258.04 334.38,258.61 332.31,259.2 330.41,256.91 329.79,254.04 329.48,252.6 329.33,251.13 329.02,249.08 Z M 329.02,249.08" />
        <path id="canvas1-canvas4bezier38" stroke="none" fill="rgb(200, 212, 230)" d="M 366.56,146.05 C 366.37,143.97 366.33,142.29 365.99,140.68 365.88,140.13 365.05,139.41 364.49,139.36 363.95,139.3 362.97,139.88 362.81,140.38 361.69,143.85 361.34,147.37 362.91,150.82 363.15,151.34 363.86,152.07 364.24,152.01 364.82,151.91 365.64,151.3 365.78,150.75 366.21,149.09 366.36,147.35 366.56,146.05 Z M 370.25,145.55 C 369.83,147.51 369.36,149.33 369.05,151.18 368.66,153.41 367.1,154.14 365.18,154.31 360.96,154.69 359.3,153.25 358.89,148.32 358.68,145.72 358.97,143.03 359.39,140.44 359.79,137.98 361.83,136.88 364.09,136.84 366.05,136.81 368.2,137.25 368.91,139.56 369.51,141.51 369.81,143.55 370.25,145.55 Z M 370.25,145.55" />
        <path id="canvas1-canvas4bezier39" stroke="none" fill="rgb(200, 212, 230)" d="M 326.29,118.57 C 326.15,117.24 326.19,115.87 325.8,114.63 325.52,113.76 324.65,113.08 324.04,112.32 323.25,112.97 321.84,113.56 321.77,114.27 321.53,117.14 321.55,120.05 321.83,122.91 321.9,123.58 323.31,124.42 324.2,124.56 324.63,124.63 325.54,123.33 325.78,122.51 326.15,121.26 326.14,119.9 326.29,118.57 Z M 329.78,117.72 C 329.42,120.24 329.35,122 328.9,123.66 328.17,126.35 326.52,127.48 323.91,127.55 321.36,127.62 319.86,126.29 319.16,124 317.86,119.74 317.96,115.55 319.89,111.43 320.8,109.49 322.55,109.39 324.11,109.64 325.5,109.86 327.4,110.53 327.96,111.6 329.04,113.63 329.33,116.08 329.78,117.72 Z M 329.78,117.72" />
        <path id="canvas1-canvas4bezier40" stroke="none" fill="rgb(200, 212, 230)" d="M 159.04,118.45 C 158.93,116.82 159.07,115.49 158.66,114.37 158.36,113.54 157.35,112.48 156.62,112.45 155.94,112.42 154.65,113.57 154.59,114.28 154.35,117.07 154.35,119.9 154.58,122.69 154.64,123.42 156.03,124.7 156.53,124.58 157.39,124.36 158.41,123.37 158.68,122.5 159.11,121.11 158.97,119.55 159.04,118.45 Z M 150.2,118.13 C 151.01,115.95 151.48,113.57 152.69,111.64 154.75,108.36 158.93,108.85 160.79,112.2 163.42,116.9 162.67,121.4 160.31,125.86 159.12,128.1 154.73,128.14 152.91,126 151.07,123.82 150.79,122.84 150.2,118.13 Z M 150.2,118.13" />
        <path id="canvas1-canvas4bezier41" stroke="none" fill="rgb(200, 212, 230)" d="M 271.51,118.24 C 271.4,116.99 271.4,115.39 271.04,113.88 270.89,113.26 269.97,112.45 269.37,112.42 268.78,112.4 267.81,113.14 267.61,113.75 266.54,116.88 266.35,120.09 267.59,123.22 267.84,123.84 268.81,124.69 269.29,124.6 269.99,124.46 270.92,123.67 271.09,122.99 271.45,121.57 271.38,120.04 271.51,118.24 Z M 263.5,118.46 C 263.88,116.62 264.23,114.77 264.67,112.94 265.22,110.63 266.65,109.49 269.11,109.52 271.64,109.55 273.4,110.51 274.12,113.02 275.33,117.2 275.41,121.31 273.48,125.36 272.61,127.21 270.97,127.38 269.35,127.5 267.9,127.61 267,126.85 266.03,125.53 264.41,123.35 263.37,121.24 263.5,118.46 Z M 263.5,118.46" />
        <path id="canvas1-canvas4bezier42" stroke="none" fill="rgb(200, 212, 230)" d="M 64.8,223.3 C 64.62,221.9 64.63,220.35 64.17,218.96 63.91,218.21 62.89,217.36 62.13,217.26 61.55,217.19 60.3,218.21 60.26,218.8 60.09,221.94 60.11,225.09 60.31,228.23 60.35,228.76 61.67,229.7 62.26,229.6 63.01,229.47 63.96,228.59 64.2,227.84 64.63,226.44 64.61,224.9 64.8,223.3 Z M 68.5,223.4 C 67.8,225.59 67.56,227.95 66.36,229.62 65.42,230.92 63.35,231.95 61.71,232.06 59.12,232.24 57.49,230.06 56.89,227.86 55.86,224.08 55.69,220.09 58.15,216.73 58.98,215.58 60.78,214.54 62.14,214.53 63.54,214.51 65.53,215.47 66.23,216.62 67.4,218.56 67.75,220.99 68.5,223.4 Z M 68.5,223.4" />
        <path id="canvas1-canvas4bezier43" stroke="none" fill="rgb(200, 212, 230)" d="M 281,118.58 C 280.95,118.58 280.9,118.58 280.85,118.59 280.92,120 280.73,121.49 281.15,122.79 281.42,123.59 282.55,124.43 283.42,124.59 283.93,124.67 285.16,123.48 285.21,122.8 285.43,120 285.46,117.17 285.23,114.38 285.17,113.64 283.96,113 283.27,112.32 282.52,113.08 281.38,113.72 281.1,114.62 280.72,115.84 281,117.25 281,118.58 Z M 289.17,118.4 C 288.91,120.25 288.81,122.08 288.37,123.82 287.78,126.16 286.04,127.33 283.67,127.51 281.24,127.7 279.57,126.71 278.76,124.31 277.42,120.33 277.49,116.4 278.86,112.44 279.73,109.93 281.61,109.4 283.96,109.57 286.23,109.74 287.68,111.05 288.29,113.07 288.81,114.78 288.9,116.62 289.17,118.4 Z M 289.17,118.4" />
        <path id="canvas1-canvas4bezier44" stroke="none" fill="rgb(200, 212, 230)" d="M 433.87,250.06 C 433.79,248.43 433.94,246.87 433.55,245.47 433.32,244.64 432.25,243.56 431.5,243.51 430.82,243.47 429.5,244.63 429.44,245.33 429.21,248.2 429.23,251.1 429.45,253.97 429.51,254.66 430.8,255.87 431.31,255.76 432.16,255.59 433.21,254.7 433.51,253.86 433.95,252.67 433.79,251.25 433.87,250.06 Z M 425.61,249.7 C 425.82,248.07 425.83,246.39 426.26,244.83 427.2,241.39 429.41,239.9 432.74,240.79 433.9,241.1 435.1,242.47 435.65,243.65 437.71,248.12 437.45,252.65 434.91,256.88 433.4,259.41 430.42,259.22 428.19,257.34 425.62,255.17 425.75,252.52 425.61,249.7 Z M 425.61,249.7" />
        <path id="canvas1-canvas4bezier45" stroke="none" fill="rgb(200, 212, 230)" d="M 70.03,198.01 C 69.94,196.97 70.05,195.34 69.62,193.86 69.34,192.93 68.26,192.24 67.54,191.45 66.85,192.29 65.64,193.08 65.56,193.97 65.31,196.76 65.31,199.6 65.59,202.38 65.67,203.17 67.03,203.83 67.8,204.56 68.45,203.79 69.39,203.13 69.68,202.25 70.06,201.1 69.91,199.79 70.03,198.01 Z M 73.53,197.19 C 73.31,200.96 73.36,203.86 70.68,205.88 67.78,208.07 64.65,207.25 63.06,203.91 61.03,199.61 61.53,195.42 63.5,191.34 64.37,189.53 66.1,188.94 68.12,189.16 70.29,189.39 71.86,190.53 72.54,192.51 73.15,194.27 73.33,196.18 73.53,197.19 Z M 73.53,197.19" />
        <path id="canvas1-canvas4bezier46" stroke="none" fill="rgb(200, 212, 230)" d="M 121.49,171.67 C 121.31,170.29 121.23,168.63 120.83,167.04 120.67,166.39 119.86,165.5 119.31,165.47 118.77,165.44 117.94,166.25 117.64,166.89 116.11,170.16 116.22,173.52 117.58,176.8 117.84,177.42 118.75,178.18 119.32,178.15 119.91,178.12 120.78,177.27 120.93,176.64 121.29,175.13 121.31,173.53 121.49,171.67 Z M 113.62,171.81 C 113.81,170.25 113.87,168.92 114.15,167.63 114.97,163.81 115.95,163.05 119.69,163.17 122.62,163.26 124.12,164.63 124.41,168.08 124.65,170.84 124.59,173.65 124.4,176.42 124.23,178.81 121.89,180.67 119.43,180.74 116.62,180.82 114.83,179.48 114.3,176.74 113.98,175.05 113.83,173.32 113.62,171.81 Z M 113.62,171.81" />
        <path id="canvas1-canvas4bezier47" stroke="none" fill="rgb(200, 212, 230)" d="M 330.29,197.42 C 330.44,199.59 330.38,201.21 330.74,202.71 330.91,203.42 331.84,204.23 332.57,204.41 333.11,204.55 334.45,203.76 334.47,203.35 334.59,199.85 334.55,196.33 334.38,192.83 334.36,192.34 333.32,191.48 332.85,191.54 332.18,191.62 331.23,192.3 331.06,192.91 330.59,194.55 330.46,196.29 330.29,197.42 Z M 338.66,198.15 C 338.67,201.36 338.34,204.27 335.31,206.22 332.74,207.87 329.68,207.07 328.37,204.26 326.35,199.94 326.7,195.59 328.54,191.38 329.45,189.3 331.69,188.57 333.6,189.3 335.25,189.92 336.92,191.35 337.79,192.87 338.62,194.33 338.41,196.37 338.66,198.15 Z M 338.66,198.15" />
        <path id="canvas1-canvas4bezier48" stroke="none" fill="rgb(200, 212, 230)" d="M 149.82,171.59 C 149.61,170.23 149.51,168.55 149.03,166.99 148.83,166.31 147.86,165.45 147.23,165.44 146.6,165.43 145.44,166.35 145.4,166.92 145.19,170.19 145.13,173.48 145.3,176.75 145.32,177.32 146.66,178.19 147.43,178.23 148.01,178.26 148.97,177.26 149.16,176.55 149.58,175.06 149.6,173.46 149.82,171.59 Z M 153.44,171.73 C 152.81,173.87 152.3,176.07 151.49,178.15 150.7,180.19 148.84,180.81 146.81,180.7 144.38,180.57 142.61,178.94 142.03,176.91 140.95,173.17 140.66,169.3 142.77,165.61 144.13,163.24 146.17,162.87 148.5,163.2 150.76,163.51 151.78,165.29 152.4,167.18 152.87,168.57 152.91,170.09 153.14,171.56 153.24,171.61 153.34,171.67 153.44,171.73 Z M 153.44,171.73" />
        <path id="canvas1-canvas4bezier49" stroke="none" fill="rgb(200, 212, 230)" d="M 93.32,198.17 C 93.36,198.18 93.41,198.18 93.45,198.18 93.45,198.6 93.43,199.01 93.46,199.42 93.59,201.33 92.92,203.69 95.45,204.47 96.98,204.94 98.19,202.77 98.18,199.41 98.18,197.37 97.99,195.29 97.51,193.31 97.34,192.57 96.13,192.08 95.39,191.48 94.84,192.15 94,192.76 93.82,193.52 93.46,195.02 93.46,196.62 93.32,198.17 Z M 101.24,197.59 C 100.91,199.87 100.83,201.71 100.35,203.44 99.76,205.63 97.19,207.45 95.38,207.3 93.4,207.14 90.46,204.75 90.4,202.73 90.31,199.31 90.55,195.87 90.8,192.45 90.97,190.01 93.07,189.57 94.9,189.22 96.99,188.82 99.07,189.31 99.86,191.52 100.6,193.58 100.85,195.81 101.24,197.59 Z M 101.24,197.59" />
        <path id="canvas1-canvas4bezier50" stroke="none" fill="rgb(200, 212, 230)" d="M 53.34,249.61 C 53.49,251.05 53.47,252.58 53.85,254 54.05,254.71 55.02,255.77 55.55,255.72 56.36,255.65 57.7,254.79 57.75,254.19 57.98,251.17 57.99,248.11 57.77,245.08 57.72,244.47 56.37,243.5 55.64,243.51 54.99,243.52 54.05,244.6 53.82,245.37 53.42,246.69 53.48,248.15 53.34,249.61 Z M 61.32,249.08 C 60.98,251.41 60.89,253.25 60.42,254.98 59.77,257.32 58.17,258.9 55.6,258.76 53.12,258.63 51.39,257.07 50.78,254.76 49.74,250.8 49.61,246.75 51.33,242.9 52.23,240.88 54.17,240.67 56.13,240.66 57.95,240.65 59.46,241.14 59.96,243.08 60.51,245.22 60.94,247.38 61.32,249.08 Z M 61.32,249.08" />
        <path id="canvas1-canvas4bezier51" stroke="none" fill="rgb(200, 212, 230)" d="M 358.92,171.63 C 358.82,170.54 358.88,168.83 358.43,167.27 358.21,166.48 357.11,165.6 356.3,165.47 355.81,165.4 354.64,166.66 354.59,167.38 354.38,170.34 354.35,173.34 354.57,176.3 354.62,177 355.93,178.16 356.58,178.11 357.33,178.05 358.34,176.99 358.6,176.17 358.99,174.94 358.82,173.54 358.92,171.63 Z M 350.62,171.97 C 350.84,169.24 350.57,166.43 352.88,164.36 355.84,161.71 359.85,162.91 361.21,166.61 362.45,170.01 362.66,173.28 361.45,176.73 360.61,179.14 358.73,180.85 356.44,180.77 353.93,180.68 351.75,178.86 351.27,176.36 350.98,174.91 350.83,173.43 350.62,171.97 Z M 350.62,171.97" />
        <path id="canvas1-canvas4bezier52" stroke="none" fill="rgb(200, 212, 230)" d="M 199.58,146.13 C 199.38,144.01 199.41,142.4 199.01,140.9 198.83,140.22 197.89,139.44 197.18,139.3 196.61,139.19 195.3,139.97 195.29,140.38 195.2,143.87 195.27,147.37 195.46,150.86 195.49,151.32 196.48,152.05 197.04,152.06 197.59,152.07 198.5,151.43 198.66,150.9 199.14,149.18 199.36,147.38 199.58,146.13 Z M 203.41,145.97 C 202.66,148.1 202.13,150.34 201.1,152.33 199.72,155 195.12,155.2 193.18,152.87 190.99,150.24 190.55,142.88 192.31,139.86 193.49,137.83 195.08,136.53 197.51,136.82 200.02,137.12 201.91,139.02 202.44,141.64 202.72,143 202.88,144.4 203.1,145.78 203.2,145.84 203.3,145.91 203.41,145.97 Z M 203.41,145.97" />
        <path id="canvas1-canvas4bezier53" stroke="none" fill="rgb(200, 212, 230)" d="M 428.11,223.65 C 427.74,221.89 427.57,220.24 427,218.74 426.74,218.08 425.62,217.28 424.99,217.36 424.38,217.43 423.46,218.52 423.43,219.21 423.28,222.15 423.35,225.12 423.51,228.07 423.54,228.62 424.34,229.54 424.82,229.56 425.48,229.59 426.56,229.08 426.78,228.53 427.41,226.96 427.7,225.26 428.11,223.65 Z M 419.6,223.43 C 419.82,221.8 419.89,220.14 420.3,218.56 421.06,215.63 422.72,214.31 425.23,214.35 428.04,214.4 429.56,215.35 430.08,218.6 430.58,221.72 430.55,225 430.21,228.15 429.93,230.79 427.58,232.33 425.08,232.23 422.39,232.12 420.16,230.03 419.85,227.19 419.72,225.96 419.83,224.7 419.83,223.46 419.75,223.45 419.68,223.44 419.6,223.43 Z M 419.6,223.43" />
        <path id="canvas1-canvas4bezier54" stroke="none" fill="rgb(200, 212, 230)" d="M 191.51,171.84 C 191.28,170.15 191.12,168.26 190.68,166.44 190.57,165.96 189.61,165.45 189.01,165.41 188.54,165.37 187.76,165.92 187.56,166.4 186.07,169.86 185.76,173.39 187.49,176.85 187.79,177.46 188.66,178.17 189.22,178.13 189.8,178.1 190.65,177.3 190.82,176.68 191.22,175.19 191.28,173.61 191.51,171.84 Z M 188.72,162.59 C 192.27,163.18 193.35,164 194.14,167.07 195.03,170.49 194.95,173.88 194.03,177.3 193.36,179.77 191.34,180.46 189.33,180.63 187.35,180.81 185.29,180.17 184.57,177.9 183.23,173.69 183.2,169.38 184.88,165.33 185.39,164.1 187.4,163.49 188.72,162.59 Z M 188.72,162.59" />
        <path id="canvas1-canvas4bezier55" stroke="none" fill="rgb(200, 212, 230)" d="M 171.47,145.98 C 171.24,144.13 171.17,142.46 170.77,140.87 170.62,140.24 169.81,139.5 169.18,139.35 168.72,139.25 167.75,139.92 167.53,140.46 166.09,143.95 165.76,147.5 167.72,150.95 168.01,151.45 168.76,152.11 169.13,152.02 169.72,151.88 170.47,151.24 170.63,150.67 171.06,149.09 171.23,147.44 171.47,145.98 Z M 163.51,145.53 C 163.76,143.73 163.91,141.91 164.3,140.15 164.87,137.58 167.03,136.75 169.21,136.87 171.31,136.99 173.72,137.68 173.98,140.38 174.28,143.57 174.56,146.84 174.19,150 173.77,153.62 172.12,154.53 168.23,154.33 165.65,154.2 164.12,152.49 163.82,149.28 163.71,148.04 163.8,146.79 163.8,145.55 163.71,145.54 163.61,145.54 163.51,145.53 Z M 163.51,145.53" />
        <path id="canvas1-canvas4bezier56" stroke="none" fill="rgb(200, 212, 230)" d="M 178.21,171.72 C 177.69,169.82 177.3,168 176.64,166.29 176.46,165.81 175.47,165.4 174.86,165.41 174.4,165.42 173.56,166.13 173.55,166.55 173.43,169.98 173.4,173.42 173.52,176.86 173.53,177.34 174.43,178.11 174.97,178.16 175.54,178.21 176.52,177.68 176.7,177.17 177.34,175.44 177.71,173.61 178.21,171.72 Z M 169.54,173.34 C 169.68,171.37 169.62,169.36 170,167.44 170.67,164.07 171.92,163.19 175.31,163.17 178.37,163.14 179.62,163.88 180.12,167.26 180.57,170.31 180.53,173.52 180.17,176.59 179.83,179.42 177.49,180.93 174.88,180.72 172.05,180.49 170.13,178.66 169.83,175.84 169.74,175.02 169.81,174.18 169.81,173.35 L 169.54,173.34 Z M 169.54,173.34" />
        <path id="canvas1-canvas4bezier57" stroke="none" fill="rgb(200, 212, 230)" d="M 139.03,145.43 C 139.03,146.84 138.77,148.31 139.11,149.63 139.36,150.57 140.4,151.29 141.09,152.11 141.82,151.32 143.1,150.58 143.18,149.72 143.45,146.95 143.44,144.12 143.17,141.34 143.1,140.58 141.75,139.95 140.98,139.25 140.33,139.99 139.33,140.63 139.12,141.47 138.8,142.72 139.03,144.1 139.03,145.43 Z M 146.65,145.81 C 146.42,147.29 146.27,148.77 145.94,150.21 145.18,153.57 144.22,154.34 141.12,154.33 138.15,154.32 136.21,153.07 135.91,150.2 135.58,147.04 135.67,143.79 135.92,140.61 136.09,138.59 139,136.72 141.17,136.77 143.75,136.83 145.43,138.13 145.93,140.63 146.27,142.33 146.41,144.06 146.65,145.81 Z M 146.65,145.81" />
        <path id="canvas1-canvas4bezier58" stroke="none" fill="rgb(200, 212, 230)" d="M 93.05,223.5 C 92.7,221.88 92.57,220.3 91.98,218.91 91.68,218.18 90.6,217.41 89.83,217.37 89.33,217.35 88.34,218.58 88.31,219.28 88.17,222.15 88.22,225.04 88.41,227.91 88.46,228.52 89.37,229.57 89.85,229.56 90.56,229.54 91.6,228.88 91.86,228.23 92.46,226.74 92.68,225.09 93.05,223.5 Z M 95.68,223.88 C 95.51,225.08 95.39,226.99 94.94,228.81 94.33,231.27 92.32,232.13 90.05,232.2 87.63,232.27 85.36,230.61 85.09,228.18 84.74,225.17 84.65,222.05 85.03,219.05 85.43,215.8 87.61,214.21 90.39,214.37 93.34,214.54 94.93,216.12 95.41,219.48 95.59,220.71 95.57,221.96 95.68,223.88 Z M 95.68,223.88" />
        <path id="canvas1-canvas4bezier59" stroke="none" fill="rgb(200, 212, 230)" d="M 305.83,145.71 C 305.93,147 305.77,148.58 306.25,149.93 306.57,150.82 307.8,151.39 308.63,152.1 309.19,151.36 310.17,150.65 310.22,149.87 310.41,147.01 310.41,144.13 310.21,141.27 310.16,140.56 308.86,139.27 308.57,139.38 307.64,139.73 306.51,140.48 306.2,141.34 305.75,142.61 305.93,144.11 305.83,145.71 Z M 314.14,145.77 C 313.92,147.32 313.8,148.8 313.49,150.24 312.77,153.56 311.42,154.46 307.58,154.33 305.28,154.26 303.6,152.81 303.37,150.03 303.12,147.03 303.15,143.97 303.37,140.95 303.55,138.47 305.88,136.74 308.4,136.75 310.62,136.76 313.05,138.59 313.44,140.68 313.76,142.37 313.92,144.09 314.14,145.77 Z M 314.14,145.77" />
        <path id="canvas1-canvas4bezier60" stroke="none" fill="rgb(200, 212, 230)" d="M 339.03,145.99 C 338.76,144.05 338.68,142.3 338.2,140.66 338.02,140.05 336.94,139.46 336.2,139.34 335.72,139.27 334.63,140.06 334.61,140.48 334.52,143.89 334.55,147.32 334.72,150.73 334.74,151.22 335.7,152.06 336.19,152.04 336.85,152.01 337.86,151.42 338.05,150.85 338.57,149.24 338.75,147.51 339.03,145.99 Z M 330.58,145.74 C 330.9,142.96 330.34,140.08 333.08,138.03 336.23,135.67 339.96,136.77 341.11,140.53 342.25,144.21 342.16,147.86 340.88,151.47 340.18,153.47 338.83,154.45 336.54,154.39 334.15,154.32 332.19,153.57 331.41,151.34 330.79,149.59 330.83,147.61 330.58,145.74 Z M 330.58,145.74" />
        <path id="canvas1-canvas4bezier61" stroke="none" fill="rgb(200, 212, 230)" d="M 115.49,145.95 C 115.3,144.03 115.27,142.35 114.89,140.76 114.75,140.16 113.82,139.41 113.2,139.35 112.55,139.3 111.25,139.97 111.24,140.37 111.11,143.8 111.14,147.25 111.32,150.68 111.35,151.19 112.48,152.01 113.09,152 113.68,152 114.6,151.2 114.77,150.58 115.2,149.01 115.3,147.34 115.49,145.95 Z M 119.01,146.1 C 118.77,147.53 118.59,149.1 118.22,150.62 117.57,153.32 115.89,154.34 112.65,154.35 110.04,154.36 108.47,153.07 108.33,150.56 108.14,147.21 108.09,143.82 108.38,140.48 108.58,138.12 110.64,136.74 112.98,136.75 115.34,136.76 118.02,138.68 118.39,140.78 118.69,142.49 118.8,144.23 119.01,146.1 Z M 119.01,146.1" />
        <path id="canvas1-canvas4bezier62" stroke="none" fill="rgb(200, 212, 230)" d="M 93.97,171.69 C 93.75,170.17 93.67,168.49 93.2,166.93 93,166.27 91.97,165.45 91.33,165.45 90.71,165.47 89.61,166.42 89.57,167 89.39,170.2 89.38,173.42 89.55,176.62 89.58,177.2 90.77,178.22 91.29,178.15 92.04,178.04 93.05,177.22 93.27,176.5 93.73,175.02 93.75,173.41 93.97,171.69 Z M 85.66,171.6 C 85.82,170.33 86.01,168.53 86.3,166.74 86.7,164.28 88.53,163.39 90.7,163.2 93.83,162.92 95.08,163.72 95.93,166.2 97.11,169.67 97.17,173.18 96.23,176.71 95.55,179.27 93.63,180.84 91.26,180.74 89.49,180.67 86.27,178.98 86.02,176.61 85.86,175.13 85.8,173.64 85.66,171.6 Z M 85.66,171.6" />
        <path id="canvas1-canvas4bezier63" stroke="none" fill="rgb(200, 212, 230)" d="M 318.42,171.65 C 318.33,170.53 318.44,168.89 317.96,167.45 317.67,166.59 316.44,166.04 315.63,165.36 315.08,166.08 314.1,166.78 314.05,167.54 313.86,170.4 313.83,173.29 314.04,176.14 314.1,176.89 315.25,177.56 315.9,178.26 316.66,177.53 317.78,176.93 318.1,176.03 318.53,174.84 318.33,173.42 318.42,171.65 Z M 310.14,171.61 C 310.35,170.03 310.46,168.29 310.83,166.61 311.33,164.41 312.96,163.41 315.12,163.17 317.43,162.92 319.73,163.27 320.34,165.78 321,168.54 321.01,171.45 321.26,174.3 321.29,174.69 321.05,175.09 320.99,175.5 320.45,179.17 318.98,180.7 315.92,180.75 313.42,180.79 311.26,178.88 310.66,175.94 310.38,174.58 310.32,173.17 310.14,171.61 Z M 310.14,171.61" />
        <path id="canvas1-canvas4bezier64" stroke="none" fill="rgb(200, 212, 230)" d="M 375.77,145.82 C 375.85,146.99 375.68,148.48 376.12,149.76 376.44,150.69 377.58,151.35 378.35,152.12 378.99,151.35 380.11,150.63 380.17,149.81 380.41,147.03 380.41,144.21 380.18,141.43 380.12,140.66 378.99,139.97 378.35,139.25 377.57,140.04 376.44,140.7 376.09,141.65 375.66,142.83 375.86,144.26 375.77,145.82 Z M 384.13,145.89 C 383.92,147.19 383.8,148.51 383.49,149.79 382.57,153.67 381.35,154.69 377.4,154.23 376.15,154.09 374.43,153.05 373.98,151.97 372.35,148.14 372.45,144.09 373.59,140.08 374.31,137.56 376.32,136.85 378.57,136.8 380.89,136.76 383.09,138.75 383.45,140.95 383.72,142.57 383.9,144.21 384.13,145.89 Z M 384.13,145.89" />
        <path id="canvas1-canvas4bezier65" stroke="none" fill="rgb(200, 212, 230)" d="M 185.53,145.69 C 185.27,143.93 185.13,142.19 184.7,140.52 184.57,140 183.64,139.33 183.1,139.35 182.41,139.37 181.17,140.01 181.16,140.41 181.03,143.85 181.06,147.3 181.25,150.73 181.27,151.23 182.42,152.04 183.03,152.02 183.62,152 184.51,151.2 184.69,150.57 185.14,149 185.27,147.34 185.53,145.69 Z M 182.9,154.33 C 180.34,154.52 178.54,153.37 178.33,150.85 178.04,147.52 177.93,144.11 178.33,140.81 178.67,137.93 180.65,136.62 183.11,136.75 185.39,136.86 188.1,138.79 188.27,140.98 188.51,144.07 188.54,147.25 188.13,150.31 187.74,153.26 185.95,154.35 182.9,154.33 Z M 182.9,154.33" />
        <path id="canvas1-canvas4bezier66" stroke="none" fill="rgb(200, 212, 230)" d="M 280.43,92.57 C 280.29,91.01 280.33,89.4 279.95,87.9 279.77,87.2 278.76,86.19 278.18,86.23 277.4,86.28 276.09,87.17 276.05,87.76 275.84,90.87 275.87,94.01 276.07,97.13 276.11,97.67 277.35,98.53 278.03,98.52 278.69,98.51 279.72,97.68 279.91,97.02 280.31,95.61 280.28,94.08 280.43,92.57 Z M 272.44,92.47 C 272.89,90.31 273.24,88.13 273.81,86.01 274.24,84.42 275.12,83.58 277.11,84.01 282.58,85.18 282.88,83.68 283.69,90.79 284.06,94.13 284.2,97.7 281.01,100.3 279.34,101.65 276.28,101.81 274.82,100.23 272.78,98.02 272.65,95.32 272.44,92.47 Z M 272.44,92.47" />
        <path id="canvas1-canvas4bezier67" stroke="none" fill="rgb(200, 212, 230)" d="M 330,223.19 C 329.77,221.72 329.71,220.13 329.24,218.67 329.01,217.96 328.03,217.04 327.4,217.04 326.72,217.04 325.49,217.98 325.46,218.57 325.26,221.81 325.26,225.09 325.46,228.33 325.49,228.84 326.9,229.6 327.67,229.6 328.24,229.59 329.11,228.62 329.3,227.93 329.71,226.44 329.77,224.85 330,223.19 Z M 333.66,223.72 C 332.83,225.95 332.3,228.36 331.09,230.35 329.84,232.4 327.54,232.75 325.34,231.74 323.36,230.84 322.45,229.36 322.71,226.95 322.89,225.22 322.43,223.36 321.99,221.63 321.32,219.06 322.62,216.99 324.22,215.7 325.44,214.72 328.16,214.24 329.39,214.95 331,215.89 332,218.13 332.88,220 333.33,220.95 332.96,222.29 332.96,223.46 L 333.66,223.72 Z M 333.66,223.72" />
        <path id="canvas1-canvas4bezier68" stroke="none" fill="rgb(200, 212, 230)" d="M 101.51,145.98 C 101.26,144.02 101.15,142.29 100.76,140.62 100.63,140.08 99.82,139.46 99.23,139.34 98.78,139.26 97.88,139.78 97.7,140.24 96.27,143.81 95.79,147.43 97.84,150.95 98.13,151.44 98.8,152.05 99.25,152.02 99.74,151.99 100.48,151.35 100.61,150.85 101.04,149.2 101.25,147.49 101.51,145.98 Z M 93.6,145.97 C 92.85,141.34 96.34,139.44 99.24,137.33 100.63,136.31 103.37,137.94 104.06,140.09 105.33,144.09 105.15,148.16 103.73,152.02 102.84,154.43 100.41,154.44 98.17,154.34 96.15,154.26 94.85,153.19 94.39,151.34 93.95,149.59 93.85,147.77 93.6,145.97 Z M 93.6,145.97" />
        <path id="canvas1-canvas4bezier69" stroke="none" fill="rgb(200, 212, 230)" d="M 60.8,280.27 C 60.8,277.35 60.97,274.76 60.71,272.22 60.61,271.22 59.65,269.6 58.93,269.52 57.52,269.35 56.38,270.36 56.39,272.12 56.41,274.43 56.12,276.76 56.43,279.02 56.6,280.27 57.7,281.4 58.39,282.59 58.63,282.49 58.87,282.4 59.11,282.31 59,283.08 58.88,283.85 58.76,284.69 56.78,284.9 55.48,284.26 54.64,282.54 52.66,278.51 52.81,274.34 54.07,270.22 54.98,267.27 56.5,266.44 59.26,266.67 61.52,266.86 63.42,268.61 63.92,271.11 64.2,272.48 64.28,273.9 64.45,275.29 64.77,277.88 63.38,279.26 60.8,280.27 Z M 60.8,280.27" />
        <path id="canvas1-canvas4bezier70" stroke="none" fill="rgb(16, 67, 145)" d="M 341.67,324.44 C 342.38,322.37 343.09,320.3 343.79,318.22 345.79,312.35 347.79,306.48 349.79,300.61 350.62,298.2 352.44,299.44 354.3,299.35 353.71,301.38 353.24,303.19 352.65,304.96 351.13,309.49 349.57,314.01 347.98,318.53 347.33,320.38 346.84,322.4 345.72,323.95 345.11,324.78 343.34,324.77 342.09,325.15 341.95,324.91 341.81,324.68 341.67,324.44 Z M 341.67,324.44" />
        <path id="canvas1-canvas4bezier71" stroke="none" fill="rgb(200, 212, 230)" d="M 195.51,86.23 C 197.79,84.62 198.87,84.8 199.19,87.47 199.58,90.69 199.6,94.04 199.15,97.25 198.71,100.35 196.34,101.63 193.1,101.33 191.09,101.15 189.07,98.75 188.84,95.9 188.67,93.67 188.49,91.35 188.93,89.2 189.17,88.06 190.73,87.2 191.7,86.21 191.87,86.39 192.03,86.57 192.2,86.75 191.95,88.89 191.51,91.04 191.53,93.18 191.53,94.61 192.09,96.08 192.62,97.45 192.83,97.98 193.75,98.64 194.21,98.56 194.87,98.44 195.86,97.74 195.94,97.19 196.42,93.6 196.8,89.99 195.51,86.23 Z M 195.51,86.23" />
        <path id="canvas1-canvas4bezier72" stroke="none" fill="rgb(200, 212, 230)" d="M 212.72,125.59 C 212.24,126.04 211.47,127.25 210.9,127.16 210.03,127.03 209.07,126.14 208.57,125.31 205.84,120.82 206.03,116.26 208.53,111.71 209.69,109.6 213.29,108.69 215.18,110.17 217.74,112.19 218.24,115.13 218.36,118.14 218.38,118.55 217.96,119.01 217.66,119.38 216.81,120.42 215.91,121.42 214.79,122.71 214.79,120.44 214.85,118.23 214.77,116.03 214.73,115.07 214.62,113.98 214.13,113.21 213.8,112.68 212.74,112.34 212.04,112.39 211.49,112.42 210.56,113.17 210.54,113.63 210.4,116.82 210.33,120.03 210.54,123.22 210.59,123.96 211.8,124.63 212.72,125.59 Z M 212.72,125.59" />
        <path id="canvas1-canvas4bezier73" stroke="none" fill="rgb(16, 67, 145)" d="M 355.47,322.16 C 354.64,318.91 355.2,316.86 358.3,315.98 359.38,315.68 360.31,314.86 361.98,313.89 360.46,312.91 359.45,311.89 358.24,311.54 355.08,310.63 354.68,308.56 355.48,305.46 360.26,308.17 364.95,310.84 370.14,313.78 365.02,316.71 360.3,319.4 355.47,322.16 Z M 355.47,322.16" />
        <path id="canvas1-canvas4bezier74" stroke="none" fill="rgb(200, 212, 230)" d="M 39.25,249.57 C 39.48,251.19 39.58,252.93 40.03,254.57 40.19,255.15 41.23,255.86 41.85,255.85 42.48,255.84 43.61,255.04 43.64,254.54 43.8,251.28 43.8,248.01 43.64,244.75 43.62,244.26 42.47,243.42 41.9,243.46 41.2,243.51 40.16,244.2 39.96,244.83 39.51,246.3 39.47,247.9 39.25,249.57 Z M 47.35,249.56 C 48.07,252.65 46.62,255.06 44.94,257.37 43.81,258.93 41.2,259.49 39.61,258.18 38.26,257.06 36.41,256.16 37.35,253.42 38.44,250.27 38.59,246.8 39.34,243.5 39.57,242.49 40.25,241 41,240.8 42.75,240.33 44.85,240.45 45.72,242.5 46.66,244.72 47.25,247.1 48,249.41 47.78,249.46 47.56,249.51 47.35,249.56 Z M 47.35,249.56" />
        <path id="canvas1-canvas4bezier75" stroke="none" fill="rgb(16, 67, 145)" d="M 117.68,313.84 C 119.34,314.8 120.29,315.44 121.31,315.93 124.95,317.67 124.96,317.65 124.24,322.09 119.43,319.36 114.74,316.69 109.64,313.79 114.7,310.91 119.38,308.25 124.13,305.55 125.1,309.58 124.94,309.89 121.65,311.48 120.49,312.03 119.43,312.79 117.68,313.84 Z M 117.68,313.84" />
        <path id="canvas1-canvas4bezier76" stroke="none" fill="rgb(200, 212, 230)" d="M 294.3,88.37 C 297.72,88.49 298.12,88.72 297.9,91.71 297.74,93.87 297.24,96.07 296.49,98.1 295.63,100.42 293.77,102.26 291.19,101.21 289.48,100.52 287.39,98.83 287.02,97.23 286.34,94.28 286.71,91.06 286.9,87.96 286.92,87.5 288.31,87.13 289.06,86.71 289.34,87.38 289.84,88.05 289.86,88.73 289.97,91.28 289.73,93.85 290.04,96.36 290.14,97.2 291.5,97.89 292.28,98.66 292.95,97.78 294.11,96.96 294.21,96.03 294.48,93.5 294.3,90.93 294.3,88.37 Z M 294.3,88.37" />
        <path id="canvas1-canvas4bezier77" stroke="none" fill="rgb(200, 212, 230)" d="M 354.13,115.03 C 358.37,116.91 358,120.33 356.6,123.55 355.69,125.64 354.82,127.58 351.96,127.65 349.09,127.72 346.82,125.05 346.46,122.85 346,120.03 346.29,117.08 346.4,114.19 346.42,113.52 346.94,112.77 347.44,112.27 347.8,111.91 348.74,111.6 349.03,111.81 349.49,112.14 349.85,112.93 349.84,113.52 349.8,116.4 349.43,119.29 349.58,122.16 349.62,123.05 350.77,124.3 351.69,124.64 353.24,125.21 353.99,123.79 354.08,122.54 354.26,120.14 354.13,117.73 354.13,115.03 Z M 354.13,115.03" />
        <path id="canvas1-canvas4bezier78" stroke="none" fill="rgb(16, 67, 145)" d="M 213.79,302.16 C 213.79,308.24 214.06,314.23 213.67,320.18 213.5,322.85 211.01,321.15 209.38,321.43 L 209.38,302.16 213.79,302.16 Z M 213.79,302.16" />
        <path id="canvas1-canvas4bezier79" stroke="none" fill="rgb(200, 212, 230)" d="M 286.39,148.13 C 284.08,148.4 283.19,148.11 283.24,146.29 283.29,144.65 283.22,142.91 282.68,141.39 282.37,140.49 281.04,139.96 280.17,139.26 279.6,140.02 278.77,140.71 278.52,141.57 278.19,142.74 278.12,144.06 278.26,145.27 278.52,147.56 277.69,148.91 275.1,149.35 274.48,145.61 274.27,141.79 276.47,138.52 277.99,136.26 283.71,135.83 284.76,139.34 285.6,142.11 285.85,145.05 286.39,148.13 Z M 286.39,148.13" />
        <path id="canvas1-canvas4bezier80" stroke="none" fill="rgb(200, 212, 230)" d="M 294.33,141.7 C 292.6,142.43 291.43,142.92 290.02,143.52 289.93,142.82 289.62,142.01 289.84,141.82 291.84,140.06 293.92,138.39 296.05,136.79 296.14,136.71 297.36,137.57 297.37,138.01 297.46,143.31 297.43,148.62 297.43,154.18 296.37,154.23 295.51,154.28 294.33,154.34 L 294.33,141.7 Z M 294.33,141.7" />
        <path id="canvas1-canvas4bezier81" stroke="none" fill="rgb(200, 212, 230)" d="M 157.95,154.23 L 154.84,154.23 154.84,141.84 C 153.2,142.52 151.94,143.04 150.57,143.61 150,141.75 150.32,140.77 152.16,140.05 153.38,139.57 154.19,138.16 155.3,137.33 155.82,136.95 156.65,136.82 157.3,136.89 157.56,136.91 157.92,137.78 157.93,138.27 157.97,143.49 157.95,148.72 157.95,154.23 Z M 157.95,154.23" />
        <path id="canvas1-canvas4bezier82" stroke="none" fill="rgb(200, 212, 230)" d="M 309.8,127.1 L 309.8,114.13 C 308.16,115.07 306.88,115.8 305.53,116.58 305,114.74 305.35,113.76 307.01,113 308.11,112.5 308.79,111.15 309.79,110.34 310.35,109.88 311.21,109.49 311.88,109.56 312.28,109.59 312.88,110.58 312.89,111.15 312.96,116.39 312.93,121.63 312.93,127.1 L 309.8,127.1 Z M 309.8,127.1" />
        <path id="canvas1-canvas4bezier83" stroke="none" fill="rgb(200, 212, 230)" d="M 173.45,127.23 L 170.37,127.23 170.37,114.27 C 168.68,115.24 167.41,115.97 166.04,116.76 165.53,114.9 165.73,113.82 167.49,113.14 168.46,112.76 169.09,111.58 169.99,110.91 170.77,110.33 171.71,109.95 172.58,109.49 172.87,110.25 173.4,111.01 173.41,111.78 173.49,116.83 173.45,121.88 173.45,127.23 Z M 173.45,127.23" />
        <path id="canvas1-canvas4bezier84" stroke="none" fill="rgb(200, 212, 230)" d="M 345.6,143.68 C 345.2,141.66 345.68,140.76 347.2,140.08 348.32,139.58 349.12,138.38 350.16,137.64 350.78,137.2 351.58,136.92 352.33,136.85 352.58,136.83 353.16,137.67 353.17,138.12 353.23,143.43 353.21,148.74 353.21,154.01 349.9,154.59 349.88,154.58 349.87,151.57 349.87,148.44 349.87,145.3 349.87,141.99 348.32,142.61 347.06,143.11 345.6,143.68 Z M 345.6,143.68" />
        <path id="canvas1-canvas4bezier85" stroke="none" fill="rgb(200, 212, 230)" d="M 435.22,271.55 C 433.47,272.69 432.43,273.38 431.21,274.18 430.57,272.2 430.56,271.14 432.47,270.5 433.54,270.14 434.34,268.97 435.28,268.19 436.07,267.53 436.88,266.91 437.69,266.27 437.89,266.46 438.1,266.66 438.31,266.85 L 438.31,284.19 C 437.48,284.25 436.62,284.3 435.22,284.39 L 435.22,271.55 Z M 435.22,271.55" />
        <path id="canvas1-canvas4bezier86" stroke="none" fill="rgb(200, 212, 230)" d="M 47.51,284.24 L 44.52,284.24 44.52,271.66 C 42.81,272.58 41.6,273.23 40.33,273.91 39.27,272.03 40.25,271.18 41.52,270.33 42.52,269.67 43.37,268.81 44.32,268.08 45.15,267.45 46.04,266.88 46.9,266.29 47.1,266.48 47.31,266.68 47.51,266.87 L 47.51,284.24 Z M 47.51,284.24" />
        <path id="canvas1-canvas4bezier87" stroke="none" fill="rgb(200, 212, 230)" d="M 129.95,154.17 L 126.72,154.17 126.72,141.66 C 125.28,142.39 124.24,142.93 123.1,143.52 122.45,141.8 122.79,140.86 124.37,140.04 125.57,139.41 126.4,138.1 127.51,137.25 127.96,136.9 128.76,136.75 129.31,136.88 129.62,136.95 129.92,137.78 129.93,138.27 129.97,143.49 129.95,148.7 129.95,154.17 Z M 129.95,154.17" />
        <path id="canvas1-canvas4bezier88" stroke="none" fill="rgb(200, 212, 230)" d="M 332.81,180.24 L 329.8,180.24 329.8,167.85 C 328.19,168.56 326.94,169.1 325.65,169.66 325.1,166.85 329.67,162.92 332.81,163.46 L 332.81,180.24 Z M 332.81,180.24" />
        <path id="canvas1-canvas4bezier89" stroke="none" fill="rgb(200, 212, 230)" d="M 163.82,180.2 L 160.83,180.2 160.83,167.91 C 159.25,168.67 157.97,169.29 156.62,169.94 156.22,167.35 161.26,163 163.82,163.49 L 163.82,180.2 Z M 163.82,180.2" />
        <path id="canvas1-canvas4bezier90" stroke="none" fill="rgb(200, 212, 230)" d="M 317.62,143.25 C 317.92,142.39 317.99,141.31 318.56,140.73 319.86,139.4 321.38,138.26 322.88,137.15 323.81,136.47 324.91,136.29 324.93,137.91 325,143.29 324.95,148.66 324.95,154 322.55,154.82 321.73,154.11 321.83,151.79 321.97,148.58 321.86,145.37 321.86,141.87 320.45,142.55 319.37,143.07 318.29,143.58 318.07,143.47 317.84,143.36 317.62,143.25 Z M 317.62,143.25" />
        <path id="canvas1-canvas4bezier91" stroke="none" fill="rgb(200, 212, 230)" d="M 78.96,231.51 C 76.4,232.37 75.68,231.5 75.78,229.24 75.92,226.09 75.82,222.93 75.82,219.46 74.3,220.14 73.02,220.72 71.57,221.37 71.21,219.97 71.01,219.18 72.55,218.45 73.88,217.82 74.74,216.29 75.94,215.32 76.56,214.81 77.46,214.65 78.24,214.33 78.48,214.96 78.92,215.59 78.93,216.22 78.98,221.29 78.96,226.36 78.96,231.51 Z M 78.96,231.51" />
        <path id="canvas1-canvas4bezier92" stroke="none" fill="rgb(200, 212, 230)" d="M 299.96,127.18 L 296.88,127.18 296.88,114.11 C 295.36,115.15 294.28,115.89 293.04,116.73 292.59,115.07 292.67,113.98 294.26,113.12 295.22,112.6 295.79,111.42 296.68,110.72 297.4,110.17 298.35,109.91 299.2,109.51 299.45,110.22 299.92,110.92 299.93,111.63 299.99,116.76 299.96,121.9 299.96,127.18 Z M 299.96,127.18" />
        <path id="canvas1-canvas4bezier93" stroke="none" fill="rgb(200, 212, 230)" d="M 104.97,167.94 C 103.23,168.66 101.98,169.17 100.67,169.72 100.41,167.07 105.24,163.02 108.03,163.47 L 108.03,180.17 104.97,180.17 104.97,167.94 Z M 104.97,167.94" />
        <path id="canvas1-canvas4bezier94" stroke="none" fill="rgb(200, 212, 230)" d="M 84.45,189.28 C 84.45,194.68 84.5,199.82 84.38,204.97 84.36,205.5 83.34,206 82.79,206.52 82.29,205.94 81.38,205.39 81.36,204.79 81.23,201.25 81.29,197.71 81.29,193.88 79.75,194.69 78.56,195.33 76.81,196.25 76.94,195.08 76.88,193.92 77.09,193.87 79.99,193.19 80.37,188.63 84.45,189.28 Z M 84.45,189.28" />
        <path id="canvas1-canvas4bezier95" stroke="none" fill="rgb(200, 212, 230)" d="M 419.38,189.24 L 419.38,206.3 C 418.43,206.36 417.51,206.41 416.29,206.49 L 416.29,193.91 C 414.76,194.71 413.57,195.33 411.81,196.26 411.96,195.06 411.93,193.91 412.14,193.86 415.06,193.24 415.48,188.71 419.38,189.24 Z M 419.38,189.24" />
        <path id="canvas1-canvas4bezier96" stroke="none" fill="rgb(200, 212, 230)" d="M 349.33,206.21 C 346.96,207.05 346.16,206.3 346.27,203.96 346.42,200.82 346.31,197.67 346.31,194.14 344.8,194.85 343.6,195.42 341.84,196.25 341.97,195.07 341.94,193.9 342.14,193.86 345.08,193.27 345.53,188.75 349.33,189.25 L 349.33,206.21 Z M 349.33,206.21" />
        <path id="canvas1-canvas4bezier97" stroke="none" fill="rgb(200, 212, 230)" d="M 76.89,180.19 L 76.89,167.89 C 75.44,168.59 74.31,169.13 73.16,169.69 72.66,167.11 76.62,163.27 79.76,163.33 L 79.76,180.19 76.89,180.19 Z M 76.89,180.19" />
        <path id="canvas1-canvas4bezier98" stroke="none" fill="rgb(200, 212, 230)" d="M 344.83,163.39 L 344.83,180.15 341.95,180.15 341.95,167.89 C 340.49,168.59 339.37,169.12 338.2,169.68 337.79,167.18 342.05,163.17 344.83,163.39 Z M 344.83,163.39" />
        <path id="canvas1-canvas4bezier99" stroke="none" fill="rgb(200, 212, 230)" d="M 340.89,231.63 L 340.89,219.42 C 339.34,220.15 338.07,220.74 336.8,221.33 336.61,221.19 336.42,221.04 336.23,220.9 336.53,220.17 336.65,219.29 337.16,218.76 338.32,217.55 339.62,216.46 340.95,215.44 341.61,214.94 342.46,214.69 343.23,214.33 343.56,215.08 344.17,215.82 344.19,216.58 344.29,220.16 344.11,223.74 344.28,227.31 344.39,229.64 343.38,230.87 340.89,231.63 Z M 340.89,231.63" />
        <path id="canvas1-canvas4bezier100" stroke="none" fill="rgb(200, 212, 230)" d="M 301.31,90.11 C 303.7,90.09 304.59,91.06 304.49,93.17 304.44,94.39 304.51,95.72 304.96,96.81 305.29,97.59 306.53,98.67 307.04,98.52 307.91,98.27 308.83,97.27 309.19,96.37 309.56,95.45 309.27,94.26 309.27,93.22 312.74,92.76 313.33,94.88 311.6,97.6 310.62,99.13 310.3,101.26 307.82,101.35 304.56,101.47 301.58,99.02 301.33,95.74 301.2,93.93 301.31,92.1 301.31,90.11 Z M 301.31,90.11" />
        <path id="canvas1-canvas4bezier101" stroke="none" fill="rgb(200, 212, 230)" d="M 340.46,127.19 L 337.74,127.19 337.74,113.89 C 336.05,115.04 334.88,115.84 333.55,116.75 333.04,115 333.19,113.92 334.91,113.04 336.11,112.42 336.93,111.09 338.01,110.19 338.46,109.82 339.24,109.46 339.71,109.61 340.08,109.72 340.42,110.61 340.43,111.16 340.48,116.4 340.46,121.65 340.46,127.19 Z M 340.46,127.19" />
        <path id="canvas1-canvas4bezier102" stroke="none" fill="rgb(200, 212, 230)" d="M 200.96,127.32 C 199.93,127.26 199.23,127.23 198.3,127.18 L 198.3,114.17 C 196.68,115.12 195.46,115.83 194.24,116.55 193.54,114.32 193.6,114.39 195.18,113.22 196.4,112.31 197.42,111.13 198.61,110.18 199.07,109.81 199.78,109.58 200.34,109.63 200.59,109.66 200.93,110.54 200.93,111.03 200.97,116.33 200.96,121.63 200.96,127.32 Z M 200.96,127.32" />
        <path id="canvas1-canvas4bezier103" stroke="none" fill="rgb(200, 212, 230)" d="M 135.8,180.18 L 133.3,180.18 133.3,167.72 C 131.67,168.45 130.37,169.03 129.04,169.63 128.74,167.04 132.96,163.13 135.8,163.37 L 135.8,180.18 Z M 135.8,180.18" />
        <path id="canvas1-canvas4bezier104" stroke="none" fill="rgb(200, 212, 230)" d="M 400.8,180.32 C 399.91,180.27 399.21,180.23 398.27,180.18 L 398.27,167.84 C 396.7,168.53 395.46,169.08 394.2,169.64 393.66,167.2 397.82,163.21 400.8,163.37 L 400.8,180.32 Z M 400.8,180.32" />
        <path id="canvas1-canvas4bezier105" stroke="none" fill="rgb(200, 212, 230)" d="M 321.45,189.5 C 321.45,194.69 321.48,199.91 321.39,205.13 321.38,205.59 320.56,206.04 320.11,206.49 319.68,205.96 318.87,205.43 318.86,204.88 318.74,201.41 318.8,197.93 318.8,194.13 317.2,194.71 315.92,195.16 314.65,195.62 314.22,193.46 318.87,189.12 321.45,189.5 Z M 321.45,189.5" />
        <path id="canvas1-canvas4bezier106" stroke="none" fill="rgb(200, 212, 230)" d="M 207.33,151.87 C 205.32,147.48 205.9,140.63 208.45,138.22 209.95,136.81 211.35,136.29 213.06,138.22 214.24,139.54 215.92,140.41 217.37,141.49 217.13,141.75 216.89,142.01 216.65,142.28 216.06,143.23 215.47,144.18 214.63,145.52 214.33,143.61 214.3,142.11 213.8,140.79 213.53,140.1 212.45,139.36 211.69,139.31 211.15,139.27 210.14,140.26 210.01,140.92 209.64,142.76 209.46,144.68 209.5,146.56 209.55,148.63 209.3,150.46 207.33,151.87 Z M 207.33,151.87" />
        <path id="canvas1-canvas4bezier107" stroke="none" fill="rgb(200, 212, 230)" d="M 50.94,231.67 L 48.32,231.67 48.32,219.47 C 47.72,219.52 47.34,219.51 46.98,219.6 46.61,219.69 46.27,219.88 45.92,220.03 L 45.39,219.56 C 46.43,217.98 47.4,216.36 48.56,214.88 48.86,214.5 49.77,214.36 50.31,214.49 50.62,214.57 50.91,215.41 50.91,215.91 50.95,221.06 50.94,226.21 50.94,231.67 Z M 50.94,231.67" />
        <path id="canvas1-canvas4bezier108" stroke="none" fill="rgb(200, 212, 230)" d="M 162.92,197.37 C 161.87,196.95 160.97,196.59 160.1,196.25 160.13,190.07 162.79,188.96 166.66,189.22 169.65,189.42 171.38,193.31 170.72,198.15 169.23,198.52 168.37,198.44 168.19,196.41 168.06,194.92 167.19,193.43 166.42,192.07 165.7,190.8 164.69,191.1 164.25,192.31 163.69,193.82 163.41,195.42 162.92,197.37 Z M 162.92,197.37" />
        <path id="canvas1-canvas4bezier109" stroke="none" fill="rgb(200, 212, 230)" d="M 305.81,177.45 C 305.3,174.62 304.85,171.78 304.26,168.97 304.02,167.79 303.78,166.4 303.02,165.61 301.93,164.49 300.39,165.54 299.22,168.5 298.55,167.2 297.44,165.88 297.72,165.43 298.34,164.44 299.58,163.44 300.7,163.26 304.4,162.67 304.87,162.95 306.84,167.34 308.34,170.67 307.94,174.1 306.61,177.38 306.34,177.41 306.07,177.43 305.81,177.45 Z M 305.81,177.45" />
        <path id="canvas1-canvas4bezier110" stroke="none" fill="rgb(200, 212, 230)" d="M 408.71,166.46 C 409.12,168.46 409.6,170.44 409.92,172.45 410.1,173.59 409.79,174.84 410.13,175.9 410.41,176.8 411.2,177.96 411.97,178.15 412.76,178.34 413.8,177.49 414.91,177.02 415.1,177.35 415.55,178.09 416.36,179.47 414.62,179.92 413.13,180.66 411.67,180.61 409.12,180.52 407.46,178.45 407.06,176.36 406.51,173.51 406.93,170.46 407,167.5 407.01,167.17 407.46,166.85 407.71,166.52 408.04,166.5 408.38,166.48 408.71,166.46 Z M 408.71,166.46" />
        <path id="canvas1-canvas4bezier111" stroke="none" fill="rgb(200, 212, 230)" d="M 261.8,142.23 C 263.36,140.56 264.86,138.83 266.52,137.26 266.96,136.85 267.93,136.71 268.55,136.86 268.94,136.96 269.36,137.84 269.37,138.38 269.44,142.03 269.41,145.68 269.41,149.33 L 268.71,149.8 C 267.82,148.73 266.56,147.8 266.14,146.57 265.69,145.24 266.04,143.65 266.04,142.09 264.47,142.49 263.25,142.81 262.02,143.12 261.95,142.82 261.87,142.53 261.8,142.23 Z M 261.8,142.23" />
        <path id="canvas1-canvas4bezier112" stroke="none" fill="rgb(200, 212, 230)" d="M 109.25,204.55 L 109.25,193.99 C 107.77,194.68 106.47,195.28 105.12,195.91 104.79,193.67 109.76,189.16 112.18,189.33 113.29,194.52 112.06,199.3 109.25,204.55 Z M 109.25,204.55" />
        <path id="canvas1-canvas4bezier113" stroke="none" fill="rgb(200, 212, 230)" d="M 404.27,189.59 C 409.17,191.61 410.17,201.67 405.53,205.84 405.21,204.65 404.8,203.77 404.75,202.88 404.58,199.45 404.52,196.01 404.41,192.57 404.38,191.67 404.33,190.76 404.27,189.59 Z M 404.27,189.59" />
        <path id="canvas1-canvas4bezier114" stroke="none" fill="rgb(200, 212, 230)" d="M 179.34,194.04 C 177.64,194.77 176.45,195.27 175.25,195.78 174.63,193.58 179.61,189.05 182.3,189.42 L 182.3,200.31 C 181.28,200.08 180.44,199.9 179.34,199.65 L 179.34,194.04 Z M 179.34,194.04" />
        <path id="canvas1-canvas4bezier115" stroke="none" fill="rgb(200, 212, 230)" d="M 83.74,245.38 C 82.06,246.13 80.77,246.71 79.33,247.35 79.27,247.17 79.09,246.89 79.1,246.61 79.16,244.8 84.29,240.67 86.4,240.95 86.09,245.22 87.71,249.83 83.74,253.91 L 83.74,245.38 Z M 83.74,245.38" />
        <path id="canvas1-canvas4bezier116" stroke="none" fill="rgb(200, 212, 230)" d="M 161.32,96.89 C 161.99,96.67 162.68,96.45 163.44,96.21 163.59,96.34 163.85,96.45 163.93,96.65 164.47,97.98 165.36,99.27 166.82,98.54 167.74,98.09 168.58,96.64 168.69,95.56 168.87,93.73 170.94,92.73 171.06,93.32 171.89,97.5 170,101.05 167.4,101.33 164.08,101.7 161.58,99.9 161.32,96.89 Z M 161.32,96.89" />
        <path id="canvas1-canvas4bezier117" stroke="none" fill="rgb(200, 212, 230)" d="M 131.14,112.95 C 131.14,117.38 131.18,121.81 131.07,126.23 131.06,126.61 130.1,127.19 129.55,127.24 129.18,127.27 128.41,126.52 128.4,126.1 128.31,122.38 128.23,118.64 128.45,114.93 128.49,114.12 129.74,113.38 130.44,112.61 130.67,112.73 130.91,112.84 131.14,112.95 Z M 131.14,112.95" />
        <path id="canvas1-canvas4bezier118" stroke="none" fill="rgb(200, 212, 230)" d="M 182.84,89.22 L 182.84,101.05 C 180.72,101.69 179.58,101.39 179.77,98.88 179.94,96.66 179.95,94.4 179.76,92.18 179.58,89.97 180.55,89.22 182.84,89.22 Z M 182.84,89.22" />
        <path id="canvas1-canvas4bezier119" stroke="none" fill="rgb(200, 212, 230)" d="M 259.9,119.16 C 259.19,117.64 258.57,116.07 257.73,114.63 257.23,113.76 256.43,113.04 255.67,112.35 254.92,111.67 254.06,111.13 252.86,110.23 258.68,108.28 260.92,111.85 260.79,118.78 260.5,118.91 260.2,119.03 259.9,119.16 Z M 259.9,119.16" />
        <path id="canvas1-canvas4bezier120" stroke="none" fill="rgb(200, 212, 230)" d="M 324.88,98.62 C 323.86,101.9 321.51,101.56 319.43,101.24 317.11,100.89 315.59,98.27 315.44,94.3 316.89,95.49 318.25,96.17 318.9,97.26 319.73,98.64 320.5,98.82 321.93,98.44 322.81,98.21 323.85,98.54 324.88,98.62 Z M 324.88,98.62" />
        <path id="canvas1-canvas4bezier121" stroke="none" fill="rgb(200, 212, 230)" d="M 419.87,244.44 L 419.87,254.99 C 419.69,255.14 419.52,255.28 419.34,255.43 418.51,254.5 417.14,253.66 416.96,252.62 416.13,247.89 416.67,246.65 419.87,244.44 Z M 419.87,244.44" />
        <path id="canvas1-canvas4bezier122" stroke="none" fill="rgb(200, 212, 230)" d="M 146.57,194.4 C 148.23,192.98 149.57,192.15 150.47,190.98 151.46,189.7 152.33,188.68 154.27,189.42 L 154.27,195.43 C 153.05,195.12 151.9,194.83 150.25,194.4 L 146.57,194.4 Z M 146.57,194.4" />
        <path id="canvas1-canvas4bezier123" stroke="none" fill="rgb(200, 212, 230)" d="M 111.31,126.29 C 114.9,125.24 117.24,122.62 119.76,119.49 120.25,122.84 119.51,125.22 117.48,126.74 115.72,128.06 113.5,127.85 111.31,126.29 Z M 111.31,126.29" />
        <path id="canvas1-canvas4bezier124" stroke="none" fill="rgb(200, 212, 230)" d="M 128.22,191.16 C 126.51,191.2 125.59,193.03 124.08,191.48 123.95,191.35 122.29,192.52 121.54,193.28 121.08,193.75 120.98,194.6 120.67,195.41 119.87,195.15 119.18,194.93 118.51,194.72 119.43,188.88 122.86,187.43 128.22,191.16 Z M 128.22,191.16" />
        <path id="canvas1-canvas4bezier125" stroke="none" fill="rgb(200, 212, 230)" d="M 425.62,195.9 C 427.3,199.54 428.98,203.17 430.79,207.09 425.4,205.49 424.94,204.08 425.62,195.9 Z M 425.62,195.9" />
        <path id="canvas1-canvas4bezier126" stroke="none" fill="rgb(200, 212, 230)" d="M 365.9,169.81 C 365.89,166.7 370.65,162.94 373.71,163.55 373.11,164.61 372.58,165.57 372.03,166.52 371.5,167.44 370.95,168.36 370.38,169.34 370.3,168.91 370.22,168.5 370.1,167.88 368.73,168.51 367.44,169.1 365.9,169.81 Z M 365.9,169.81" />
        <path id="canvas1-canvas4bezier127" stroke="none" fill="rgb(200, 212, 230)" d="M 446.62,283.26 C 443.76,280.18 443.45,272.58 445.89,268.64 446.15,273.84 446.38,278.55 446.62,283.26 Z M 446.62,283.26" />
        <path id="canvas1-canvas4bezier128" stroke="none" fill="rgb(200, 212, 230)" d="M 56.41,195.35 C 56.41,198.55 56.48,201.76 56.35,204.96 56.33,205.49 55.46,205.99 54.98,206.5 54.52,205.97 53.74,205.48 53.64,204.89 53.07,201.38 54.45,198.31 56.41,195.35 Z M 56.41,195.35" />
        <path id="canvas1-canvas4bezier129" stroke="none" fill="rgb(200, 212, 230)" d="M 133.29,191.75 C 134.18,189.34 136.19,188.88 138.44,189.21 140.89,189.57 142.28,191.13 142.27,194.15 141.09,193.37 139.96,192.48 138.71,191.84 138.09,191.53 137.21,191.55 136.5,191.69 135.52,191.87 134.58,192.31 133.63,192.63 L 133.29,191.75 Z M 133.29,191.75" />
        <path id="canvas1-canvas4bezier130" stroke="none" fill="rgb(200, 212, 230)" d="M 189.77,190.86 C 190.22,194.32 190.67,197.77 191.12,201.24 189.08,201.63 188.06,201.22 188.24,199.23 188.49,196.42 188.69,193.6 188.91,190.79 189.19,190.81 189.48,190.84 189.77,190.86 Z M 189.77,190.86" />
        <path id="canvas1-canvas4bezier131" stroke="none" fill="rgb(200, 212, 230)" d="M 355.26,194.01 C 356.29,195.71 357.14,197.13 358.02,198.53 359.2,200.41 358.49,202.55 356.03,204.05 354.65,200.78 355.56,197.46 355.26,194.01 Z M 355.26,194.01" />
        <path id="canvas1-canvas4bezier132" stroke="none" fill="rgb(200, 212, 230)" d="M 413.92,215.54 L 413.92,227.05 C 409.86,225.27 410.07,225.36 412.49,221.36 413.59,219.53 413.58,217.04 413.92,215.54 Z M 413.92,215.54" />
        <path id="canvas1-canvas4bezier133" stroke="none" fill="rgb(200, 212, 230)" d="M 391.95,147.32 C 394.93,148.82 395.33,151.17 394.8,154.11 L 391.95,154.11 391.95,147.32 Z M 391.95,147.32" />
        <path id="canvas1-canvas4bezier134" stroke="none" fill="rgb(200, 212, 230)" d="M 87.88,149.14 C 87.91,149.75 87.95,150.29 87.96,150.84 87.97,151.89 87.96,152.95 87.96,154.17 L 85.17,154.17 C 84.61,151.63 85.28,150.35 87.88,149.14 Z M 87.88,149.14" />
        <path id="canvas1-canvas4bezier135" stroke="none" fill="rgb(200, 212, 230)" d="M 99.3,221.09 C 99.55,217.5 104.04,217.78 104.25,214.62 103.98,218.54 102.87,220.02 99.3,221.09 Z M 99.3,221.09" />
        <path id="canvas1-canvas4bezier136" stroke="none" fill="rgb(200, 212, 230)" d="M 68.7,273.58 C 68.47,269.75 72.46,269.25 73.63,266.44 L 74.44,267.06 C 73.52,268.16 72.62,269.27 71.68,270.35 70.71,271.45 69.7,272.51 68.7,273.58 Z M 68.7,273.58" />
        <path id="canvas1-canvas4bezier137" stroke="none" fill="rgb(200, 212, 230)" d="M 303.7,189.31 C 308.08,189.13 309.38,190.25 309.84,194.26 307.84,192.65 306.02,191.18 303.7,189.31 Z M 303.7,189.31" />
        <path id="canvas1-canvas4bezier138" stroke="none" fill="rgb(200, 212, 230)" d="M 203.4,171.35 C 206.89,173.3 206.89,173.51 203.4,176.82 L 203.4,171.35 Z M 203.4,171.35" />
        <path id="canvas1-canvas4bezier139" stroke="none" fill="rgb(200, 212, 230)" d="M 221.12,115.75 C 221.36,112.84 222.4,110.67 224.92,109.62 225.17,109.81 225.42,110.01 225.67,110.2 L 221.12,115.75 Z M 221.12,115.75" />
        <path id="canvas1-canvas4bezier140" stroke="none" fill="rgb(200, 212, 230)" d="M 365.55,123.28 C 367.33,124.2 369.36,124.56 368.35,127.19 L 365.55,127.19 365.55,123.28 Z M 365.55,123.28" />
        <path id="canvas1-canvas4bezier141" stroke="none" fill="rgb(200, 212, 230)" d="M 64.5,180.13 C 65.37,178.49 66.16,177.01 66.95,175.52 67.11,175.54 67.26,175.56 67.42,175.58 L 67.42,180.13 64.5,180.13 Z M 64.5,180.13" />
        <path id="canvas1-canvas4bezier142" stroke="none" fill="rgb(200, 212, 230)" d="M 424.01,271.66 C 424.68,270.87 425.19,270.27 426,269.32 426.62,270.97 427.14,272.39 427.67,273.8 427.45,273.95 427.22,274.1 427,274.26 426.03,273.42 425.07,272.58 424.01,271.66 Z M 424.01,271.66" />
        <path id="canvas1-canvas4bezier143" stroke="none" fill="rgb(200, 212, 230)" d="M 319.92,240.75 C 321.99,240.57 324.1,240.29 325.16,243.63 323.04,242.77 321.39,242.1 319.73,241.42 319.79,241.2 319.86,240.97 319.92,240.75 Z M 319.92,240.75" />
        <path id="canvas1-canvas4bezier144" stroke="none" fill="rgb(200, 212, 230)" d="M 442.26,244.39 C 442.52,244.96 442.77,245.53 443.09,246.24 442.26,246.71 441.53,247.12 440.8,247.53 440.59,247.41 440.37,247.28 440.16,247.15 440.63,246.15 441.09,245.15 441.55,244.15 L 442.26,244.39 Z M 442.26,244.39" />
        <path id="canvas1-canvas4bezier145" stroke="none" fill="rgb(200, 212, 230)" d="M 389.85,168.96 C 388.92,167.37 387.79,165.44 386.7,163.57 389.69,164.26 389.11,167.26 389.85,168.96 Z M 389.85,168.96" />
        <path id="canvas1-canvas4largeA2" stroke="none" fill="rgb(16, 67, 145)" d="M 292.86,314.39 L 295.41,314.39 C 294.99,313.4 294.63,312.55 294.13,311.37 293.63,312.55 293.27,313.41 292.86,314.39 Z M 304.15,321.66 C 302.41,321.66 300.92,321.81 299.48,321.59 298.97,321.51 298.34,320.64 298.17,320.01 297.81,318.73 297.14,318.44 296,318.52 294.52,318.62 293.03,318.57 291.55,318.53 290.86,318.51 290.53,318.81 290.29,319.46 289.5,321.65 289.44,321.67 287.26,321.67 286.28,321.67 285.31,321.67 284.22,321.67 285.23,319.4 286.16,317.3 287.1,315.21 288.58,311.95 290.06,308.69 291.55,305.44 292.09,304.25 292.6,303.05 293.2,301.89 293.37,301.56 293.79,301.16 294.08,301.18 294.42,301.21 294.88,301.57 295.05,301.92 296.12,304.22 297.12,306.57 298.17,308.89 299.78,312.47 301.41,316.05 303.05,319.63 303.32,320.23 303.68,320.8 304.15,321.66 Z M 304.15,321.66" />
        <path id="canvas1-canvas4largeA3" stroke="none" fill="rgb(16, 67, 145)" d="M 175.77,314.16 L 178.32,314.16 C 177.9,313.17 177.54,312.32 177.04,311.14 176.54,312.32 176.18,313.18 175.77,314.16 Z M 187.06,321.43 C 185.32,321.43 183.83,321.58 182.39,321.36 181.88,321.28 181.25,320.41 181.08,319.78 180.72,318.5 180.05,318.21 178.91,318.29 177.43,318.39 175.94,318.34 174.46,318.3 173.77,318.28 173.44,318.58 173.2,319.23 172.41,321.42 172.35,321.44 170.17,321.44 169.19,321.44 168.22,321.44 167.13,321.44 168.14,319.17 169.07,317.07 170.01,314.98 171.49,311.72 172.97,308.46 174.46,305.21 175,304.02 175.51,302.82 176.11,301.66 176.28,301.33 176.7,300.93 176.99,300.95 177.33,300.98 177.79,301.34 177.96,301.69 179.03,303.99 180.03,306.34 181.08,308.66 182.69,312.24 184.32,315.82 185.96,319.4 186.23,320 186.59,320.57 187.06,321.43 Z M 187.06,321.43" />
    </g>
</svg>
